<?xml version="1.0" encoding="utf-8"?>
<!-- Generator: Adobe Illustrator 25.0.1, SVG Export Plug-In . SVG Version: 6.00 Build 0)  -->
<!DOCTYPE svg PUBLIC "-//W3C//DTD SVG 1.1//EN" "http://www.w3.org/Graphics/SVG/1.1/DTD/svg11.dtd" [
	<!ENTITY ns_extend "http://ns.adobe.com/Extensibility/1.0/">
	<!ENTITY ns_ai "http://ns.adobe.com/AdobeIllustrator/10.0/">
	<!ENTITY ns_graphs "http://ns.adobe.com/Graphs/1.0/">
	<!ENTITY ns_vars "http://ns.adobe.com/Variables/1.0/">
	<!ENTITY ns_imrep "http://ns.adobe.com/ImageReplacement/1.0/">
	<!ENTITY ns_sfw "http://ns.adobe.com/SaveForWeb/1.0/">
	<!ENTITY ns_custom "http://ns.adobe.com/GenericCustomNamespace/1.0/">
	<!ENTITY ns_adobe_xpath "http://ns.adobe.com/XPath/1.0/">
]>
<svg version="1.1" id="Livello_1" xmlns:x="&ns_extend;" xmlns:i="&ns_ai;" xmlns:graph="&ns_graphs;"
	 xmlns="http://www.w3.org/2000/svg" xmlns:xlink="http://www.w3.org/1999/xlink" x="0px" y="0px" viewBox="0 0 399.3109 400"
	 style="enable-background:new 0 0 399.3109 400;" xml:space="preserve">
<style type="text/css">
	.st0{fill:url(#SVGID_1_);stroke:#402C35;stroke-width:0.4;stroke-miterlimit:10;}
	.st1{fill:url(#SVGID_2_);stroke:#402C35;stroke-width:0.4;stroke-miterlimit:10;}
	.st2{fill:url(#SVGID_3_);stroke:#402C35;stroke-width:0.4;stroke-miterlimit:10;}
	.st3{fill:url(#SVGID_4_);stroke:#402C35;stroke-width:0.4;stroke-miterlimit:10;}
	.st4{fill:url(#SVGID_5_);stroke:#402C35;stroke-width:0.4;stroke-miterlimit:10;}
	.st5{fill:url(#SVGID_6_);stroke:#402C35;stroke-width:0.4;stroke-miterlimit:10;}
	.st6{fill:url(#SVGID_7_);stroke:#402C35;stroke-width:0.4;stroke-miterlimit:10;}
	.st7{fill:url(#SVGID_8_);stroke:#402C35;stroke-width:0.4;stroke-miterlimit:10;}
	.st8{fill:url(#SVGID_9_);stroke:#402C35;stroke-width:0.4;stroke-miterlimit:10;}
	.st9{fill:url(#SVGID_10_);stroke:#402C35;stroke-width:0.4;stroke-miterlimit:10;}
	.st10{fill:url(#SVGID_11_);stroke:#402C35;stroke-width:0.4;stroke-miterlimit:10;}
	.st11{fill:url(#SVGID_12_);stroke:#402C35;stroke-width:0.4;stroke-miterlimit:10;}
	.st12{fill:url(#SVGID_13_);stroke:#402C35;stroke-width:0.4;stroke-miterlimit:10;}
	.st13{fill:url(#SVGID_14_);stroke:#402C35;stroke-width:0.4;stroke-miterlimit:10;}
	.st14{fill:url(#SVGID_15_);stroke:#402C35;stroke-width:0.4;stroke-miterlimit:10;}
	.st15{fill:url(#SVGID_16_);stroke:#402C35;stroke-width:0.4;stroke-miterlimit:10;}
	.st16{fill:url(#SVGID_17_);stroke:#402C35;stroke-width:0.4;stroke-miterlimit:10;}
	.st17{fill:url(#SVGID_18_);stroke:#402C35;stroke-width:0.4;stroke-miterlimit:10;}
	.st18{fill:url(#SVGID_19_);stroke:#402C35;stroke-width:0.4;stroke-miterlimit:10;}
	.st19{fill:url(#SVGID_20_);stroke:#402C35;stroke-width:0.4;stroke-miterlimit:10;}
	.st20{fill:url(#SVGID_21_);stroke:#402C35;stroke-width:0.4;stroke-miterlimit:10;}
	.st21{fill:url(#SVGID_22_);stroke:#402C35;stroke-width:0.4;stroke-miterlimit:10;}
	.st22{fill:url(#SVGID_23_);stroke:#402C35;stroke-width:0.4;stroke-miterlimit:10;}
	.st23{fill:url(#SVGID_24_);stroke:#402C35;stroke-width:0.4;stroke-miterlimit:10;}
	.st24{fill:url(#SVGID_25_);stroke:#402C35;stroke-width:0.4;stroke-miterlimit:10;}
	.st25{fill:url(#SVGID_26_);stroke:#402C35;stroke-width:0.4;stroke-miterlimit:10;}
	.st26{fill:url(#SVGID_27_);stroke:#402C35;stroke-width:0.4;stroke-miterlimit:10;}
	.st27{fill:url(#SVGID_28_);stroke:#402C35;stroke-width:0.4;stroke-miterlimit:10;}
	.st28{fill:url(#SVGID_29_);stroke:#402C35;stroke-width:0.4;stroke-miterlimit:10;}
	.st29{fill:url(#SVGID_30_);stroke:#402C35;stroke-width:0.4;stroke-miterlimit:10;}
	.st30{fill:url(#SVGID_31_);stroke:#402C35;stroke-width:0.4;stroke-miterlimit:10;}
	.st31{fill:url(#SVGID_32_);stroke:#402C35;stroke-width:0.4;stroke-miterlimit:10;}
	.st32{fill:url(#SVGID_33_);stroke:#402C35;stroke-width:0.4;stroke-miterlimit:10;}
	.st33{fill:url(#SVGID_34_);stroke:#402C35;stroke-width:0.4;stroke-miterlimit:10;}
	.st34{fill:url(#SVGID_35_);stroke:#402C35;stroke-width:0.4;stroke-miterlimit:10;}
	.st35{fill:url(#SVGID_36_);stroke:#402C35;stroke-width:0.4;stroke-miterlimit:10;}
	.st36{fill:url(#SVGID_37_);stroke:#402C35;stroke-width:0.4;stroke-miterlimit:10;}
	.st37{fill:url(#SVGID_38_);stroke:#402C35;stroke-width:0.4;stroke-miterlimit:10;}
	.st38{fill:url(#SVGID_39_);stroke:#402C35;stroke-width:0.4;stroke-miterlimit:10;}
	.st39{fill:url(#SVGID_40_);stroke:#402C35;stroke-width:0.4;stroke-miterlimit:10;}
	.st40{fill:url(#SVGID_41_);stroke:#402C35;stroke-width:0.4;stroke-miterlimit:10;}
	.st41{fill:url(#SVGID_42_);stroke:#402C35;stroke-width:0.4;stroke-miterlimit:10;}
	.st42{fill:url(#SVGID_43_);stroke:#402C35;stroke-width:0.4;stroke-miterlimit:10;}
	.st43{fill:url(#SVGID_44_);stroke:#402C35;stroke-width:0.4;stroke-miterlimit:10;}
	.st44{fill:url(#SVGID_45_);stroke:#402C35;stroke-width:1.8;stroke-linecap:round;stroke-miterlimit:10;}
	.st45{fill:url(#SVGID_46_);stroke:#402C35;stroke-width:0.4;stroke-miterlimit:10;}
	.st46{fill:url(#SVGID_47_);stroke:#402C35;stroke-width:0.4;stroke-miterlimit:10;}
	.st47{fill:url(#SVGID_48_);stroke:#402C35;stroke-width:0.4;stroke-miterlimit:10;}
	.st48{fill:url(#SVGID_49_);stroke:#402C35;stroke-width:0.4;stroke-miterlimit:10;}
	.st49{fill:url(#SVGID_50_);stroke:#402C35;stroke-width:1.8;stroke-linecap:round;stroke-miterlimit:10;}
</style>
<metadata>
	<sfw  xmlns="&ns_sfw;">
		<slices></slices>
		<sliceSourceBounds  bottomLeftOrigin="true" height="392.6021" width="391.9255" x="3.6927" y="3.6989"></sliceSourceBounds>
	</sfw>
</metadata>
<g>
	
		<linearGradient id="SVGID_1_" gradientUnits="userSpaceOnUse" x1="116.1302" y1="435.8747" x2="45.4995" y2="423.4207" gradientTransform="matrix(0.9921 0.1253 0.1253 -0.9921 66.8223 447.6003)">
		<stop  offset="0" style="stop-color:#FABBC2"/>
		<stop  offset="0.4822" style="stop-color:#FFA1AF"/>
		<stop  offset="0.6738" style="stop-color:#FD9BA8"/>
		<stop  offset="0.9583" style="stop-color:#F88994"/>
		<stop  offset="1" style="stop-color:#F78690"/>
	</linearGradient>
	<path class="st0" d="M166.5488,57.942c16.8325,2.131,30.4307-10.6441,46.3026-27.1319
		c9.0507-9.4016,15.6325-16.8348,22.8775-19.9144c-3.0007-2.9625-6.637-4.8365-11.4957-5.4503
		c-13.9299-1.7598-20.7117,8.9798-32.6906,25.0445c-8.8035,11.8062-17.4091,22.0077-25.3178,27.4157"/>
</g>
<g>
	
		<linearGradient id="SVGID_2_" gradientUnits="userSpaceOnUse" x1="-101.1014" y1="521.2904" x2="-171.7299" y2="508.8366" gradientTransform="matrix(0.9298 0.3681 0.3681 -0.9298 179.9519 566.1811)">
		<stop  offset="0" style="stop-color:#FABBC2"/>
		<stop  offset="0.4822" style="stop-color:#FFA1AF"/>
		<stop  offset="0.6738" style="stop-color:#FD9BA8"/>
		<stop  offset="0.9583" style="stop-color:#F88994"/>
		<stop  offset="1" style="stop-color:#F78690"/>
	</linearGradient>
	<path class="st1" d="M202.9173,54.1717c15.7737,6.2501,32.1218-2.7418,51.5953-14.7646
		c11.1044-6.8554,19.328-12.4183,27.1113-13.5993c-2.1697-3.6157-5.2257-6.3351-9.7791-8.138
		c-13.0546-5.1687-22.2942,3.5469-37.8919,16.1279c-11.463,9.246-22.3353,16.9868-31.3404,20.2581"/>
</g>
<g>
	
		<linearGradient id="SVGID_3_" gradientUnits="userSpaceOnUse" x1="-216.0133" y1="542.9176" x2="-286.6382" y2="530.4645" gradientTransform="matrix(0.8763 0.4818 0.4818 -0.8763 224.4489 635.1328)">
		<stop  offset="0" style="stop-color:#FABBC2"/>
		<stop  offset="0.4822" style="stop-color:#FFA1AF"/>
		<stop  offset="0.6738" style="stop-color:#FD9BA8"/>
		<stop  offset="0.9583" style="stop-color:#F88994"/>
		<stop  offset="1" style="stop-color:#F78690"/>
	</linearGradient>
	<path class="st2" d="M221.1687,55.7304c14.866,8.1778,32.2121,1.3057,53.039-8.1815c11.8761-5.4096,20.732-9.8979,28.602-10.0941
		c-1.6994-3.8591-4.3905-6.9401-8.6821-9.2994c-12.3038-6.7641-22.563,0.7247-39.6145,11.2516
		c-12.5314,7.7364-24.2882,14.0535-33.6322,16.1704"/>
</g>
<g>
	
		<linearGradient id="SVGID_4_" gradientUnits="userSpaceOnUse" x1="-332.7432" y1="549.9791" x2="-403.3707" y2="537.5255" gradientTransform="matrix(0.809 0.5878 0.5878 -0.809 260.0168 709.1259)">
		<stop  offset="0" style="stop-color:#FABBC2"/>
		<stop  offset="0.4822" style="stop-color:#FFA1AF"/>
		<stop  offset="0.6738" style="stop-color:#FD9BA8"/>
		<stop  offset="0.9583" style="stop-color:#F88994"/>
		<stop  offset="1" style="stop-color:#F78690"/>
	</linearGradient>
	<path class="st3" d="M239.0808,59.5644c13.7238,9.9765,31.7945,5.3327,53.6461-1.4695
		c12.4604-3.8785,21.8091-7.2214,29.6416-6.4298c-1.2023-4.0417-3.486-7.4357-7.4481-10.3143
		c-11.3591-8.2528-22.4759-2.1089-40.7123,6.1979c-13.4023,6.1048-25.858,10.8986-35.3937,11.8276"/>
</g>
<g>
	
		<linearGradient id="SVGID_5_" gradientUnits="userSpaceOnUse" x1="-449.4401" y1="542.3839" x2="-520.0712" y2="529.9296" gradientTransform="matrix(0.729 0.6845 0.6845 -0.729 286.0539 787.0245)">
		<stop  offset="0" style="stop-color:#FABBC2"/>
		<stop  offset="0.4822" style="stop-color:#FFA1AF"/>
		<stop  offset="0.6738" style="stop-color:#FD9BA8"/>
		<stop  offset="0.9583" style="stop-color:#F88994"/>
		<stop  offset="1" style="stop-color:#F78690"/>
	</linearGradient>
	<path class="st4" d="M256.3712,65.613c12.3653,11.6179,30.8754,9.2755,53.4073,5.2658c12.8483-2.2862,22.5422-4.4311,30.2137-2.664
		c-0.6863-4.1605-2.5266-7.8139-6.0966-11.1664c-10.2351-9.6114-22.0344-4.9092-41.1681,1.0464
		c-14.0617,4.3769-27.0201,7.5718-36.597,7.2983"/>
</g>
<g>
	
		<linearGradient id="SVGID_6_" gradientUnits="userSpaceOnUse" x1="-564.2582" y1="520.1665" x2="-634.8876" y2="507.7127" gradientTransform="matrix(0.6374 0.7705 0.7705 -0.6374 302.0562 867.5118)">
		<stop  offset="0" style="stop-color:#FABBC2"/>
		<stop  offset="0.4822" style="stop-color:#FFA1AF"/>
		<stop  offset="0.6738" style="stop-color:#FD9BA8"/>
		<stop  offset="0.9583" style="stop-color:#F88994"/>
		<stop  offset="1" style="stop-color:#F78690"/>
	</linearGradient>
	<path class="st5" d="M272.7671,73.7811c10.8116,13.0761,29.4694,13.0721,52.3262,11.918
		c13.0335-0.6579,22.9198-1.5709,30.3094,1.1438c-0.1594-4.2137-1.5273-8.069-4.649-11.8425
		c-8.9498-10.8184-21.2453-7.6321-40.9746-4.1216c-14.4994,2.58-27.756,4.1256-37.2232,2.654"/>
</g>
<g>
	
		<linearGradient id="SVGID_7_" gradientUnits="userSpaceOnUse" x1="-675.3962" y1="483.7611" x2="-746.0267" y2="471.307" gradientTransform="matrix(0.5358 0.8443 0.8443 -0.5358 307.8758 949.4011)">
		<stop  offset="0" style="stop-color:#FABBC2"/>
		<stop  offset="0.4822" style="stop-color:#FFA1AF"/>
		<stop  offset="0.6738" style="stop-color:#FD9BA8"/>
		<stop  offset="0.9583" style="stop-color:#F88994"/>
		<stop  offset="1" style="stop-color:#F78690"/>
	</linearGradient>
	<path class="st6" d="M288.01,83.9397c9.0875,14.328,27.5987,16.6625,50.4199,18.3822c13.0132,0.9809,22.9359,1.3141,29.927,4.9336
		c0.37-4.2005-0.504-8.1968-3.1281-12.3318c-7.5233-11.8549-20.1212-10.2347-40.135-9.2246
		c-14.7084,0.7424-28.0542,0.6143-37.2623-2.0323"/>
</g>
<g>
	
		<linearGradient id="SVGID_8_" gradientUnits="userSpaceOnUse" x1="-781.0806" y1="433.746" x2="-851.711" y2="421.2919" gradientTransform="matrix(0.4258 0.9048 0.9048 -0.4258 303.3809 1031.4058)">
		<stop  offset="0" style="stop-color:#FABBC2"/>
		<stop  offset="0.4822" style="stop-color:#FFA1AF"/>
		<stop  offset="0.6738" style="stop-color:#FD9BA8"/>
		<stop  offset="0.9583" style="stop-color:#F88994"/>
		<stop  offset="1" style="stop-color:#F78690"/>
	</linearGradient>
	<path class="st7" d="M301.8595,95.9286c7.2201,15.354,25.2927,19.9902,47.7184,24.5565
		c12.7876,2.6041,22.5904,4.1784,29.0727,8.6455c0.8935-4.121,0.5273-8.1953-1.5579-12.6266
		c-5.9782-12.7043-18.6798-12.6759-38.6623-14.1821c-14.6855-1.1069-27.91-2.9067-36.7138-6.6864"/>
</g>
<g>
	
		<linearGradient id="SVGID_9_" gradientUnits="userSpaceOnUse" x1="-879.6127" y1="370.8155" x2="-950.2369" y2="358.3625" gradientTransform="matrix(0.309 0.9511 0.9511 -0.309 288.5959 1112.1538)">
		<stop  offset="0" style="stop-color:#FABBC2"/>
		<stop  offset="0.4822" style="stop-color:#FFA1AF"/>
		<stop  offset="0.6738" style="stop-color:#FD9BA8"/>
		<stop  offset="0.9583" style="stop-color:#F88994"/>
		<stop  offset="1" style="stop-color:#F78690"/>
	</linearGradient>
	<path class="st8" d="M314.0972,109.5588c5.2388,16.1378,22.5878,23.0025,44.2644,30.3436
		c12.3604,4.1863,21.8886,6.9768,27.7599,12.2211c1.403-3.9765,1.5503-8.0646,0.037-12.7223
		c-4.3388-13.3534-16.9438-14.9171-36.58-18.9159c-14.4309-2.9388-27.3256-6.3818-35.5862-11.2352"/>
</g>
<g>
	
		<linearGradient id="SVGID_10_" gradientUnits="userSpaceOnUse" x1="-969.5623" y1="296.0949" x2="-1040.1898" y2="283.6413" gradientTransform="matrix(0.1874 0.9823 0.9823 -0.1874 263.8745 1190.4537)">
		<stop  offset="0" style="stop-color:#FABBC2"/>
		<stop  offset="0.4822" style="stop-color:#FFA1AF"/>
		<stop  offset="0.6738" style="stop-color:#FD9BA8"/>
		<stop  offset="0.9583" style="stop-color:#F88994"/>
		<stop  offset="1" style="stop-color:#F78690"/>
	</linearGradient>
	<path class="st9" d="M324.5301,124.6153c3.1749,16.6672,19.5267,25.6522,40.1123,35.6521
		c11.7383,5.7024,20.8416,9.6651,26.0092,15.604c1.8903-3.7693,2.5489-7.8067,1.6312-12.6173
		c-2.631-13.7919-14.9406-16.9231-33.9207-23.3515c-13.9489-4.7243-26.3103-9.7563-33.8975-15.6067"/>
</g>
<g>
	
		<linearGradient id="SVGID_11_" gradientUnits="userSpaceOnUse" x1="-1049.4452" y1="210.6389" x2="-1120.0754" y2="198.1849" gradientTransform="matrix(0.0628 0.998 0.998 -0.0628 229.538 1265.0063)">
		<stop  offset="0" style="stop-color:#B3E3BC"/>
		<stop  offset="0.4822" style="stop-color:#A6D3AF"/>
		<stop  offset="0.6585" style="stop-color:#9FD0A9"/>
		<stop  offset="0.9202" style="stop-color:#8BC997"/>
		<stop  offset="1" style="stop-color:#83C690"/>
	</linearGradient>
	<path class="st10" d="M332.9937,140.8607c1.0609,16.9337,16.1577,27.8972,35.3276,40.3984
		c10.931,7.1287,19.4659,12.2011,23.8484,18.7408c2.3478-3.5027,3.5072-7.4257,3.1997-12.3134
		c-0.8816-14.0129-12.7018-18.6622-30.7266-27.4187c-13.2467-6.4353-24.88-12.9769-31.6741-19.7321"/>
</g>
<g>
	
		<linearGradient id="SVGID_12_" gradientUnits="userSpaceOnUse" x1="-1216.7791" y1="-95.5104" x2="-1287.4059" y2="-107.9639" gradientTransform="matrix(-0.309 0.9511 0.9511 0.309 74.8424 1455.0378)">
		<stop  offset="0" style="stop-color:#FABBC2"/>
		<stop  offset="0.4822" style="stop-color:#FFA1AF"/>
		<stop  offset="0.6738" style="stop-color:#FD9BA8"/>
		<stop  offset="0.9583" style="stop-color:#F88994"/>
		<stop  offset="1" style="stop-color:#F78690"/>
	</linearGradient>
	<path class="st11" d="M345.4008,194.0987c-5.2473,16.1351,4.7534,31.8862,17.9751,50.5664
		c7.5392,10.6521,13.6074,18.5101,15.2748,26.2039c3.4723-2.3924,5.9945-5.6131,7.5079-10.2708
		c4.3388-13.3534-4.9398-22.0275-18.4753-36.8045c-9.9475-10.8598-18.3557-21.2246-22.186-30.0065"/>
</g>
<g>
	
		<linearGradient id="SVGID_13_" gradientUnits="userSpaceOnUse" x1="-1245.601" y1="-208.9541" x2="-1316.2288" y2="-221.4077" gradientTransform="matrix(-0.4258 0.9048 0.9048 0.4258 8.852 1503.7941)">
		<stop  offset="0" style="stop-color:#BDF2BF"/>
		<stop  offset="0.4822" style="stop-color:#A4CFA9"/>
		<stop  offset="0.6657" style="stop-color:#9DCDA3"/>
		<stop  offset="0.9383" style="stop-color:#89C894"/>
		<stop  offset="1" style="stop-color:#83C690"/>
	</linearGradient>
	<path class="st12" d="M344.9912,212.412c-7.2282,15.3502,0.7195,32.2306,11.4957,52.4206
		c6.1446,11.513,11.1801,20.0696,11.8701,27.9117c3.7448-1.9384,6.6507-4.8176,8.7359-9.2488
		c5.9782-12.7043-2.14-22.473-13.7168-38.8298c-8.508-12.021-15.5509-23.3578-18.2502-32.5505"/>
</g>
<g>
	
		<linearGradient id="SVGID_14_" gradientUnits="userSpaceOnUse" x1="-1260.0364" y1="-324.9829" x2="-1330.6674" y2="-337.4371" gradientTransform="matrix(-0.5358 0.8443 0.8443 0.5358 -62.7673 1543.9492)">
		<stop  offset="0" style="stop-color:#FABBC2"/>
		<stop  offset="0.4822" style="stop-color:#FFA1AF"/>
		<stop  offset="0.6738" style="stop-color:#FD9BA8"/>
		<stop  offset="0.9583" style="stop-color:#F88994"/>
		<stop  offset="1" style="stop-color:#F78690"/>
	</linearGradient>
	<path class="st13" d="M342.2895,230.5295c-9.0951,14.3232-3.3257,32.0666,4.8351,53.448
		c4.6532,12.1923,8.5766,21.3126,8.2783,29.1794c3.9582-1.4537,7.2021-3.946,9.8263-8.081
		c7.5233-11.8548,0.6934-22.564-8.742-40.2428c-6.9343-12.9925-12.5007-25.1227-14.0267-34.5812"/>
</g>
<g>
	
		<linearGradient id="SVGID_15_" gradientUnits="userSpaceOnUse" x1="-1259.7441" y1="-441.9095" x2="-1330.3744" y2="-454.3635" gradientTransform="matrix(-0.6374 0.7705 0.7705 0.6374 -138.8654 1574.7815)">
		<stop  offset="0" style="stop-color:#FABBC2"/>
		<stop  offset="0.4822" style="stop-color:#FFA1AF"/>
		<stop  offset="0.6738" style="stop-color:#FD9BA8"/>
		<stop  offset="0.9583" style="stop-color:#F88994"/>
		<stop  offset="1" style="stop-color:#F78690"/>
	</linearGradient>
	<path class="st14" d="M337.3384,248.1656c-10.8185,13.0703-7.3185,31.3969-1.9019,53.6326
		c3.0884,12.6794,5.8378,22.2195,4.5558,29.9868c4.1092-0.9462,7.6399-3.0123,10.7616-6.7857
		c8.9498-10.8185,3.516-22.2991-3.6293-41.0211c-5.2512-13.7592-9.2534-26.4913-9.5819-36.0666"/>
</g>
<g>
	
		<linearGradient id="SVGID_16_" gradientUnits="userSpaceOnUse" x1="-1244.7145" y1="-557.953" x2="-1315.3408" y2="-570.4063" gradientTransform="matrix(-0.729 0.6845 0.6845 0.729 -218.2028 1595.7966)">
		<stop  offset="0" style="stop-color:#B3E3BC"/>
		<stop  offset="0.4822" style="stop-color:#A6D3AF"/>
		<stop  offset="0.6585" style="stop-color:#9FD0A9"/>
		<stop  offset="0.9202" style="stop-color:#8BC997"/>
		<stop  offset="1" style="stop-color:#83C690"/>
	</linearGradient>
	<path class="st15" d="M330.216,265.042c-12.3714,11.6114-11.1959,30.2321-8.6089,52.9713
		c1.4749,12.9665,3.0069,22.7759,0.7616,30.3214c4.1954-0.4237,7.9572-2.031,11.5272-5.3835
		c10.2351-9.6114,6.2831-21.6826,1.5406-41.1526c-3.4853-14.3088-5.8603-27.4422-4.986-36.9831"/>
</g>
<g>
	
		<linearGradient id="SVGID_17_" gradientUnits="userSpaceOnUse" x1="-1215.449" y1="-671.0508" x2="-1286.0784" y2="-683.5046" gradientTransform="matrix(-0.809 0.5878 0.5878 0.809 -299.6026 1606.7739)">
		<stop  offset="0" style="stop-color:#FABBC2"/>
		<stop  offset="0.4822" style="stop-color:#FFA1AF"/>
		<stop  offset="0.6738" style="stop-color:#FD9BA8"/>
		<stop  offset="0.9583" style="stop-color:#F88994"/>
		<stop  offset="1" style="stop-color:#F78690"/>
	</linearGradient>
	<path class="st16" d="M321.0346,280.8927c-13.7291,9.9692-14.8967,28.5905-15.18,51.4746
		c-0.1618,13.0491,0.1286,22.9732-3.0447,30.1777c4.2154,0.1055,8.149-1.0176,12.111-3.8962
		c11.3591-8.2528,8.9511-20.7242,6.6863-40.635c-1.6645-14.6328-2.3746-27.9603-0.3115-37.3164"/>
</g>
<g>
	
		<linearGradient id="SVGID_18_" gradientUnits="userSpaceOnUse" x1="-1172.1494" y1="-779.6207" x2="-1242.7781" y2="-792.0745" gradientTransform="matrix(-0.8763 0.4818 0.4818 0.8763 -381.7189 1607.428)">
		<stop  offset="0" style="stop-color:#FABBC2"/>
		<stop  offset="0.4822" style="stop-color:#FFA1AF"/>
		<stop  offset="0.6738" style="stop-color:#FD9BA8"/>
		<stop  offset="0.9583" style="stop-color:#F88994"/>
		<stop  offset="1" style="stop-color:#F78690"/>
	</linearGradient>
	<path class="st17" d="M309.9389,295.4677c-14.8703,8.1699-18.3625,26.498-21.5118,49.1661
		c-1.796,12.9259-2.7517,22.8082-6.8029,29.5582c4.1689,0.633,8.2123,0.0117,12.5039-2.3476
		c12.3038-6.7641,11.4779-19.4389,11.7264-39.4765c0.1826-14.726,1.1485-28.0374,4.368-37.0612"/>
</g>
<g>
	
		<linearGradient id="SVGID_19_" gradientUnits="userSpaceOnUse" x1="-1115.4645" y1="-882.0452" x2="-1186.0902" y2="-894.4985" gradientTransform="matrix(-0.9298 0.3681 0.3681 0.9298 -463.2085 1597.765)">
		<stop  offset="0" style="stop-color:#B3E3BC"/>
		<stop  offset="0.4822" style="stop-color:#A6D3AF"/>
		<stop  offset="0.6585" style="stop-color:#9FD0A9"/>
		<stop  offset="0.9202" style="stop-color:#8BC997"/>
		<stop  offset="1" style="stop-color:#83C690"/>
	</linearGradient>
	<path class="st18" d="M297.104,308.5371c-15.777,6.2417-21.5388,23.9876-27.5043,46.0823
		c-3.4019,12.5989-5.5887,22.2835-10.4539,28.4724c4.0568,1.1505,8.1461,1.0409,12.6995-0.762
		c13.0546-5.1687,13.8238-17.847,16.5817-37.6955c2.0269-14.587,4.6534-27.6724,8.9785-36.2215"/>
</g>
<g>
	
		<linearGradient id="SVGID_20_" gradientUnits="userSpaceOnUse" x1="-1046.5535" y1="-976.4351" x2="-1117.1804" y2="-988.8885" gradientTransform="matrix(-0.9686 0.2487 0.2487 0.9686 -542.9094 1577.9926)">
		<stop  offset="0" style="stop-color:#B3E3BC"/>
		<stop  offset="0.4822" style="stop-color:#A6D3AF"/>
		<stop  offset="0.6585" style="stop-color:#9FD0A9"/>
		<stop  offset="0.9202" style="stop-color:#8BC997"/>
		<stop  offset="1" style="stop-color:#83C690"/>
	</linearGradient>
	<path class="st19" d="M282.7323,319.8948c-16.4349,4.2151-24.3755,21.0989-33.0631,42.2717
		c-4.9541,12.0732-8.3374,21.4073-13.94,26.9377c3.8806,1.6498,7.9513,2.0536,12.6948,0.8357
		c13.5995-3.4918,15.9516-15.9737,21.1755-35.3201c3.8391-14.2179,8.085-26.871,13.4475-34.8105"/>
</g>
<g>
	
		<linearGradient id="SVGID_21_" gradientUnits="userSpaceOnUse" x1="-966.2721" y1="-1061.5826" x2="-1036.9" y2="-1074.0363" gradientTransform="matrix(-0.9921 0.1253 0.1253 0.9921 -619.4519 1548.3976)">
		<stop  offset="0" style="stop-color:#B3E3BC"/>
		<stop  offset="0.4822" style="stop-color:#A6D3AF"/>
		<stop  offset="0.6585" style="stop-color:#9FD0A9"/>
		<stop  offset="0.9202" style="stop-color:#8BC997"/>
		<stop  offset="1" style="stop-color:#83C690"/>
	</linearGradient>
	<path class="st20" d="M267.0504,329.3617c-16.8336,2.122-26.8276,17.8775-38.1004,37.7945
		c-6.4283,11.3571-10.9547,20.1935-17.2063,24.9781c3.6432,2.1232,7.6313,3.034,12.49,2.4202
		c13.9299-1.7598,17.8279-13.8485,25.4353-32.3876c5.5908-13.6247,11.3891-25.6458,17.7043-32.8506"/>
</g>
<g>
	
		<linearGradient id="SVGID_22_" gradientUnits="userSpaceOnUse" x1="-777.1361" y1="-1198.2649" x2="-847.7668" y2="-1210.719" gradientTransform="matrix(-0.9921 -0.1253 -0.1253 0.9921 -758.5539 1461.7072)">
		<stop  offset="0" style="stop-color:#B3E3BC"/>
		<stop  offset="0.4822" style="stop-color:#A6D3AF"/>
		<stop  offset="0.6585" style="stop-color:#9FD0A9"/>
		<stop  offset="0.9202" style="stop-color:#8BC997"/>
		<stop  offset="1" style="stop-color:#83C690"/>
	</linearGradient>
	<path class="st21" d="M232.7622,342.058c-16.8325-2.131-30.4307,10.6441-46.3026,27.132
		c-9.0507,9.4016-15.6325,16.8348-22.8775,19.9144c3.0007,2.9625,6.637,4.8365,11.4957,5.4503
		c13.9299,1.7598,20.7117-8.9798,32.6906-25.0446c8.8035-11.8062,17.4091-22.0077,25.3178-27.4156"/>
</g>
<g>
	
		<linearGradient id="SVGID_23_" gradientUnits="userSpaceOnUse" x1="-444.9965" y1="-1305.3086" x2="-515.6215" y2="-1317.7617" gradientTransform="matrix(-0.8763 -0.4818 -0.4818 0.8763 -916.1805 1274.1746)">
		<stop  offset="0" style="stop-color:#FABBC2"/>
		<stop  offset="0.4822" style="stop-color:#FFA1AF"/>
		<stop  offset="0.6738" style="stop-color:#FD9BA8"/>
		<stop  offset="0.9583" style="stop-color:#F88994"/>
		<stop  offset="1" style="stop-color:#F78690"/>
	</linearGradient>
	<path class="st22" d="M178.1423,344.2696c-14.866-8.1778-32.2121-1.3057-53.039,8.1815
		c-11.8761,5.4096-20.732,9.8979-28.602,10.0941c1.6994,3.8591,4.3905,6.9401,8.6821,9.2994
		c12.3039,6.7641,22.563-0.7247,39.6145-11.2516c12.5314-7.7364,24.2882-14.0536,33.6322-16.1704"/>
</g>
<g>
	
		<linearGradient id="SVGID_24_" gradientUnits="userSpaceOnUse" x1="-328.2256" y1="-1312.3843" x2="-398.853" y2="-1324.8379" gradientTransform="matrix(-0.809 -0.5878 -0.5878 0.809 -951.7484 1200.1815)">
		<stop  offset="0" style="stop-color:#FABBC2"/>
		<stop  offset="0.4822" style="stop-color:#FFA1AF"/>
		<stop  offset="0.6738" style="stop-color:#FD9BA8"/>
		<stop  offset="0.9583" style="stop-color:#F88994"/>
		<stop  offset="1" style="stop-color:#F78690"/>
	</linearGradient>
	<path class="st23" d="M160.2301,340.4356c-13.7238-9.9765-31.7945-5.3326-53.6461,1.4695
		c-12.4604,3.8785-21.8091,7.2214-29.6416,6.4297c1.2023,4.0417,3.486,7.4357,7.4481,10.3143
		c11.3591,8.2528,22.4759,2.1089,40.7123-6.1979c13.4023-6.1048,25.858-10.8986,35.3937-11.8276"/>
</g>
<g>
	
		<linearGradient id="SVGID_25_" gradientUnits="userSpaceOnUse" x1="-211.5732" y1="-1304.735" x2="-282.2042" y2="-1317.1891" gradientTransform="matrix(-0.729 -0.6845 -0.6845 0.729 -977.7855 1122.283)">
		<stop  offset="0" style="stop-color:#FABBC2"/>
		<stop  offset="0.4822" style="stop-color:#FFA1AF"/>
		<stop  offset="0.6738" style="stop-color:#FD9BA8"/>
		<stop  offset="0.9583" style="stop-color:#F88994"/>
		<stop  offset="1" style="stop-color:#F78690"/>
	</linearGradient>
	<path class="st24" d="M142.9397,334.387c-12.3652-11.6179-30.8754-9.2755-53.4073-5.2657
		c-12.8483,2.2862-22.5422,4.4311-30.2137,2.664c0.6863,4.1605,2.5266,7.8139,6.0966,11.1664
		c10.2351,9.6115,22.0344,4.9092,41.1681-1.0464c14.0617-4.3769,27.0201-7.5718,36.597-7.2983"/>
</g>
<g>
	
		<linearGradient id="SVGID_26_" gradientUnits="userSpaceOnUse" x1="-96.7435" y1="-1282.6062" x2="-167.3729" y2="-1295.0601" gradientTransform="matrix(-0.6374 -0.7705 -0.7705 0.6374 -993.7878 1041.7955)">
		<stop  offset="0" style="stop-color:#FABBC2"/>
		<stop  offset="0.4822" style="stop-color:#FFA1AF"/>
		<stop  offset="0.6738" style="stop-color:#FD9BA8"/>
		<stop  offset="0.9583" style="stop-color:#F88994"/>
		<stop  offset="1" style="stop-color:#F78690"/>
	</linearGradient>
	<path class="st25" d="M126.5438,326.2189c-10.8116-13.0761-29.4694-13.0721-52.3262-11.918
		c-13.0335,0.6579-22.9198,1.5709-30.3093-1.1438c0.1594,4.2137,1.5273,8.069,4.649,11.8425
		c8.9498,10.8185,21.2453,7.6322,40.9746,4.1216c14.4994-2.58,27.756-4.1256,37.2232-2.654"/>
</g>
<g>
	
		<linearGradient id="SVGID_27_" gradientUnits="userSpaceOnUse" x1="14.3838" y1="-1246.2244" x2="-56.2465" y2="-1258.6785" gradientTransform="matrix(-0.5358 -0.8443 -0.8443 0.5358 -999.6074 959.9064)">
		<stop  offset="0" style="stop-color:#FABBC2"/>
		<stop  offset="0.4822" style="stop-color:#FFA1AF"/>
		<stop  offset="0.6738" style="stop-color:#FD9BA8"/>
		<stop  offset="0.9583" style="stop-color:#F88994"/>
		<stop  offset="1" style="stop-color:#F78690"/>
	</linearGradient>
	<path class="st26" d="M111.3009,316.0603c-9.0875-14.328-27.5987-16.6625-50.4199-18.3822
		c-13.0132-0.9808-22.936-1.3141-29.927-4.9335c-0.37,4.2005,0.504,8.1968,3.1281,12.3318
		c7.5233,11.8549,20.1212,10.2347,40.1349,9.2246c14.7084-0.7424,28.0542-0.6143,37.2623,2.0323"/>
</g>
<g>
	
		<linearGradient id="SVGID_28_" gradientUnits="userSpaceOnUse" x1="120.0032" y1="-1196.1436" x2="49.3728" y2="-1208.5977" gradientTransform="matrix(-0.4258 -0.9048 -0.9048 0.4258 -995.1126 877.9018)">
		<stop  offset="0" style="stop-color:#B3E3BC"/>
		<stop  offset="0.4822" style="stop-color:#A6D3AF"/>
		<stop  offset="0.6585" style="stop-color:#9FD0A9"/>
		<stop  offset="0.9202" style="stop-color:#8BC997"/>
		<stop  offset="1" style="stop-color:#83C690"/>
	</linearGradient>
	<path class="st27" d="M97.4514,304.0714c-7.2201-15.354-25.2927-19.9902-47.7184-24.5565
		c-12.7876-2.6041-22.5904-4.1784-29.0727-8.6455c-0.8935,4.121-0.5273,8.1953,1.5579,12.6266
		c5.9782,12.7043,18.6798,12.6759,38.6623,14.1821c14.6855,1.1069,27.91,2.9067,36.7138,6.6864"/>
</g>
<g>
	
		<linearGradient id="SVGID_29_" gradientUnits="userSpaceOnUse" x1="218.6783" y1="-1133.1425" x2="148.0541" y2="-1145.5955" gradientTransform="matrix(-0.309 -0.9511 -0.9511 0.309 -980.3275 797.1536)">
		<stop  offset="0" style="stop-color:#B3E3BC"/>
		<stop  offset="0.4822" style="stop-color:#A6D3AF"/>
		<stop  offset="0.6585" style="stop-color:#9FD0A9"/>
		<stop  offset="0.9202" style="stop-color:#8BC997"/>
		<stop  offset="1" style="stop-color:#83C690"/>
	</linearGradient>
	<path class="st28" d="M85.2137,290.4412c-5.2388-16.1378-22.5878-23.0025-44.2644-30.3436
		c-12.3604-4.1863-21.8886-6.9768-27.7598-12.2211c-1.4029,3.9765-1.5503,8.0646-0.037,12.7223
		c4.3388,13.3534,16.9438,14.9171,36.58,18.9159c14.431,2.9388,27.3256,6.3818,35.5862,11.2352"/>
</g>
<g>
	
		<linearGradient id="SVGID_30_" gradientUnits="userSpaceOnUse" x1="308.5282" y1="-1058.4369" x2="237.9006" y2="-1070.8905" gradientTransform="matrix(-0.1874 -0.9823 -0.9823 0.1874 -955.606 718.8538)">
		<stop  offset="0" style="stop-color:#FABBC2"/>
		<stop  offset="0.4822" style="stop-color:#FFA1AF"/>
		<stop  offset="0.6738" style="stop-color:#FD9BA8"/>
		<stop  offset="0.9583" style="stop-color:#F88994"/>
		<stop  offset="1" style="stop-color:#F78690"/>
	</linearGradient>
	<path class="st29" d="M74.7808,275.3847c-3.1749-16.6672-19.5267-25.6521-40.1123-35.6521
		c-11.7383-5.7024-20.8416-9.6651-26.0092-15.604c-1.8903,3.7693-2.5489,7.8067-1.6312,12.6173
		c2.6309,13.7919,14.9406,16.9231,33.9207,23.3515c13.9488,4.7243,26.3103,9.7563,33.8975,15.6067"/>
</g>
<g>
	
		<linearGradient id="SVGID_31_" gradientUnits="userSpaceOnUse" x1="388.4011" y1="-973.0678" x2="317.7708" y2="-985.5218" gradientTransform="matrix(-0.0628 -0.998 -0.998 0.0628 -921.2697 644.301)">
		<stop  offset="0" style="stop-color:#FABBC2"/>
		<stop  offset="0.4822" style="stop-color:#FFA1AF"/>
		<stop  offset="0.6738" style="stop-color:#FD9BA8"/>
		<stop  offset="0.9583" style="stop-color:#F88994"/>
		<stop  offset="1" style="stop-color:#F78690"/>
	</linearGradient>
	<path class="st30" d="M66.3173,259.1393c-1.0609-16.9337-16.1577-27.8972-35.3276-40.3984
		c-10.931-7.1287-19.4659-12.2011-23.8485-18.7408c-2.3478,3.5027-3.5072,7.4257-3.1997,12.3134
		c0.8816,14.0129,12.7018,18.6622,30.7266,27.4187c13.2467,6.4353,24.88,12.9769,31.6741,19.7321"/>
</g>
<g>
	
		<linearGradient id="SVGID_32_" gradientUnits="userSpaceOnUse" x1="456.9442" y1="-878.2845" x2="386.3148" y2="-890.7385" gradientTransform="matrix(0.0628 -0.998 -0.998 -0.0628 -877.8336 574.645)">
		<stop  offset="0" style="stop-color:#FABBC2"/>
		<stop  offset="0.4822" style="stop-color:#FFA1AF"/>
		<stop  offset="0.6738" style="stop-color:#FD9BA8"/>
		<stop  offset="0.9583" style="stop-color:#F88994"/>
		<stop  offset="1" style="stop-color:#F78690"/>
	</linearGradient>
	<path class="st31" d="M59.9566,241.9613c1.0698-16.9331-12.5338-29.7023-29.9858-44.5076
		c-9.9513-8.4425-17.7832-14.5446-21.3116-21.582c-2.7683,3.1808-4.4102,6.9276-4.7177,11.8153
		c-0.8816,14.0129,10.2626,20.107,27.0478,31.0536c12.3357,8.0448,23.0574,15.9929,28.9513,23.5464"/>
</g>
<g>
	
		<linearGradient id="SVGID_33_" gradientUnits="userSpaceOnUse" x1="513.0146" y1="-775.6105" x2="442.3883" y2="-788.064" gradientTransform="matrix(0.1874 -0.9823 -0.9823 -0.1874 -825.9848 510.9721)">
		<stop  offset="0" style="stop-color:#B3E3BC"/>
		<stop  offset="0.4822" style="stop-color:#A6D3AF"/>
		<stop  offset="0.6585" style="stop-color:#9FD0A9"/>
		<stop  offset="0.9202" style="stop-color:#8BC997"/>
		<stop  offset="1" style="stop-color:#83C690"/>
	</linearGradient>
	<path class="st32" d="M55.799,224.1215c3.1837-16.6655-8.7123-31.039-24.171-47.9148c-8.8148-9.6232-15.82-16.6587-18.4386-24.0828
		c-3.1451,2.8088-5.2437,6.3202-6.1614,11.1308c-2.6309,13.7919,7.6616,21.2347,22.9425,34.1987
		c11.2302,9.5274,20.8712,18.7566,25.7719,26.9893"/>
</g>
<g>
	
		<linearGradient id="SVGID_34_" gradientUnits="userSpaceOnUse" x1="555.7274" y1="-666.7838" x2="485.1006" y2="-679.2371" gradientTransform="matrix(0.309 -0.9511 -0.9511 -0.309 -766.574 454.2696)">
		<stop  offset="0" style="stop-color:#B3E3BC"/>
		<stop  offset="0.4822" style="stop-color:#A6D3AF"/>
		<stop  offset="0.6585" style="stop-color:#9FD0A9"/>
		<stop  offset="0.9202" style="stop-color:#8BC997"/>
		<stop  offset="1" style="stop-color:#83C690"/>
	</linearGradient>
	<path class="st33" d="M53.9101,205.9013c5.2473-16.1351-4.7534-31.8862-17.9751-50.5664
		c-7.5391-10.6521-13.6074-18.5101-15.2748-26.2039c-3.4723,2.3924-5.9945,5.6131-7.5079,10.2708
		c-4.3388,13.3534,4.9398,22.0275,18.4753,36.8045c9.9475,10.8598,18.3558,21.2246,22.186,30.0065"/>
</g>
<g>
	
		<linearGradient id="SVGID_35_" gradientUnits="userSpaceOnUse" x1="584.6437" y1="-553.4771" x2="514.016" y2="-565.9306" gradientTransform="matrix(0.4258 -0.9048 -0.9048 -0.4258 -700.5836 405.5135)">
		<stop  offset="0" style="stop-color:#FABBC2"/>
		<stop  offset="0.4822" style="stop-color:#FFA1AF"/>
		<stop  offset="0.6738" style="stop-color:#FD9BA8"/>
		<stop  offset="0.9583" style="stop-color:#F88994"/>
		<stop  offset="1" style="stop-color:#F78690"/>
	</linearGradient>
	<path class="st34" d="M54.3197,187.588c7.2282-15.3502-0.7195-32.2306-11.4957-52.4206
		c-6.1446-11.513-11.1801-20.0696-11.8701-27.9117c-3.7448,1.9384-6.6507,4.8176-8.7359,9.2488
		c-5.9782,12.7043,2.14,22.473,13.7168,38.8298c8.508,12.021,15.5509,23.3578,18.2502,32.5505"/>
</g>
<g>
	
		<linearGradient id="SVGID_36_" gradientUnits="userSpaceOnUse" x1="598.9937" y1="-437.4718" x2="528.3627" y2="-449.9261" gradientTransform="matrix(0.5358 -0.8443 -0.8443 -0.5358 -628.9644 365.3582)">
		<stop  offset="0" style="stop-color:#FABBC2"/>
		<stop  offset="0.4822" style="stop-color:#FFA1AF"/>
		<stop  offset="0.6738" style="stop-color:#FD9BA8"/>
		<stop  offset="0.9583" style="stop-color:#F88994"/>
		<stop  offset="1" style="stop-color:#F78690"/>
	</linearGradient>
	<path class="st35" d="M57.0214,169.4705c9.0951-14.3232,3.3257-32.0666-4.835-53.448
		c-4.6532-12.1923-8.5766-21.3126-8.2783-29.1794c-3.9582,1.4537-7.2021,3.946-9.8262,8.081
		c-7.5233,11.8548-0.6934,22.564,8.742,40.2428c6.9343,12.9925,12.5007,25.1227,14.0267,34.5812"/>
</g>
<g>
	
		<linearGradient id="SVGID_37_" gradientUnits="userSpaceOnUse" x1="598.7025" y1="-320.519" x2="528.0722" y2="-332.973" gradientTransform="matrix(0.6374 -0.7705 -0.7705 -0.6374 -552.8661 334.526)">
		<stop  offset="0" style="stop-color:#FABBC2"/>
		<stop  offset="0.4822" style="stop-color:#FFA1AF"/>
		<stop  offset="0.6738" style="stop-color:#FD9BA8"/>
		<stop  offset="0.9583" style="stop-color:#F88994"/>
		<stop  offset="1" style="stop-color:#F78690"/>
	</linearGradient>
	<path class="st36" d="M61.9725,151.8344c10.8186-13.0703,7.3185-31.3969,1.9019-53.6326
		c-3.0884-12.6794-5.8378-22.2195-4.5559-29.9868c-4.1092,0.9462-7.6399,3.0123-10.7616,6.7857
		c-8.9498,10.8185-3.516,22.2991,3.6293,41.0212c5.2512,13.7591,9.2535,26.4913,9.5819,36.0665"/>
</g>
<g>
	
		<linearGradient id="SVGID_38_" gradientUnits="userSpaceOnUse" x1="583.8108" y1="-204.4798" x2="513.1846" y2="-216.933" gradientTransform="matrix(0.729 -0.6845 -0.6845 -0.729 -473.5287 313.5108)">
		<stop  offset="0" style="stop-color:#FABBC2"/>
		<stop  offset="0.4822" style="stop-color:#FFA1AF"/>
		<stop  offset="0.6738" style="stop-color:#FD9BA8"/>
		<stop  offset="0.9583" style="stop-color:#F88994"/>
		<stop  offset="1" style="stop-color:#F78690"/>
	</linearGradient>
	<path class="st37" d="M69.0949,134.958c12.3714-11.6114,11.1959-30.2321,8.6088-52.9713
		c-1.4749-12.9665-3.0069-22.776-0.7616-30.3214c-4.1954,0.4237-7.9572,2.031-11.5272,5.3834
		c-10.2351,9.6114-6.2831,21.6826-1.5406,41.1526c3.4853,14.3088,5.8603,27.4422,4.986,36.9831"/>
</g>
<g>
	
		<linearGradient id="SVGID_39_" gradientUnits="userSpaceOnUse" x1="554.3932" y1="-91.3301" x2="483.7639" y2="-103.784" gradientTransform="matrix(0.809 -0.5878 -0.5878 -0.809 -392.1291 302.5334)">
		<stop  offset="0" style="stop-color:#FABBC2"/>
		<stop  offset="0.4822" style="stop-color:#FFA1AF"/>
		<stop  offset="0.6738" style="stop-color:#FD9BA8"/>
		<stop  offset="0.9583" style="stop-color:#F88994"/>
		<stop  offset="1" style="stop-color:#F78690"/>
	</linearGradient>
	<path class="st38" d="M78.2763,119.1073c13.7291-9.9693,14.8967-28.5905,15.18-51.4746
		c0.1618-13.0491-0.1286-22.9732,3.0447-30.1777c-4.2154-0.1055-8.149,1.0177-12.111,3.8962
		c-11.3591,8.2528-8.9511,20.7242-6.6863,40.635c1.6645,14.6328,2.3746,27.9603,0.3115,37.3164"/>
</g>
<g>
	
		<linearGradient id="SVGID_40_" gradientUnits="userSpaceOnUse" x1="511.0604" y1="17.2949" x2="440.4315" y2="4.8411" gradientTransform="matrix(0.8763 -0.4818 -0.4818 -0.8763 -310.0128 301.8796)">
		<stop  offset="0" style="stop-color:#FABBC2"/>
		<stop  offset="0.4822" style="stop-color:#FFA1AF"/>
		<stop  offset="0.6738" style="stop-color:#FD9BA8"/>
		<stop  offset="0.9583" style="stop-color:#F88994"/>
		<stop  offset="1" style="stop-color:#F78690"/>
	</linearGradient>
	<path class="st39" d="M89.372,104.5323c14.8704-8.1699,18.3626-26.498,21.5118-49.1662c1.796-12.9259,2.7517-22.8082,6.803-29.5581
		c-4.169-0.633-8.2123-0.0117-12.5039,2.3476c-12.3039,6.7641-11.478,19.4389-11.7265,39.4765
		c-0.1826,14.726-1.1485,28.0374-4.368,37.0612"/>
</g>
<g>
	
		<linearGradient id="SVGID_41_" gradientUnits="userSpaceOnUse" x1="454.5228" y1="119.6705" x2="383.897" y2="107.2172" gradientTransform="matrix(0.9298 -0.3681 -0.3681 -0.9298 -228.5231 311.5425)">
		<stop  offset="0" style="stop-color:#FABBC2"/>
		<stop  offset="0.4822" style="stop-color:#FFA1AF"/>
		<stop  offset="0.6738" style="stop-color:#FD9BA8"/>
		<stop  offset="0.9583" style="stop-color:#F88994"/>
		<stop  offset="1" style="stop-color:#F78690"/>
	</linearGradient>
	<path class="st40" d="M102.2069,91.4629c15.7771-6.2418,21.5388-23.9876,27.5043-46.0823
		c3.4019-12.5989,5.5886-22.2835,10.4539-28.4724c-4.0567-1.1505-8.146-1.0409-12.6995,0.7619
		c-13.0546,5.1687-13.8238,17.847-16.5817,37.6955c-2.0269,14.587-4.6534,27.6724-8.9785,36.2215"/>
</g>
<g>
	
		<linearGradient id="SVGID_42_" gradientUnits="userSpaceOnUse" x1="385.5412" y1="214.0929" x2="314.9143" y2="201.6395" gradientTransform="matrix(0.9686 -0.2487 -0.2487 -0.9686 -148.8223 331.3148)">
		<stop  offset="0" style="stop-color:#FABBC2"/>
		<stop  offset="0.4822" style="stop-color:#FFA1AF"/>
		<stop  offset="0.6738" style="stop-color:#FD9BA8"/>
		<stop  offset="0.9583" style="stop-color:#F88994"/>
		<stop  offset="1" style="stop-color:#F78690"/>
	</linearGradient>
	<path class="st41" d="M116.5786,80.1052c16.435-4.2151,24.3755-21.0989,33.0631-42.2717
		c4.9541-12.0732,8.3374-21.4073,13.94-26.9377c-3.8806-1.6499-7.9513-2.0537-12.6948-0.8357
		c-13.5995,3.4917-15.9516,15.9737-21.1755,35.3201c-3.8391,14.2179-8.085,26.871-13.4475,34.8105"/>
</g>
<g>
	
		<linearGradient id="SVGID_43_" gradientUnits="userSpaceOnUse" x1="305.3151" y1="299.1448" x2="234.687" y2="286.6911" gradientTransform="matrix(0.9921 -0.1253 -0.1253 -0.9921 -72.2797 360.9098)">
		<stop  offset="0" style="stop-color:#FABBC2"/>
		<stop  offset="0.4822" style="stop-color:#FFA1AF"/>
		<stop  offset="0.6738" style="stop-color:#FD9BA8"/>
		<stop  offset="0.9583" style="stop-color:#F88994"/>
		<stop  offset="1" style="stop-color:#F78690"/>
	</linearGradient>
	<path class="st42" d="M132.2605,70.6383c16.8336-2.1221,26.8276-17.8775,38.1004-37.7945
		c6.4283-11.357,10.9547-20.1936,17.2063-24.9781c-3.6432-2.1232-7.6313-3.034-12.49-2.4202
		c-13.9299,1.7598-17.8279,13.8485-25.4353,32.3876c-5.5908,13.6247-11.3891,25.6458-17.7044,32.8506"/>
</g>
<g>
	<path d="M202.4121,66.0602l-2.3394-2.3389v6.4404h-0.8394v-6.4404l-2.3389,2.3389l-0.5996-0.5996l3.3584-3.3584l3.3584,3.3584
		L202.4121,66.0602z"/>
	<path d="M175.7422,82.6022v0.9595h-5.5171v-7.7959h5.4692v0.9355h-4.4858v2.4707h3.8618v0.9478h-3.8618v2.4824H175.7422z"/>
	<path d="M180.543,83.5616l-0.0835-1.0312c-0.3359,0.6836-1.0317,1.1274-1.9312,1.1274c-1.1514,0-2.063-0.7197-2.063-1.8232
		c0-0.8633,0.5996-1.4873,1.5112-1.583l2.063-0.2402c0.2397-0.0239,0.3838-0.1436,0.3838-0.3354v-0.0962
		c0-0.7676-0.5757-1.2949-1.3672-1.2949s-1.3672,0.5513-1.3911,1.415l-1.0557-0.144c0.1201-1.271,1.1514-2.1348,2.4707-2.1348
		c1.3433,0,2.3027,0.8877,2.3027,2.1348v2.8066l0.0479,1.1992H180.543z M180.4233,81.1149v-0.4077
		c-0.0361,0.0361-0.2041,0.0718-0.4077,0.0962l-1.751,0.1919c-0.5278,0.0718-0.8159,0.3599-0.8159,0.7915
		c0,0.5273,0.5039,0.9111,1.1753,0.9111C179.6797,82.6979,180.4233,82.0265,180.4233,81.1149z"/>
	<path d="M185.5596,83.7057c-1.751,0-2.9746-1.3193-2.9746-3.1426c0-1.8228,1.2598-3.1421,2.9507-3.1421
		c1.3193,0,2.4468,0.8877,2.6387,2.1108l-1.0317,0.3599c-0.0957-0.8877-0.7676-1.5474-1.6309-1.5474
		c-1.1035,0-1.9189,0.9355-1.9189,2.207c0,1.271,0.8154,2.2065,1.9668,2.2065c0.8633,0,1.6069-0.6836,1.6792-1.5952l1.0552,0.3359
		C188.0542,82.7941,186.9028,83.7057,185.5596,83.7057z"/>
	<path d="M194.6543,79.9156v3.646h-0.9595v-3.5981c0-0.9111-0.6001-1.583-1.4634-1.583c-1.1035,0-1.8472,0.8154-1.8711,1.9189
		v3.2622h-0.9595v-8.1558h0.9595v3.0586c0.3237-0.6475,1.0913-1.0435,1.9668-1.0435
		C193.6709,77.421,194.6543,78.4762,194.6543,79.9156z"/>
	<path d="M199.1924,81.4986c0.0483,0.7676,0.6958,1.3076,1.5596,1.3076c0.7432,0,1.1514-0.4199,1.1514-0.8999
		c0-0.3838-0.2041-0.7192-0.7793-0.8516l-0.9961-0.2275c-0.9595-0.2158-1.6787-0.7915-1.6787-1.6553
		c0-0.9712,0.9712-1.751,2.1104-1.751c1.1514,0,2.0869,0.5996,2.2314,1.6313l-1.0078,0.2637
		c-0.0234-0.5757-0.5391-1.0195-1.2476-1.0195c-0.6353,0-1.0552,0.3838-1.0552,0.8276c0,0.3838,0.252,0.6597,0.8755,0.8154
		l0.9116,0.228c0.96,0.2397,1.667,0.7314,1.667,1.6909c0,1.0195-0.8877,1.8472-2.231,1.8472c-1.2954,0-2.3984-0.6719-2.5425-1.9189
		L199.1924,81.4986z"/>
	<path d="M209.4375,79.9156v3.646h-0.959v-3.5981c0-0.9111-0.5996-1.583-1.4639-1.583c-1.1025,0-1.8467,0.8154-1.8701,1.9189v3.2622
		h-0.96v-8.1558h0.96v3.0586c0.3232-0.6475,1.0908-1.0435,1.9668-1.0435C208.4541,77.421,209.4375,78.4762,209.4375,79.9156z"/>
	<path d="M214.6709,83.5616l-0.084-1.0312c-0.3359,0.6836-1.0312,1.1274-1.9316,1.1274c-1.1504,0-2.0625-0.7197-2.0625-1.8232
		c0-0.8633,0.5996-1.4873,1.5117-1.583l2.0625-0.2402c0.2402-0.0239,0.3838-0.1436,0.3838-0.3354v-0.0962
		c0-0.7676-0.5762-1.2949-1.3672-1.2949c-0.792,0-1.3672,0.5513-1.3916,1.415l-1.0547-0.144
		c0.1191-1.271,1.1504-2.1348,2.4697-2.1348c1.3438,0,2.3027,0.8877,2.3027,2.1348v2.8066l0.0488,1.1992H214.6709z
		 M214.5508,81.1149v-0.4077c-0.0361,0.0361-0.2041,0.0718-0.4082,0.0962l-1.751,0.1919c-0.5273,0.0718-0.8154,0.3599-0.8154,0.7915
		c0,0.5273,0.5039,0.9111,1.1758,0.9111C213.8076,82.6979,214.5508,82.0265,214.5508,81.1149z"/>
	<path d="M222.9014,80.5153c0,1.8232-1.2227,3.1426-2.8545,3.1426c-0.875,0-1.6191-0.4438-2.0869-1.1636v3.4663h-0.959v-8.3955
		h0.8154l0.084,1.0674c0.4561-0.7437,1.2119-1.2114,2.123-1.2114C221.6787,77.421,222.9014,78.7403,222.9014,80.5153z
		 M221.9062,80.5392c0-1.271-0.8037-2.1948-1.9551-2.1948s-2.0146,0.9238-2.0146,2.1948c0,1.2715,0.8398,2.1831,1.9912,2.1831
		S221.9062,81.8107,221.9062,80.5392z"/>
	<path d="M226.7432,83.7057c-1.6797,0-2.9268-1.3193-2.9268-3.1426c0-1.8228,1.2236-3.1421,2.8789-3.1421
		c1.6309,0,2.7705,1.2954,2.7705,3.0942c0,0.1318,0,0.2881-0.0127,0.4199h-4.5811c0.0723,1.0791,0.8154,1.8467,1.8232,1.8467
		c0.8633,0,1.5352-0.5156,1.6309-1.2832l1.0312,0.3838C229.1182,82.9381,227.9902,83.7057,226.7432,83.7057z M228.4824,80.0113
		c-0.0479-0.9834-0.8398-1.6909-1.7998-1.6909c-0.959,0-1.751,0.7075-1.8223,1.6909H228.4824z"/>
	<path d="M166.9854,93.963c0-1.8228,1.2476-3.1421,2.9985-3.1421s2.9985,1.3193,2.9985,3.1421c0,1.8232-1.2476,3.1426-2.9985,3.1426
		S166.9854,95.7862,166.9854,93.963z M171.9868,93.963c0-1.2593-0.8516-2.2188-2.0029-2.2188s-2.0029,0.9595-2.0029,2.2188
		c0,1.2476,0.8516,2.1948,2.0029,2.1948S171.9868,95.2106,171.9868,93.963z"/>
	<path d="M179.4863,93.3155v3.646h-0.9595v-3.5981c0-0.9116-0.5996-1.583-1.4629-1.583c-1.1035,0-1.8472,0.8154-1.8711,1.9189
		v3.2622h-0.9595V90.965h0.8154l0.084,1.0312c0.2881-0.7314,1.1035-1.1753,2.0269-1.1753
		C178.5029,90.8209,179.4863,91.8766,179.4863,93.3155z"/>
	<path d="M182.8491,91.0006h0.3838c0.4077,0,0.6479-0.2998,0.6479-0.7793v-0.8154h0.9111v1.5591h1.3433v0.9355h-1.3433v3.478
		c0,0.4795,0.3359,0.7437,0.8159,0.7437c0.2876,0,0.4316-0.0239,0.6235-0.0723l0.0239,0.9116
		c-0.2397,0.0957-0.48,0.144-0.8638,0.144c-0.9111,0-1.5591-0.6235-1.5591-1.5835v-3.6099h-0.9834V91.0006z"/>
	<path d="M192.6621,93.3155v3.646h-0.9595v-3.5981c0-0.9116-0.6001-1.583-1.4634-1.583c-1.1035,0-1.8472,0.8154-1.8711,1.9189
		v3.2622h-0.9595v-8.1553h0.9595v3.0581c0.3237-0.6475,1.0913-1.0435,1.9668-1.0435
		C191.6787,90.8209,192.6621,91.8766,192.6621,93.3155z"/>
	<path d="M196.7915,97.1056c-1.6792,0-2.9263-1.3193-2.9263-3.1426c0-1.8228,1.2231-3.1421,2.8779-3.1421
		c1.6313,0,2.7705,1.2954,2.7705,3.0942c0,0.1318,0,0.2881-0.0117,0.4199h-4.5815c0.0718,1.0791,0.8154,1.8467,1.8228,1.8467
		c0.8638,0,1.5352-0.5156,1.6313-1.2832l1.0312,0.3838C199.166,96.338,198.0386,97.1056,196.7915,97.1056z M198.5303,93.4117
		c-0.0479-0.9839-0.8394-1.6914-1.7988-1.6914s-1.751,0.7075-1.8232,1.6914H198.5303z"/>
	<path d="M203.7646,90.965l0.5635,4.6772h0.0479l1.4277-4.6772h1.0547l1.3672,4.7012h0.0479l0.6484-4.7012h0.9834l-1.0078,5.9966
		h-1.1992l-1.3672-4.6055h-0.0479l-1.4395,4.6055h-1.2227l-0.8877-5.9966H203.7646z"/>
	<path d="M216.3613,93.3155v3.646h-0.959v-3.5981c0-0.9116-0.5996-1.583-1.4639-1.583c-1.1025,0-1.8467,0.8154-1.8701,1.9189v3.2622
		h-0.96v-8.1553h0.96v3.0581c0.3232-0.6475,1.0908-1.0435,1.9668-1.0435C215.3779,90.8209,216.3613,91.8766,216.3613,93.3155z"/>
	<path d="M220.4912,97.1056c-1.6797,0-2.9268-1.3193-2.9268-3.1426c0-1.8228,1.2236-3.1421,2.8789-3.1421
		c1.6309,0,2.7705,1.2954,2.7705,3.0942c0,0.1318,0,0.2881-0.0127,0.4199h-4.5811c0.0723,1.0791,0.8154,1.8467,1.8232,1.8467
		c0.8633,0,1.5352-0.5156,1.6309-1.2832l1.0312,0.3838C222.8662,96.338,221.7383,97.1056,220.4912,97.1056z M222.2305,93.4117
		c-0.0479-0.9839-0.8398-1.6914-1.7998-1.6914c-0.959,0-1.751,0.7075-1.8223,1.6914H222.2305z"/>
	<path d="M227.0557,97.1056c-1.6797,0-2.9268-1.3193-2.9268-3.1426c0-1.8228,1.2236-3.1421,2.8789-3.1421
		c1.6309,0,2.7705,1.2954,2.7705,3.0942c0,0.1318,0,0.2881-0.0127,0.4199h-4.5811c0.0723,1.0791,0.8154,1.8467,1.8232,1.8467
		c0.8633,0,1.5352-0.5156,1.6309-1.2832l1.0312,0.3838C229.4307,96.338,228.3027,97.1056,227.0557,97.1056z M228.7949,93.4117
		c-0.0479-0.9839-0.8398-1.6914-1.7998-1.6914c-0.959,0-1.751,0.7075-1.8223,1.6914H228.7949z"/>
	<path d="M231.9883,88.8063v8.1553h-0.96v-8.1553H231.9883z"/>
	<path d="M165.1553,102.8302c0,0.4194-0.3237,0.7676-0.7437,0.7676s-0.7437-0.3481-0.7437-0.7676
		c0-0.4199,0.3237-0.7676,0.7437-0.7676S165.1553,102.4103,165.1553,102.8302z M163.9316,104.3653h0.9595v5.9966h-0.9595V104.3653z"
		/>
	<path d="M167.147,108.2989c0.0483,0.7676,0.6958,1.3076,1.5591,1.3076c0.7437,0,1.1514-0.4199,1.1514-0.8999
		c0-0.3838-0.2036-0.7192-0.7793-0.8516l-0.9956-0.2275c-0.9595-0.2158-1.6792-0.7915-1.6792-1.6553
		c0-0.9712,0.9717-1.751,2.1113-1.751c1.1514,0,2.0864,0.5996,2.2305,1.6309l-1.0073,0.2642
		c-0.0239-0.5757-0.5396-1.0195-1.2476-1.0195c-0.6353,0-1.0552,0.3838-1.0552,0.8276c0,0.3838,0.252,0.6597,0.8755,0.8154
		l0.9116,0.228c0.9595,0.2397,1.667,0.7314,1.667,1.6909c0,1.0195-0.8877,1.8472-2.231,1.8472
		c-1.2949,0-2.3984-0.6719-2.5425-1.9189L167.147,108.2989z"/>
	<path d="M178.2334,110.3619l-0.0835-1.0312c-0.3359,0.6836-1.0317,1.127-1.9312,1.127c-1.1514,0-2.063-0.7192-2.063-1.8228
		c0-0.8638,0.5996-1.4873,1.5112-1.583l2.063-0.2397c0.2397-0.0244,0.3838-0.144,0.3838-0.3359V106.38
		c0-0.7676-0.5757-1.2954-1.3672-1.2954s-1.3672,0.5518-1.3911,1.4155l-1.0557-0.144c0.1201-1.2715,1.1514-2.1348,2.4707-2.1348
		c1.3433,0,2.3027,0.8877,2.3027,2.1348v2.8066l0.0479,1.1992H178.2334z M178.1138,107.9152v-0.4077
		c-0.0361,0.0361-0.2041,0.0723-0.4077,0.0962l-1.751,0.1919c-0.5278,0.0718-0.8159,0.3594-0.8159,0.7915
		c0,0.5278,0.5039,0.9116,1.1753,0.9116C177.3701,109.4986,178.1138,108.8268,178.1138,107.9152z"/>
	<path d="M184.4268,103.9816v0.3838h1.439v0.9595h-1.439v5.0371h-0.9595v-5.0371h-0.9839v-0.9595h0.9839v-0.3838
		c0-1.0796,0.6714-1.8711,1.6069-1.8711c0.4795,0,0.6958,0.0962,1.0312,0.2876l-0.2397,0.96
		c-0.144-0.144-0.3359-0.2642-0.6714-0.2642C184.7144,103.0939,184.4268,103.4537,184.4268,103.9816z"/>
	<path d="M186.6357,107.3634c0-1.8228,1.2471-3.1421,2.998-3.1421s2.9985,1.3193,2.9985,3.1421
		c0,1.8232-1.2476,3.1426-2.9985,3.1426S186.6357,109.1866,186.6357,107.3634z M191.6367,107.3634
		c0-1.2593-0.8516-2.2188-2.0029-2.2188s-2.0029,0.9595-2.0029,2.2188c0,1.2476,0.8516,2.1948,2.0029,2.1948
		S191.6367,108.611,191.6367,107.3634z"/>
	<path d="M193.5957,107.3634c0-1.8228,1.2471-3.1421,2.998-3.1421s2.9985,1.3193,2.9985,3.1421
		c0,1.8232-1.2476,3.1426-2.9985,3.1426S193.5957,109.1866,193.5957,107.3634z M198.5967,107.3634
		c0-1.2593-0.8516-2.2188-2.0029-2.2188s-2.0029,0.9595-2.0029,2.2188c0,1.2476,0.8516,2.1948,2.0029,2.1948
		S198.5967,108.611,198.5967,107.3634z"/>
	<path d="M205.6885,110.3619l-0.1201-1.0674c-0.4561,0.7197-1.1992,1.1631-2.0869,1.1631c-1.7266,0-2.9746-1.3188-2.9746-3.1421
		c0-1.7749,1.248-3.0942,2.9268-3.0942c0.876,0,1.5947,0.396,2.0625,1.0674v-3.082h0.96v6.9561l0.0479,1.1992H205.6885z
		 M205.5205,107.3395c0-1.271-0.8643-2.2065-2.0391-2.2065c-1.1514,0-1.9785,0.9355-1.9785,2.2065
		c0,1.2476,0.8516,2.1831,2.0264,2.1831C204.6807,109.5226,205.5205,108.587,205.5205,107.3395z"/>
	<path d="M211.0898,108.2989c0.0479,0.7676,0.6963,1.3076,1.5596,1.3076c0.7432,0,1.1514-0.4199,1.1514-0.8999
		c0-0.3838-0.2041-0.7192-0.7803-0.8516l-0.9951-0.2275c-0.959-0.2158-1.6787-0.7915-1.6787-1.6553
		c0-0.9712,0.9717-1.751,2.1104-1.751c1.1514,0,2.0869,0.5996,2.2314,1.6309l-1.0078,0.2642
		c-0.0244-0.5757-0.54-1.0195-1.2471-1.0195c-0.6357,0-1.0557,0.3838-1.0557,0.8276c0,0.3838,0.252,0.6597,0.875,0.8154
		l0.9121,0.228c0.959,0.2397,1.667,0.7314,1.667,1.6909c0,1.0195-0.8877,1.8472-2.2305,1.8472c-1.2959,0-2.3994-0.6719-2.543-1.9189
		L211.0898,108.2989z"/>
	<path d="M215.5068,104.401h0.3838c0.4072,0,0.6475-0.2998,0.6475-0.7793v-0.8154h0.9111v1.5591h1.3438v0.9355h-1.3438v3.478
		c0,0.4795,0.3359,0.7437,0.8154,0.7437c0.2881,0,0.4316-0.0239,0.624-0.0723l0.0244,0.9116
		c-0.2402,0.0957-0.4805,0.144-0.8643,0.144c-0.9111,0-1.5586-0.6235-1.5586-1.5835v-3.6099h-0.9834V104.401z"/>
	<path d="M219.5869,107.3634c0-1.8228,1.248-3.1421,2.999-3.1421s2.998,1.3193,2.998,3.1421c0,1.8232-1.2471,3.1426-2.998,3.1426
		S219.5869,109.1866,219.5869,107.3634z M224.5889,107.3634c0-1.2593-0.8516-2.2188-2.0029-2.2188s-2.0029,0.9595-2.0029,2.2188
		c0,1.2476,0.8516,2.1948,2.0029,2.1948S224.5889,108.611,224.5889,107.3634z"/>
	<path d="M230.0723,104.4371l-0.0244,1.1514c-0.1914-0.144-0.4551-0.2397-0.8389-0.2397c-0.8154,0-1.3916,0.7437-1.415,1.751v3.2622
		h-0.96v-5.9966h0.792l0.1074,1.1753c0.252-0.7798,0.8281-1.2954,1.5713-1.2954
		C229.6406,104.2452,229.9287,104.317,230.0723,104.4371z"/>
	<path d="M231.4902,104.3653l1.7988,4.6055h0.0234l1.751-4.6055h1.1035l-2.7822,6.7642c-0.3721,0.9116-1.0791,1.6069-1.8945,1.751
		l-0.2402-0.9116c0.5762-0.1436,0.9111-0.4556,1.1035-0.8872l0.4316-0.9595l-2.4229-5.7568H231.4902z"/>
</g>
<g>
	<path d="M147.3657,281.507c0,1.1035,0.9116,1.8955,2.1587,1.8955c0.9839,0,1.7031-0.5518,1.7031-1.3672
		c0-0.5283-0.4556-1.0195-1.1274-1.1758l-1.4629-0.3359c-1.1992-0.2754-2.0151-1.0312-2.0151-2.0391
		c0-1.2949,1.0796-2.2061,2.6387-2.2061c1.4634,0,2.6387,0.8633,2.7827,2.0625l-1.0796,0.2881
		c-0.0479-0.8643-0.7915-1.4395-1.751-1.4395c-0.9116,0-1.5591,0.4795-1.5591,1.1992c0,0.624,0.5034,1.0312,1.271,1.1992
		l1.5112,0.3359c1.1035,0.2402,1.8472,1.0312,1.8472,2.0391c0,1.415-1.1274,2.3984-2.7827,2.3984
		c-1.7988,0-3.166-1.0791-3.2622-2.6143L147.3657,281.507z"/>
	<path d="M156.1729,284.3615c-1.6792,0-2.9263-1.3193-2.9263-3.1426c0-1.8223,1.2231-3.1416,2.8779-3.1416
		c1.6313,0,2.7705,1.2949,2.7705,3.0938c0,0.1318,0,0.2881-0.0117,0.4199h-4.5815c0.0718,1.0791,0.8154,1.8467,1.8228,1.8467
		c0.8638,0,1.5352-0.5156,1.6313-1.2832l1.0312,0.3838C158.5474,283.5939,157.4199,284.3615,156.1729,284.3615z M157.9116,280.6681
		c-0.0479-0.9844-0.8394-1.6914-1.7988-1.6914s-1.751,0.707-1.8232,1.6914H157.9116z"/>
	<path d="M161.1055,276.0626v8.1553h-0.9595v-8.1553H161.1055z"/>
	<path d="M165.3286,284.3615c-1.6792,0-2.9268-1.3193-2.9268-3.1426c0-1.8223,1.2236-3.1416,2.8789-3.1416
		c1.6309,0,2.77,1.2949,2.77,3.0938c0,0.1318,0,0.2881-0.0117,0.4199h-4.5815c0.0718,1.0791,0.8154,1.8467,1.8232,1.8467
		c0.8633,0,1.5352-0.5156,1.6309-1.2832l1.0312,0.3838C167.7031,283.5939,166.5757,284.3615,165.3286,284.3615z M167.0674,280.6681
		c-0.0479-0.9844-0.8394-1.6914-1.7988-1.6914s-1.751,0.707-1.8232,1.6914H167.0674z"/>
	<path d="M171.9404,284.3615c-1.751,0-2.9741-1.3193-2.9741-3.1426c0-1.8223,1.2593-3.1416,2.9502-3.1416
		c1.3193,0,2.4468,0.8877,2.6387,2.1104l-1.0317,0.3604c-0.0957-0.8877-0.7676-1.5479-1.6309-1.5479
		c-1.1035,0-1.9189,0.9355-1.9189,2.207s0.8154,2.207,1.9668,2.207c0.8638,0,1.6069-0.6836,1.6792-1.5947l1.0552,0.335
		C174.4351,283.4503,173.2837,284.3615,171.9404,284.3615z"/>
	<path d="M175.2061,278.257h0.3838c0.4077,0,0.6479-0.2998,0.6479-0.7793v-0.8154h0.9111v1.5586h1.3433v0.9355h-1.3433v3.4785
		c0,0.4795,0.3359,0.7432,0.8159,0.7432c0.2876,0,0.4316-0.0234,0.6235-0.0723l0.0239,0.9121
		c-0.2397,0.0957-0.48,0.1436-0.8638,0.1436c-0.9111,0-1.5591-0.623-1.5591-1.583v-3.6104h-0.9834V278.257z"/>
	<path d="M181.0132,276.6857c0,0.4199-0.3237,0.7676-0.7437,0.7676s-0.7437-0.3477-0.7437-0.7676s0.3237-0.7676,0.7437-0.7676
		S181.0132,276.2657,181.0132,276.6857z M179.7896,278.2208h0.9595v5.9971h-0.9595V278.2208z"/>
	<path d="M187.6104,280.5714v3.6465h-0.9595v-3.5986c0-0.9111-0.5996-1.583-1.4629-1.583c-1.1035,0-1.8472,0.8154-1.8711,1.9189
		v3.2627h-0.9595v-5.9971h0.8154l0.084,1.0312c0.2881-0.7314,1.1035-1.1748,2.0269-1.1748
		C186.627,278.0773,187.6104,279.1329,187.6104,280.5714z"/>
	<path d="M194.7266,278.2208v5.8525c0,1.6553-1.1753,2.8545-2.8066,2.8545c-1.5352,0-2.6865-0.9355-2.8784-2.2305l1.0073-0.2881
		c0.0723,0.8877,0.8159,1.5596,1.8711,1.5596c1.0796,0,1.8711-0.7441,1.8711-1.751v-1.0674
		c-0.4556,0.6475-1.1636,1.043-2.0151,1.043c-1.7271,0-2.9619-1.2715-2.9619-3.0938c0-1.7754,1.2349-3.0469,2.9141-3.0469
		c0.9116,0,1.6431,0.4199,2.1108,1.1152l0.0723-0.9473H194.7266z M193.791,281.1232c0-1.2715-0.8394-2.1582-2.0151-2.1582
		c-1.1514,0-1.9668,0.8867-1.9668,2.1582c0,1.2471,0.8398,2.1348,2.0151,2.1348
		C192.9756,283.2579,193.791,282.3702,193.791,281.1232z"/>
	<path d="M202.3584,284.2179l-0.083-1.0312c-0.3359,0.6836-1.0322,1.127-1.9312,1.127c-1.1514,0-2.063-0.7197-2.063-1.8232
		c0-0.8633,0.5996-1.4873,1.5112-1.583l2.063-0.2393c0.2393-0.0244,0.3838-0.1445,0.3838-0.3359v-0.0967
		c0-0.7676-0.5762-1.2949-1.3672-1.2949c-0.7915,0-1.3672,0.5518-1.3911,1.415l-1.0557-0.1436
		c0.1201-1.2715,1.1514-2.1348,2.4707-2.1348c1.3433,0,2.3022,0.8877,2.3022,2.1348v2.8066l0.0479,1.1992H202.3584z
		 M202.2393,281.7706v-0.4072c-0.0361,0.0361-0.2041,0.0723-0.4082,0.0957l-1.7505,0.1924
		c-0.5278,0.0713-0.8159,0.3594-0.8159,0.791c0,0.5283,0.5039,0.9121,1.1753,0.9121
		C201.4951,283.3546,202.2393,282.6827,202.2393,281.7706z"/>
	<path d="M209.7754,284.3615c-1.751,0-2.9746-1.3193-2.9746-3.1426c0-1.8223,1.2598-3.1416,2.9502-3.1416
		c1.3193,0,2.4473,0.8877,2.6387,2.1104l-1.0312,0.3604c-0.0957-0.8877-0.7676-1.5479-1.6309-1.5479
		c-1.1035,0-1.9189,0.9355-1.9189,2.207s0.8154,2.207,1.9668,2.207c0.8633,0,1.6074-0.6836,1.6787-1.5947l1.0557,0.335
		C212.2705,283.4503,211.1182,284.3615,209.7754,284.3615z"/>
	<path d="M217.3105,284.2179l-0.084-1.0312c-0.3359,0.6836-1.0312,1.127-1.9307,1.127c-1.1523,0-2.0635-0.7197-2.0635-1.8232
		c0-0.8633,0.5996-1.4873,1.5117-1.583l2.0625-0.2393c0.2402-0.0244,0.3838-0.1445,0.3838-0.3359v-0.0967
		c0-0.7676-0.5762-1.2949-1.3672-1.2949c-0.792,0-1.3672,0.5518-1.3916,1.415l-1.0557-0.1436
		c0.1201-1.2715,1.1523-2.1348,2.4707-2.1348c1.3438,0,2.3027,0.8877,2.3027,2.1348v2.8066l0.0488,1.1992H217.3105z
		 M217.1904,281.7706v-0.4072c-0.0361,0.0361-0.2041,0.0723-0.4082,0.0957l-1.751,0.1924c-0.5273,0.0713-0.8154,0.3594-0.8154,0.791
		c0,0.5283,0.5039,0.9121,1.1758,0.9121C216.4463,283.3546,217.1904,282.6827,217.1904,281.7706z"/>
	<path d="M219.1133,278.257h0.3838c0.4072,0,0.6475-0.2998,0.6475-0.7793v-0.8154h0.9111v1.5586h1.3438v0.9355h-1.3438v3.4785
		c0,0.4795,0.3359,0.7432,0.8154,0.7432c0.2881,0,0.4316-0.0234,0.624-0.0723l0.0234,0.9121
		c-0.2393,0.0957-0.4795,0.1436-0.8633,0.1436c-0.9111,0-1.5586-0.623-1.5586-1.583v-3.6104h-0.9834V278.257z"/>
	<path d="M226.1191,284.3615c-1.6787,0-2.9268-1.3193-2.9268-3.1426c0-1.8223,1.2236-3.1416,2.8789-3.1416
		c1.6309,0,2.7705,1.2949,2.7705,3.0938c0,0.1318,0,0.2881-0.0127,0.4199h-4.5811c0.0723,1.0791,0.8154,1.8467,1.8232,1.8467
		c0.8633,0,1.5352-0.5156,1.6309-1.2832l1.0312,0.3838C228.4941,283.5939,227.3662,284.3615,226.1191,284.3615z M227.8584,280.6681
		c-0.0479-0.9844-0.8398-1.6914-1.7998-1.6914c-0.959,0-1.751,0.707-1.8223,1.6914H227.8584z"/>
	<path d="M235.6689,278.2208v5.8525c0,1.6553-1.1758,2.8545-2.8066,2.8545c-1.5352,0-2.6865-0.9355-2.8779-2.2305l1.0068-0.2881
		c0.0723,0.8877,0.8154,1.5596,1.8711,1.5596c1.0791,0,1.8711-0.7441,1.8711-1.751v-1.0674
		c-0.4561,0.6475-1.1631,1.043-2.0146,1.043c-1.7275,0-2.9629-1.2715-2.9629-3.0938c0-1.7754,1.2354-3.0469,2.915-3.0469
		c0.9111,0,1.6426,0.4199,2.1104,1.1152l0.0723-0.9473H235.6689z M234.7334,281.1232c0-1.2715-0.8398-2.1582-2.0146-2.1582
		c-1.1514,0-1.9668,0.8867-1.9668,2.1582c0,1.2471,0.8389,2.1348,2.0146,2.1348
		C233.918,283.2579,234.7334,282.3702,234.7334,281.1232z"/>
	<path d="M236.8721,281.2189c0-1.8223,1.248-3.1416,2.999-3.1416s2.998,1.3193,2.998,3.1416c0,1.8232-1.2471,3.1426-2.998,3.1426
		S236.8721,283.0421,236.8721,281.2189z M241.874,281.2189c0-1.2588-0.8516-2.2188-2.0029-2.2188s-2.0029,0.96-2.0029,2.2188
		c0,1.248,0.8516,2.1953,2.0029,2.1953S241.874,282.4669,241.874,281.2189z"/>
	<path d="M247.3584,278.2931l-0.0244,1.1514c-0.1914-0.1445-0.4551-0.2402-0.8389-0.2402c-0.8154,0-1.3916,0.7441-1.416,1.751
		v3.2627h-0.959v-5.9971h0.792l0.1074,1.1758c0.252-0.7803,0.8271-1.2959,1.5713-1.2959
		C246.9268,278.1007,247.2148,278.173,247.3584,278.2931z"/>
	<path d="M248.7764,278.2208l1.7988,4.6055h0.0234l1.752-4.6055h1.1025l-2.7822,6.7646c-0.3721,0.9111-1.0791,1.6064-1.8945,1.751
		l-0.2402-0.9121c0.5762-0.1436,0.9111-0.4551,1.1035-0.8867l0.4316-0.96l-2.4229-5.7568H248.7764z"/>
	<path d="M142.3667,297.6173l-0.084-1.0312c-0.3359,0.6836-1.0317,1.1279-1.9312,1.1279c-1.1514,0-2.063-0.7197-2.063-1.8232
		c0-0.8633,0.5996-1.4873,1.5112-1.583l2.063-0.2402c0.2397-0.0244,0.3838-0.1436,0.3838-0.3359v-0.0957
		c0-0.7676-0.5757-1.2949-1.3672-1.2949s-1.3672,0.5508-1.3916,1.415l-1.0552-0.1445c0.1201-1.2705,1.1514-2.1348,2.4707-2.1348
		c1.3433,0,2.3027,0.8877,2.3027,2.1348v2.8066l0.0479,1.1992H142.3667z M142.2466,295.171v-0.4082
		c-0.0361,0.0361-0.2041,0.0723-0.4077,0.0967l-1.751,0.1914c-0.5278,0.0723-0.8159,0.3604-0.8159,0.792
		c0,0.5273,0.5039,0.9111,1.1758,0.9111C141.5029,296.754,142.2466,296.0822,142.2466,295.171z"/>
	<path d="M145.7036,289.462v8.1553h-0.9595v-8.1553H145.7036z"/>
	<path d="M148.2959,289.462v8.1553h-0.9595v-8.1553H148.2959z"/>
	<path d="M149.5923,294.6193c0-1.8232,1.2476-3.1426,2.9985-3.1426s2.9985,1.3193,2.9985,3.1426s-1.2476,3.1426-2.9985,3.1426
		S149.5923,296.4425,149.5923,294.6193z M154.5938,294.6193c0-1.2598-0.8516-2.2188-2.0029-2.2188s-2.0029,0.959-2.0029,2.2188
		c0,1.2471,0.8516,2.1943,2.0029,2.1943S154.5938,295.8663,154.5938,294.6193z"/>
	<path d="M157.4873,291.6212l0.564,4.6768h0.0479l1.4272-4.6768h1.0552l1.3677,4.7012h0.0479l0.6475-4.7012h0.9834l-1.0073,5.9961
		h-1.1992l-1.3672-4.6055h-0.0479l-1.4395,4.6055h-1.2231l-0.8877-5.9961H157.4873z"/>
	<path d="M165.4312,295.5548c0.0483,0.7676,0.6958,1.3076,1.5596,1.3076c0.7432,0,1.1514-0.4199,1.1514-0.9004
		c0-0.3838-0.2041-0.7188-0.7798-0.8516l-0.9956-0.2275c-0.9595-0.2158-1.6787-0.791-1.6787-1.6553
		c0-0.9707,0.9712-1.751,2.1104-1.751c1.1514,0,2.0869,0.5996,2.231,1.6318l-1.0073,0.2637
		c-0.0239-0.5762-0.5396-1.0195-1.2476-1.0195c-0.6353,0-1.0552,0.3838-1.0552,0.8271c0,0.3838,0.252,0.6602,0.8755,0.8154
		l0.9116,0.2285c0.9595,0.2393,1.667,0.7314,1.667,1.6904c0,1.0195-0.8877,1.8477-2.231,1.8477
		c-1.2954,0-2.3984-0.6719-2.5425-1.9189L165.4312,295.5548z"/>
	<path d="M172.248,291.6564h0.3838c0.4077,0,0.6479-0.2998,0.6479-0.7793v-0.8154h0.9111v1.5596h1.3433v0.9355h-1.3433v3.4775
		c0,0.4795,0.3359,0.7441,0.8159,0.7441c0.2876,0,0.4316-0.0244,0.6235-0.0723l0.0239,0.9111
		c-0.2397,0.0967-0.48,0.1445-0.8638,0.1445c-0.9111,0-1.5591-0.624-1.5591-1.583v-3.6104h-0.9834V291.6564z"/>
	<path d="M176.3276,294.6193c0-1.8232,1.2476-3.1426,2.9985-3.1426s2.9985,1.3193,2.9985,3.1426s-1.2476,3.1426-2.9985,3.1426
		S176.3276,296.4425,176.3276,294.6193z M181.3291,294.6193c0-1.2598-0.8516-2.2188-2.0029-2.2188s-2.0029,0.959-2.0029,2.2188
		c0,1.2471,0.8516,2.1943,2.0029,2.1943S181.3291,295.8663,181.3291,294.6193z"/>
	<path d="M186.623,295.5548c0.0483,0.7676,0.6958,1.3076,1.5591,1.3076c0.7437,0,1.1514-0.4199,1.1514-0.9004
		c0-0.3838-0.2036-0.7188-0.7793-0.8516l-0.9956-0.2275c-0.9595-0.2158-1.6792-0.791-1.6792-1.6553
		c0-0.9707,0.9717-1.751,2.1113-1.751c1.1514,0,2.0864,0.5996,2.2305,1.6318l-1.0073,0.2637
		c-0.0239-0.5762-0.5396-1.0195-1.2476-1.0195c-0.6353,0-1.0552,0.3838-1.0552,0.8271c0,0.3838,0.252,0.6602,0.8755,0.8154
		l0.9116,0.2285c0.9595,0.2393,1.667,0.7314,1.667,1.6904c0,1.0195-0.8877,1.8477-2.231,1.8477
		c-1.2949,0-2.3984-0.6719-2.5425-1.9189L186.623,295.5548z"/>
	<path d="M194.2061,297.7618c-1.6792,0-2.9263-1.3193-2.9263-3.1426s1.2231-3.1426,2.8779-3.1426
		c1.6313,0,2.7705,1.2959,2.7705,3.0947c0,0.1318,0,0.2881-0.0117,0.4199h-4.5815c0.0718,1.0791,0.8154,1.8467,1.8228,1.8467
		c0.8638,0,1.5352-0.5156,1.6313-1.2832l1.0312,0.3838C196.5806,296.9943,195.4531,297.7618,194.2061,297.7618z M195.9448,294.0675
		c-0.0479-0.9834-0.8394-1.6914-1.7988-1.6914s-1.751,0.708-1.8232,1.6914H195.9448z"/>
	<path d="M200.77,297.7618c-1.6792,0-2.9268-1.3193-2.9268-3.1426s1.2236-3.1426,2.8789-3.1426c1.6304,0,2.77,1.2959,2.77,3.0947
		c0,0.1318,0,0.2881-0.0117,0.4199h-4.5815c0.0718,1.0791,0.8154,1.8467,1.8232,1.8467c0.8628,0,1.5347-0.5156,1.6304-1.2832
		l1.0312,0.3838C203.1445,296.9943,202.0166,297.7618,200.77,297.7618z M202.5088,294.0675
		c-0.0479-0.9834-0.8398-1.6914-1.7988-1.6914c-0.9595,0-1.751,0.708-1.8232,1.6914H202.5088z"/>
	<path d="M206.5674,291.6564h0.3838c0.4072,0,0.6475-0.2998,0.6475-0.7793v-0.8154h0.9111v1.5596h1.3438v0.9355h-1.3438v3.4775
		c0,0.4795,0.3359,0.7441,0.8154,0.7441c0.2881,0,0.4316-0.0244,0.624-0.0723l0.0244,0.9111
		c-0.2402,0.0967-0.4805,0.1445-0.8643,0.1445c-0.9111,0-1.5586-0.624-1.5586-1.583v-3.6104h-0.9834V291.6564z"/>
	<path d="M216.3789,293.9718v3.6455h-0.959v-3.5977c0-0.9111-0.5996-1.583-1.4639-1.583c-1.1025,0-1.8467,0.8154-1.8701,1.9189
		v3.2617h-0.96v-8.1553h0.96v3.0586c0.3232-0.6475,1.0908-1.0439,1.9668-1.0439
		C215.3955,291.4767,216.3789,292.5323,216.3789,293.9718z"/>
	<path d="M220.5088,297.7618c-1.6797,0-2.9268-1.3193-2.9268-3.1426s1.2236-3.1426,2.8789-3.1426
		c1.6309,0,2.7705,1.2959,2.7705,3.0947c0,0.1318,0,0.2881-0.0127,0.4199h-4.5811c0.0723,1.0791,0.8154,1.8467,1.8232,1.8467
		c0.8633,0,1.5352-0.5156,1.6309-1.2832l1.0312,0.3838C222.8838,296.9943,221.7559,297.7618,220.5088,297.7618z M222.248,294.0675
		c-0.0479-0.9834-0.8398-1.6914-1.7998-1.6914c-0.959,0-1.751,0.708-1.8223,1.6914H222.248z"/>
	<path d="M227.4814,295.5548c0.0479,0.7676,0.6953,1.3076,1.5596,1.3076c0.7432,0,1.1514-0.4199,1.1514-0.9004
		c0-0.3838-0.2041-0.7188-0.7803-0.8516l-0.9951-0.2275c-0.959-0.2158-1.6787-0.791-1.6787-1.6553
		c0-0.9707,0.9717-1.751,2.1104-1.751c1.1514,0,2.0869,0.5996,2.2314,1.6318l-1.0078,0.2637
		c-0.0244-0.5762-0.54-1.0195-1.2471-1.0195c-0.6357,0-1.0557,0.3838-1.0557,0.8271c0,0.3838,0.252,0.6602,0.875,0.8154
		l0.9121,0.2285c0.959,0.2393,1.667,0.7314,1.667,1.6904c0,1.0195-0.8877,1.8477-2.2305,1.8477
		c-1.2959,0-2.3994-0.6719-2.543-1.9189L227.4814,295.5548z"/>
	<path d="M231.8984,291.6564h0.3838c0.4072,0,0.6475-0.2998,0.6475-0.7793v-0.8154h0.9111v1.5596h1.3438v0.9355h-1.3438v3.4775
		c0,0.4795,0.3359,0.7441,0.8154,0.7441c0.2881,0,0.4316-0.0244,0.624-0.0723l0.0234,0.9111
		c-0.2393,0.0967-0.4795,0.1445-0.8633,0.1445c-0.9111,0-1.5586-0.624-1.5586-1.583v-3.6104h-0.9834V291.6564z"/>
	<path d="M235.9785,294.6193c0-1.8232,1.2471-3.1426,2.999-3.1426c1.751,0,2.998,1.3193,2.998,3.1426s-1.2471,3.1426-2.998,3.1426
		C237.2256,297.7618,235.9785,296.4425,235.9785,294.6193z M240.9805,294.6193c0-1.2598-0.8516-2.2188-2.0029-2.2188
		s-2.0029,0.959-2.0029,2.2188c0,1.2471,0.8516,2.1943,2.0029,2.1943S240.9805,295.8663,240.9805,294.6193z"/>
	<path d="M246.4639,291.6925l-0.0244,1.1514c-0.1914-0.1436-0.4551-0.2393-0.8389-0.2393c-0.8154,0-1.3916,0.7432-1.416,1.751
		v3.2617h-0.959v-5.9961h0.792l0.1074,1.1748c0.252-0.7793,0.8271-1.2949,1.5713-1.2949
		C246.0322,291.5011,246.3203,291.5734,246.4639,291.6925z"/>
	<path d="M248.7207,290.0861c0,0.4189-0.3232,0.7676-0.7432,0.7676s-0.7441-0.3486-0.7441-0.7676
		c0-0.4199,0.3242-0.7676,0.7441-0.7676S248.7207,289.6661,248.7207,290.0861z M247.498,291.6212h0.959v5.9961h-0.959V291.6212z"/>
	<path d="M252.7041,297.7618c-1.6797,0-2.9268-1.3193-2.9268-3.1426s1.2236-3.1426,2.8789-3.1426
		c1.6309,0,2.7705,1.2959,2.7705,3.0947c0,0.1318,0,0.2881-0.0127,0.4199h-4.5811c0.0723,1.0791,0.8154,1.8467,1.8232,1.8467
		c0.8633,0,1.5352-0.5156,1.6309-1.2832l1.0312,0.3838C255.0791,296.9943,253.9512,297.7618,252.7041,297.7618z M254.4434,294.0675
		c-0.0479-0.9834-0.8398-1.6914-1.7998-1.6914c-0.959,0-1.751,0.708-1.8223,1.6914H254.4434z"/>
	<path d="M257.2773,295.5548c0.0479,0.7676,0.6963,1.3076,1.5596,1.3076c0.7432,0,1.1514-0.4199,1.1514-0.9004
		c0-0.3838-0.2041-0.7188-0.7803-0.8516l-0.9951-0.2275c-0.959-0.2158-1.6787-0.791-1.6787-1.6553
		c0-0.9707,0.9717-1.751,2.1104-1.751c1.1514,0,2.0869,0.5996,2.2314,1.6318l-1.0078,0.2637
		c-0.0244-0.5762-0.54-1.0195-1.2471-1.0195c-0.6357,0-1.0557,0.3838-1.0557,0.8271c0,0.3838,0.252,0.6602,0.875,0.8154
		l0.9121,0.2285c0.959,0.2393,1.667,0.7314,1.667,1.6904c0,1.0195-0.8877,1.8477-2.2305,1.8477
		c-1.2959,0-2.3994-0.6719-2.543-1.9189L257.2773,295.5548z"/>
	<path d="M168.2456,303.4855c0,0.4199-0.3237,0.7676-0.7437,0.7676s-0.7437-0.3477-0.7437-0.7676s0.3237-0.7676,0.7437-0.7676
		S168.2456,303.0656,168.2456,303.4855z M167.022,305.0206h0.9595v5.9971h-0.9595V305.0206z"/>
	<path d="M174.8428,307.3712v3.6465h-0.9595v-3.5986c0-0.9111-0.5996-1.583-1.4629-1.583c-1.1035,0-1.8472,0.8154-1.8711,1.9189
		v3.2627h-0.9595v-5.9971h0.8154l0.084,1.0312c0.2881-0.7314,1.1035-1.1748,2.0269-1.1748
		C173.8594,304.8771,174.8428,305.9327,174.8428,307.3712z"/>
	<path d="M179.0205,311.1613c-1.751,0-2.9741-1.3193-2.9741-3.1426c0-1.8223,1.2593-3.1416,2.9502-3.1416
		c1.3193,0,2.4468,0.8877,2.6387,2.1104l-1.0317,0.3604c-0.0957-0.8877-0.7676-1.5479-1.6309-1.5479
		c-1.1035,0-1.9189,0.9355-1.9189,2.207s0.8154,2.207,1.9668,2.207c0.8638,0,1.6069-0.6836,1.6792-1.5947l1.0552,0.335
		C181.5151,310.2501,180.3638,311.1613,179.0205,311.1613z"/>
	<path d="M183.8213,302.8624v8.1553h-0.9595v-8.1553H183.8213z"/>
	<path d="M189.6753,311.0177l-0.0601-0.9473c-0.2876,0.6709-1.0552,1.0908-1.9546,1.0908c-1.3433,0-2.3027-1.0068-2.3027-2.3984
		v-3.7422h0.9595v3.6465c0,0.8633,0.6235,1.5107,1.4868,1.5107c1.0078,0,1.7515-0.7676,1.7754-1.8232v-3.334h0.9595v4.7979
		l0.0479,1.1992H189.6753z"/>
	<path d="M196.9707,311.0177l-0.1196-1.0674c-0.4561,0.7197-1.1997,1.1631-2.0869,1.1631c-1.7271,0-2.9746-1.3193-2.9746-3.1426
		c0-1.7744,1.2476-3.0938,2.9268-3.0938c0.8755,0,1.5947,0.3955,2.0625,1.0674v-3.082h0.9595v6.9561l0.0483,1.1992H196.9707z
		 M196.8027,307.9952c0-1.2715-0.8633-2.207-2.0386-2.207c-1.1514,0-1.979,0.9355-1.979,2.207c0,1.2471,0.8516,2.1826,2.0269,2.1826
		C195.9634,310.1779,196.8027,309.2423,196.8027,307.9952z"/>
	<path d="M201.9639,311.1613c-1.6787,0-2.9263-1.3193-2.9263-3.1426c0-1.8223,1.2236-3.1416,2.8784-3.1416
		c1.6309,0,2.7705,1.2949,2.7705,3.0938c0,0.1318,0,0.2881-0.0127,0.4199h-4.5806c0.0718,1.0791,0.8154,1.8467,1.8228,1.8467
		c0.8633,0,1.5352-0.5156,1.6309-1.2832l1.0312,0.3838C204.3389,310.3937,203.2109,311.1613,201.9639,311.1613z M203.7031,307.4679
		c-0.0479-0.9844-0.8398-1.6914-1.7988-1.6914c-0.9595,0-1.751,0.707-1.8232,1.6914H203.7031z"/>
	<path d="M210.7344,311.0177l-0.1201-1.0674c-0.4561,0.7197-1.1992,1.1631-2.0869,1.1631c-1.7275,0-2.9746-1.3193-2.9746-3.1426
		c0-1.7744,1.2471-3.0938,2.9268-3.0938c0.875,0,1.5947,0.3955,2.0625,1.0674v-3.082h0.96v6.9561l0.0479,1.1992H210.7344z
		 M210.5664,307.9952c0-1.2715-0.8643-2.207-2.0391-2.207c-1.1514,0-1.9795,0.9355-1.9795,2.207
		c0,1.2471,0.8516,2.1826,2.0273,2.1826C209.7266,310.1779,210.5664,309.2423,210.5664,307.9952z"/>
	<path d="M216.7842,303.4855c0,0.4199-0.3232,0.7676-0.7432,0.7676s-0.7432-0.3477-0.7432-0.7676s0.3232-0.7676,0.7432-0.7676
		S216.7842,303.0656,216.7842,303.4855z M215.5615,305.0206h0.959v5.9971h-0.959V305.0206z"/>
	<path d="M223.3818,307.3712v3.6465h-0.959v-3.5986c0-0.9111-0.5996-1.583-1.4639-1.583c-1.1025,0-1.8467,0.8154-1.8701,1.9189
		v3.2627h-0.96v-5.9971h0.8154l0.084,1.0312c0.2881-0.7314,1.1035-1.1748,2.0273-1.1748
		C222.3984,304.8771,223.3818,305.9327,223.3818,307.3712z"/>
	<path d="M228.5674,303.4855c0,0.4199-0.3232,0.7676-0.7432,0.7676s-0.7432-0.3477-0.7432-0.7676s0.3232-0.7676,0.7432-0.7676
		S228.5674,303.0656,228.5674,303.4855z M227.3447,305.0206h0.959v5.9971h-0.959V305.0206z"/>
	<path d="M229.3848,305.0568h0.3838c0.4072,0,0.6475-0.2998,0.6475-0.7793v-0.8154h0.9111v1.5586h1.3438v0.9355h-1.3438v3.4785
		c0,0.4795,0.3359,0.7432,0.8154,0.7432c0.2881,0,0.4316-0.0234,0.624-0.0723l0.0234,0.9121
		c-0.2393,0.0957-0.4795,0.1436-0.8633,0.1436c-0.9111,0-1.5586-0.623-1.5586-1.583v-3.6104h-0.9834V305.0568z"/>
	<path d="M177.7368,315.3986c-0.6719,1.3438-1.1035,3.5742-1.1035,5.3496c0,1.7744,0.5273,4.1016,1.1992,5.4443h-0.8877
		c-0.7432-1.3906-1.3193-3.4775-1.3193-5.4443s0.5039-3.958,1.2476-5.3496H177.7368z"/>
	<path d="M180.3291,316.8859c0,0.4199-0.3237,0.7676-0.7437,0.7676s-0.7437-0.3477-0.7437-0.7676s0.3237-0.7676,0.7437-0.7676
		S180.3291,316.4659,180.3291,316.8859z M179.1055,318.421h0.9595v5.9971h-0.9595V318.421z"/>
	<path d="M186.9263,320.7716v3.6465h-0.9595v-3.5986c0-0.9111-0.5996-1.583-1.4629-1.583c-1.1035,0-1.8472,0.8154-1.8711,1.9189
		v3.2627h-0.9595v-5.9971h0.8154l0.084,1.0312c0.2881-0.7314,1.1035-1.1748,2.0269-1.1748
		C185.9429,318.2775,186.9263,319.3331,186.9263,320.7716z"/>
	<path d="M196.4424,318.421v5.8525c0,1.6553-1.1753,2.8545-2.8066,2.8545c-1.5352,0-2.6865-0.9355-2.8784-2.2305l1.0073-0.2881
		c0.0723,0.8877,0.8159,1.5596,1.8711,1.5596c1.0796,0,1.8711-0.7441,1.8711-1.751v-1.0674
		c-0.4556,0.6475-1.1636,1.043-2.0151,1.043c-1.7271,0-2.9619-1.2715-2.9619-3.0938c0-1.7754,1.2349-3.0469,2.9141-3.0469
		c0.9116,0,1.6431,0.4199,2.1108,1.1152l0.0723-0.9473H196.4424z M195.5068,321.3234c0-1.2715-0.8394-2.1582-2.0151-2.1582
		c-1.1514,0-1.9668,0.8867-1.9668,2.1582c0,1.2471,0.8398,2.1348,2.0151,2.1348
		C194.6914,323.4581,195.5068,322.5704,195.5068,321.3234z"/>
	<path d="M201.1709,318.4933l-0.0234,1.1514c-0.1919-0.1445-0.4561-0.2402-0.8398-0.2402c-0.8154,0-1.3911,0.7441-1.415,1.751
		v3.2627h-0.9595v-5.9971h0.7915l0.1079,1.1758c0.252-0.7803,0.8276-1.2959,1.5713-1.2959
		C200.7397,318.3009,201.0273,318.3732,201.1709,318.4933z"/>
	<path d="M204.5791,324.5616c-1.6787,0-2.9268-1.3193-2.9268-3.1426c0-1.8223,1.2236-3.1416,2.8789-3.1416
		c1.6309,0,2.7705,1.2949,2.7705,3.0938c0,0.1318,0,0.2881-0.0127,0.4199h-4.5811c0.0723,1.0791,0.8154,1.8467,1.8232,1.8467
		c0.8633,0,1.5352-0.5156,1.6309-1.2832l1.0312,0.3838C206.9541,323.7941,205.8262,324.5616,204.5791,324.5616z M206.3184,320.8683
		c-0.0479-0.9844-0.8398-1.6914-1.7988-1.6914c-0.96,0-1.751,0.707-1.8232,1.6914H206.3184z"/>
	<path d="M211.1436,324.5616c-1.6797,0-2.9268-1.3193-2.9268-3.1426c0-1.8223,1.2236-3.1416,2.8789-3.1416
		c1.6309,0,2.7705,1.2949,2.7705,3.0938c0,0.1318,0,0.2881-0.0127,0.4199h-4.5811c0.0723,1.0791,0.8154,1.8467,1.8232,1.8467
		c0.8633,0,1.5352-0.5156,1.6309-1.2832l1.0312,0.3838C213.5186,323.7941,212.3906,324.5616,211.1436,324.5616z M212.8828,320.8683
		c-0.0479-0.9844-0.8398-1.6914-1.7998-1.6914c-0.959,0-1.751,0.707-1.8223,1.6914H212.8828z"/>
	<path d="M220.3213,320.7716v3.6465h-0.959v-3.5986c0-0.9111-0.5996-1.583-1.4639-1.583c-1.1025,0-1.8467,0.8154-1.8701,1.9189
		v3.2627h-0.96v-5.9971h0.8154l0.084,1.0312c0.2881-0.7314,1.1035-1.1748,2.0273-1.1748
		C219.3379,318.2775,220.3213,319.3331,220.3213,320.7716z"/>
	<path d="M223.6836,320.7482c0,1.9668-0.5762,4.0537-1.3193,5.4443h-0.8877c0.6719-1.3428,1.1992-3.6699,1.1992-5.4443
		c0-1.7754-0.4316-4.0059-1.1035-5.3496h0.8643C223.1797,316.7902,223.6836,318.7814,223.6836,320.7482z"/>
	<path d="M203.1318,334.7238l-3.3579,3.3574l-3.3584-3.3574l0.5996-0.5996l2.3389,2.3379v-6.4404h0.8394v6.4404l2.3389-2.3379
		L203.1318,334.7238z"/>
</g>
<g>
	
		<linearGradient id="SVGID_44_" gradientUnits="userSpaceOnUse" x1="215.0163" y1="373.4623" x2="144.3883" y2="361.0087" gradientTransform="matrix(1 0 0 -1 0 399.8898)">
		<stop  offset="0" style="stop-color:#FABBC2"/>
		<stop  offset="0.4822" style="stop-color:#FFA1AF"/>
		<stop  offset="0.6738" style="stop-color:#FD9BA8"/>
		<stop  offset="0.9583" style="stop-color:#F88994"/>
		<stop  offset="1" style="stop-color:#F78690"/>
	</linearGradient>
	<path class="st43" d="M149.0052,63.2115c16.9669,0.0045,28.8567-14.3741,42.5369-32.7212
		c7.801-10.4618,13.3993-18.6613,20.2012-22.6247c-3.3483-2.5631-7.1908-3.9666-12.0882-3.9666
		c-14.0406,0-19.4229,11.5049-29.2939,28.9443c-7.2543,12.8165-14.5135,24.0161-21.682,30.3727"/>
</g>
<g>
	
		<linearGradient id="SVGID_45_" gradientUnits="userSpaceOnUse" x1="10.2018" y1="485.4219" x2="-60.4247" y2="472.9685" gradientTransform="matrix(0.9686 0.2487 0.2487 -0.9686 127.0935 503.3434)">
		<stop  offset="0" style="stop-color:#FABBC2"/>
		<stop  offset="0.4822" style="stop-color:#FFA1AF"/>
		<stop  offset="0.6738" style="stop-color:#FD9BA8"/>
		<stop  offset="0.9583" style="stop-color:#F88994"/>
		<stop  offset="1" style="stop-color:#F78690"/>
	</linearGradient>
	<path class="st44" d="M184.6144,54.9128c16.4327,4.2238,31.5248-6.7462,49.338-21.1147
		c10.1576-8.1931,17.6192-14.7428,25.1931-16.89c-2.6057-3.3153-5.9785-5.6302-10.722-6.8481
		c-13.5995-3.4917-21.6739,6.3131-35.5718,20.7498c-10.2138,10.6098-20.0301,19.6522-28.5542,24.0263"/>
</g>
<g>
	
		<linearGradient id="SVGID_46_" gradientUnits="userSpaceOnUse" x1="-1117.9442" y1="115.8433" x2="-1188.5737" y2="103.3893" gradientTransform="matrix(-0.0628 0.998 0.998 0.0628 186.102 1334.6625)">
		<stop  offset="0" style="stop-color:#FABBC2"/>
		<stop  offset="0.4822" style="stop-color:#FFA1AF"/>
		<stop  offset="0.6738" style="stop-color:#FD9BA8"/>
		<stop  offset="0.9583" style="stop-color:#F88994"/>
		<stop  offset="1" style="stop-color:#F78690"/>
	</linearGradient>
	<path class="st45" d="M339.3543,158.0387c-1.0698,16.9331,12.5338,29.7023,29.9858,44.5076
		c9.9513,8.4425,17.7831,14.5446,21.3116,21.582c2.7683-3.1808,4.4102-6.9276,4.7177-11.8153
		c0.8816-14.0129-10.2626-20.107-27.0478-31.0536c-12.3357-8.0448-23.0574-15.9929-28.9513-23.5464"/>
</g>
<g>
	
		<linearGradient id="SVGID_47_" gradientUnits="userSpaceOnUse" x1="-876.0262" y1="-1135.845" x2="-946.6542" y2="-1148.2986" gradientTransform="matrix(-1 0 0 1 -691.7316 1509.4176)">
		<stop  offset="0" style="stop-color:#B3E3BC"/>
		<stop  offset="0.4822" style="stop-color:#A6D3AF"/>
		<stop  offset="0.6585" style="stop-color:#9FD0A9"/>
		<stop  offset="0.9202" style="stop-color:#8BC997"/>
		<stop  offset="1" style="stop-color:#83C690"/>
	</linearGradient>
	<path class="st46" d="M250.3057,336.7885c-16.9669-0.0045-28.8567,14.3741-42.5369,32.7213
		c-7.801,10.4618-13.3993,18.6613-20.2012,22.6247c3.3483,2.5631,7.1908,3.9666,12.0882,3.9666
		c14.0406,0,19.4229-11.5049,29.2939-28.9443c7.2543-12.8165,14.5135-24.0161,21.682-30.3727"/>
</g>
<g>
	
		<linearGradient id="SVGID_48_" gradientUnits="userSpaceOnUse" x1="-559.965" y1="-1283.6302" x2="-630.5934" y2="-1296.0839" gradientTransform="matrix(-0.9298 -0.3681 -0.3681 0.9298 -871.6835 1343.1262)">
		<stop  offset="0" style="stop-color:#B3E3BC"/>
		<stop  offset="0.4822" style="stop-color:#A6D3AF"/>
		<stop  offset="0.6585" style="stop-color:#9FD0A9"/>
		<stop  offset="0.9202" style="stop-color:#8BC997"/>
		<stop  offset="1" style="stop-color:#83C690"/>
	</linearGradient>
	<path class="st47" d="M196.3937,345.8283c-15.7737-6.2501-32.1218,2.7419-51.5953,14.7646
		c-11.1044,6.8554-19.328,12.4183-27.1113,13.5993c2.1697,3.6157,5.2257,6.3351,9.7791,8.1379
		c13.0546,5.1687,22.2942-3.5469,37.8919-16.1279c11.463-9.246,22.3353-16.9868,31.3404-20.2581"/>
</g>
<g>
	
		<linearGradient id="SVGID_49_" gradientUnits="userSpaceOnUse" x1="-1173.9855" y1="13.2508" x2="-1244.6117" y2="0.7976" gradientTransform="matrix(-0.1874 0.9823 0.9823 0.1874 134.2533 1398.3353)">
		<stop  offset="0" style="stop-color:#BDF2BF"/>
		<stop  offset="0.4822" style="stop-color:#A4CFA9"/>
		<stop  offset="0.6657" style="stop-color:#9DCDA3"/>
		<stop  offset="0.9383" style="stop-color:#89C894"/>
		<stop  offset="1" style="stop-color:#83C690"/>
	</linearGradient>
	<path class="st48" d="M343.5119,175.8785c-3.1837,16.6655,8.7123,31.039,24.171,47.9148
		c8.8148,9.6232,15.82,16.6587,18.4386,24.0828c3.1451-2.8088,5.2437-6.3202,6.1614-11.1308
		c2.631-13.7919-7.6616-21.2347-22.9425-34.1987c-11.2302-9.5274-20.8712-18.7566-25.7719-26.9893"/>
</g>
<g>
	<path d="M160.9482,202.4835v-14.0898c0-1.0854-0.8921-1.6284-2.6763-1.6284c-0.1323,0-0.1982-0.1792-0.1982-0.5381
		s0.0659-0.5381,0.1982-0.5381c0.4341,0.0474,1.6709,0.0708,3.71,0.0708s3.271-0.0234,3.6958-0.0708
		c0.1226,0,0.1841,0.1792,0.1841,0.5381s-0.0615,0.5381-0.1841,0.5381c-1.6426,0-2.4639,0.543-2.4639,1.6284v12.6738
		c0,0.4805,0.0684,0.9463,0.2056,1.3945c0.1367,0.4482,0.3965,0.835,0.7783,1.1611c0.3828,0.3252,0.8945,0.4883,1.5366,0.4883
		l4.4321-0.1846c1.1802-0.0469,2.0981-0.4766,2.7539-1.2881c0.6562-0.8115,0.9844-1.8174,0.9844-3.0161
		c0-0.1226,0.1841-0.1841,0.5522-0.1841s0.5522,0.0615,0.5522,0.1841v4.9839c0,0.2461-0.1182,0.3877-0.354,0.4258
		c-0.2358,0.0371-0.5005,0.0566-0.793,0.0566c-1.3501-0.0098-3.3892-0.0293-6.1172-0.0566c-2.728-0.0293-4.6211-0.043-5.6782-0.043
		s-2.2607,0.0332-3.6108,0.0996c-0.1226,0-0.1841-0.1797-0.1841-0.5391c0-0.3584,0.0615-0.5371,0.1841-0.5371
		C160.1177,204.0128,160.9482,203.5031,160.9482,202.4835z"/>
	<path d="M177.3457,198.8864c0-1.6802,0.5356-3.1362,1.6069-4.3687c1.0718-1.2314,2.2729-1.8477,3.604-1.8477
		s2.4072,0.4624,3.2285,1.3877s1.2319,1.6802,1.2319,2.2656s-0.2407,0.8828-0.7222,0.8921h-6.3579
		c-0.2832,0-0.4248,0.3115-0.4248,0.9346c0,1.5103,0.3613,2.8062,1.083,3.8872c0.7227,1.0811,1.7207,1.6211,2.9951,1.6211
		c0.9536,0,1.9023-0.2832,2.8462-0.8496c0.0474-0.0283,0.0991-0.042,0.1558-0.042c0.1133,0,0.2124,0.0518,0.2974,0.1553
		c0.0659,0.0664,0.0991,0.165,0.0991,0.2979c0,0.0469-0.019,0.084-0.0566,0.1133c-1.4917,1.3213-2.9595,1.9824-4.4038,1.9824
		s-2.6694-0.6523-3.6743-1.9551C177.8481,202.0577,177.3457,200.5665,177.3457,198.8864z M179.8379,196.0685
		c0,0.1323,0.1133,0.1982,0.3398,0.1982h4.5454c0.1416,0,0.2124-0.0801,0.2124-0.2407c0-0.4155-0.2573-0.9395-0.772-1.5718
		c-0.5142-0.6323-1.0498-0.9487-1.6069-0.9487c-0.6138,0-1.1445,0.2056-1.5933,0.6157c-0.4482,0.4111-0.8091,0.9893-1.083,1.7349
		C179.8521,195.9318,179.8379,196.0026,179.8379,196.0685z"/>
	<path d="M188.8438,209.3507c0-0.9443,0.8828-2.0488,2.6479-3.3135c0.1509-0.1318,0.2266-0.2363,0.2266-0.3115
		c-0.019-0.1035-0.1133-0.1748-0.2832-0.2129c-1.2837-0.3672-1.9258-1.0664-1.9258-2.0957c0-0.4805,0.5381-1.0996,1.6143-1.8545
		c0.0942-0.0664,0.2051-0.1367,0.333-0.2119c0.127-0.0762,0.1909-0.1699,0.1909-0.2832s-0.0708-0.2178-0.2124-0.312
		c-1.3784-0.8779-2.0674-2.0059-2.0674-3.3843s0.4746-2.5063,1.4229-3.3843c0.9492-0.8779,2.0229-1.3169,3.2217-1.3169
		s2.209,0.1816,3.0303,0.5449c0.8213,0.3638,1.4727,0.5454,1.9541,0.5454h2.4351c0.1416,0,0.2129,0.2031,0.2129,0.6089
		s-0.0713,0.6089-0.2129,0.6089h-2.3501c0.0376,0.3491,0.0566,0.8638,0.0566,1.5435c0,1.3687-0.4438,2.5088-1.3311,3.4199
		c-0.8872,0.9106-2.124,1.3662-3.71,1.3662c-0.3115,0-0.6704-0.0186-1.0762-0.0566c-0.1982,0-0.4014,0.0664-0.6089,0.1982
		c-0.6514,0.4248-0.9771,0.8965-0.9771,1.416c0,0.7549,0.7031,1.1328,2.1099,1.1328h3.5967c2.8037,0,4.2051,1.0762,4.2051,3.2285
		c0,1.6045-0.7524,2.9521-2.2583,4.043c-1.5054,1.0898-3.1787,1.6357-5.0195,1.6357c-1.7085,0-3.0068-0.333-3.894-0.999
		C189.2876,211.2413,188.8438,210.3888,188.8438,209.3507z M191.1094,208.5577c0,0.9248,0.3447,1.6689,1.0337,2.2305
		s1.6851,0.8418,2.9878,0.8418s2.374-0.3135,3.2144-0.9414s1.2603-1.3848,1.2603-2.2725c0-1.7656-1.1519-2.6475-3.4551-2.6475
		h-2.6055c-0.3306,0-0.6182,0.0889-0.8638,0.2686C191.6333,206.7921,191.1094,207.6329,191.1094,208.5577z M191.5483,196.9323
		c0,1.0288,0.3115,1.8765,0.9346,2.5415c0.623,0.666,1.3076,0.9985,2.0532,0.9985c1.605,0,2.4072-1.0571,2.4072-3.1719
		c0-1.6235-0.4058-2.7422-1.2178-3.356c-0.3872-0.2925-0.9062-0.439-1.5576-0.439s-1.251,0.314-1.7983,0.9419
		C191.8223,195.0748,191.5483,195.9034,191.5483,196.9323z"/>
	<path d="M202.6348,198.8864c0-1.6802,0.5361-3.1362,1.6074-4.3687c1.0713-1.2314,2.2734-1.8477,3.6035-1.8477
		c1.332,0,2.4082,0.4624,3.2285,1.3877c0.8223,0.9253,1.2324,1.6802,1.2324,2.2656s-0.2402,0.8828-0.7227,0.8921h-6.3574
		c-0.2832,0-0.4248,0.3115-0.4248,0.9346c0,1.5103,0.3613,2.8062,1.083,3.8872c0.7227,1.0811,1.7207,1.6211,2.9951,1.6211
		c0.9531,0,1.9023-0.2832,2.8467-0.8496c0.0469-0.0283,0.0986-0.042,0.1553-0.042c0.1133,0,0.2119,0.0518,0.2979,0.1553
		c0.0654,0.0664,0.0986,0.165,0.0986,0.2979c0,0.0469-0.0186,0.084-0.0566,0.1133c-1.4912,1.3213-2.96,1.9824-4.4033,1.9824
		c-1.4453,0-2.6699-0.6523-3.6748-1.9551C203.1377,202.0577,202.6348,200.5665,202.6348,198.8864z M205.127,196.0685
		c0,0.1323,0.1133,0.1982,0.3398,0.1982h4.5459c0.1416,0,0.2119-0.0801,0.2119-0.2407c0-0.4155-0.2568-0.9395-0.7715-1.5718
		s-1.0498-0.9487-1.6074-0.9487c-0.6133,0-1.1445,0.2056-1.5928,0.6157c-0.4482,0.4111-0.8096,0.9893-1.083,1.7349
		C205.1416,195.9318,205.127,196.0026,205.127,196.0685z"/>
	<path d="M225.9854,203.1906c0,0.7363,0.543,1.1055,1.6289,1.1055c0.1318,0,0.1973,0.1338,0.1973,0.4033
		c0,0.2686-0.0654,0.4033-0.1973,0.4033c-0.7275-0.0752-1.6104-0.1133-2.6484-0.1133s-1.9395,0.0381-2.7051,0.1133
		c-0.1318,0-0.1973-0.1348-0.1973-0.4033c0-0.2695,0.0654-0.4033,0.1973-0.4033c1.0391,0,1.5586-0.3691,1.5586-1.1055v-5.7061
		c0-0.793-0.0693-1.4658-0.2061-2.0176c-0.1367-0.5527-0.3516-0.9443-0.6436-1.1758c-0.293-0.231-0.8076-0.3467-1.5439-0.3467
		c-0.3965,0-0.7549,0.0801-1.0762,0.2407s-0.6348,0.3516-0.9414,0.5737c-0.3066,0.2217-0.5664,0.4951-0.7793,0.8213
		c-0.2119,0.3252-0.3184,0.6772-0.3184,1.0547v6.5557c0,0.7363,0.5049,1.1055,1.5146,1.1055c0.1328,0,0.1992,0.1338,0.1992,0.4033
		c0,0.2686-0.0664,0.4033-0.1992,0.4033c-0.7266-0.0752-1.6094-0.1133-2.6475-0.1133s-1.9258,0.0381-2.6621,0.1133
		c-0.1318,0-0.1982-0.1348-0.1982-0.4033c0-0.2695,0.0664-0.4033,0.1982-0.4033c1.0859,0,1.6279-0.3691,1.6279-1.1055v-6.3291
		c0-1.2085-0.3965-1.8125-1.1895-1.8125c-0.1602,0-0.2402-0.1323-0.2402-0.3965s0.0801-0.3965,0.2402-0.3965
		c0.3594,0,0.7725-0.1416,1.2393-0.4248c0.4678-0.2832,0.876-0.5781,1.2256-0.8848c0.3486-0.3071,0.5938-0.4604,0.7363-0.4604
		c0.1318,0,0.1973,0.0732,0.1973,0.2192c0,0.1465-0.0088,0.3447-0.0273,0.5947c-0.0195,0.2505-0.0293,0.4722-0.0293,0.666
		c0,0.1934,0.0713,0.29,0.2129,0.29c0.0752,0,0.1465-0.0283,0.2129-0.085c1.0098-1.0005,2.2324-1.501,3.667-1.501
		c1.3975,0,2.4404,0.6938,3.1299,2.0815c0.3105,0.623,0.4668,1.7935,0.4668,3.5117V203.1906z"/>
	<path d="M228.8027,199.1696c0-1.7842,0.623-3.3135,1.8691-4.5879s2.8652-1.9116,4.8564-1.9116
		c0.6611,0,1.1992,0.0659,1.6152,0.1982c0.1133,0.0376,0.2021,0.0566,0.2686,0.0566c0.1318,0,0.1982-0.1182,0.1982-0.354v-4.1631
		c0-1.3218-0.4346-1.9824-1.3027-1.9824c-0.1602,0-0.2402-0.1299-0.2402-0.3892c0-0.2598,0.0801-0.3896,0.2402-0.3896
		c0.2363,0,0.6914-0.1724,1.3662-0.5166c0.6748-0.3447,1.1611-0.6255,1.459-0.8428c0.2969-0.2173,0.4951-0.3257,0.5947-0.3257
		c0.0986,0,0.1484,0.0518,0.1484,0.1558s-0.0166,0.4058-0.0498,0.9062s-0.0498,0.9629-0.0498,1.3877v15.3066
		c0,1.4072,0.3877,2.1104,1.1621,2.1104c0.1035,0,0.2402-0.0146,0.4102-0.042c0.1699-0.0293,0.2695-0.043,0.2969-0.043
		c0.0293,0,0.0596,0.0283,0.0928,0.085s0.0615,0.1416,0.085,0.2549s0.0352,0.2197,0.0352,0.3184
		c0,0.0996-0.0303,0.1484-0.0918,0.1484s-0.3047,0.041-0.7295,0.1211s-1.043,0.2168-1.8545,0.4102
		c-0.8125,0.1934-1.2559,0.3184-1.332,0.375c-0.1602,0-0.2402-0.2305-0.2402-0.6934v-0.5801c0-0.2178-0.0547-0.3262-0.1631-0.3262
		s-0.2383,0.0664-0.3896,0.1982c-0.8867,0.8398-1.8125,1.2607-2.7754,1.2607c-1.8594,0-3.2373-0.5791-4.1348-1.7354
		C229.251,202.424,228.8027,200.9542,228.8027,199.1696z M237.6104,202.171v-6.6406c0-0.708-0.1035-1.1519-0.3115-1.3311
		c-0.5566-0.4624-1.2559-0.6938-2.0957-0.6938c-1.2646,0-2.2637,0.5264-2.9951,1.5786c-0.7314,1.0527-1.0977,2.2778-1.0977,3.6748
		s0.3926,2.6104,1.1758,3.6387c0.7832,1.0293,1.6895,1.5439,2.7188,1.5439c0.7363,0,1.3545-0.1934,1.8555-0.5811
		C237.3604,202.9738,237.6104,202.5773,237.6104,202.171z"/>
</g>
<g>
	
		<linearGradient id="SVGID_50_" gradientUnits="userSpaceOnUse" x1="-671.1917" y1="-1247.7704" x2="-741.8182" y2="-1260.2236" gradientTransform="matrix(-0.9686 -0.2487 -0.2487 0.9686 -818.8253 1405.964)">
		<stop  offset="0" style="stop-color:#B3E3BC"/>
		<stop  offset="0.4822" style="stop-color:#A6D3AF"/>
		<stop  offset="0.6585" style="stop-color:#9FD0A9"/>
		<stop  offset="0.9202" style="stop-color:#8BC997"/>
		<stop  offset="1" style="stop-color:#83C690"/>
	</linearGradient>
	<path class="st49" d="M214.6965,345.0872c-16.4327-4.2238-31.5248,6.7462-49.338,21.1147
		c-10.1576,8.1931-17.6192,14.7428-25.1931,16.89c2.6057,3.3152,5.9785,5.6302,10.722,6.8481
		c13.5995,3.4917,21.6739-6.3132,35.5718-20.7498c10.2138-10.6098,20.0301-19.6523,28.5542-24.0263"/>
</g>
</svg>
