<?xml version="1.0" encoding="utf-8"?>
<!-- Generator: Adobe Illustrator 25.2.0, SVG Export Plug-In . SVG Version: 6.00 Build 0)  -->
<!DOCTYPE svg PUBLIC "-//W3C//DTD SVG 1.1//EN" "http://www.w3.org/Graphics/SVG/1.1/DTD/svg11.dtd" [
	<!ENTITY ns_extend "http://ns.adobe.com/Extensibility/1.0/">
	<!ENTITY ns_ai "http://ns.adobe.com/AdobeIllustrator/10.0/">
	<!ENTITY ns_graphs "http://ns.adobe.com/Graphs/1.0/">
	<!ENTITY ns_vars "http://ns.adobe.com/Variables/1.0/">
	<!ENTITY ns_imrep "http://ns.adobe.com/ImageReplacement/1.0/">
	<!ENTITY ns_sfw "http://ns.adobe.com/SaveForWeb/1.0/">
	<!ENTITY ns_custom "http://ns.adobe.com/GenericCustomNamespace/1.0/">
	<!ENTITY ns_adobe_xpath "http://ns.adobe.com/XPath/1.0/">
]>
<svg version="1.1" id="Livello_1" xmlns:x="&ns_extend;" xmlns:i="&ns_ai;" xmlns:graph="&ns_graphs;"
	 xmlns="http://www.w3.org/2000/svg" xmlns:xlink="http://www.w3.org/1999/xlink" x="0px" y="0px" viewBox="0 0 399.3 400"
	 style="enable-background:new 0 0 399.3 400;" xml:space="preserve">
<style type="text/css">
	.st0{fill:url(#SVGID_1_);stroke:#1C1317;stroke-width:0.4;stroke-miterlimit:10;}
	.st1{fill:url(#SVGID_2_);stroke:#1C1317;stroke-width:0.4;stroke-miterlimit:10;}
	.st2{fill:url(#SVGID_3_);stroke:#1C1317;stroke-width:0.4;stroke-miterlimit:10;}
	.st3{fill:url(#SVGID_4_);stroke:#1C1317;stroke-width:0.4;stroke-miterlimit:10;}
	.st4{fill:url(#SVGID_5_);stroke:#1C1317;stroke-width:0.4;stroke-miterlimit:10;}
	.st5{fill:url(#SVGID_6_);stroke:#1C1317;stroke-width:0.4;stroke-miterlimit:10;}
	.st6{fill:url(#SVGID_7_);stroke:#1C1317;stroke-width:0.4;stroke-miterlimit:10;}
	.st7{fill:url(#SVGID_8_);stroke:#1C1317;stroke-width:0.4;stroke-miterlimit:10;}
	.st8{fill:url(#SVGID_9_);stroke:#1C1317;stroke-width:0.4;stroke-miterlimit:10;}
	.st9{fill:url(#SVGID_10_);stroke:#1C1317;stroke-width:0.4;stroke-miterlimit:10;}
	.st10{fill:url(#SVGID_11_);stroke:#1C1317;stroke-width:0.4;stroke-miterlimit:10;}
	.st11{fill:url(#SVGID_12_);stroke:#1C1317;stroke-width:0.4;stroke-miterlimit:10;}
	.st12{fill:url(#SVGID_13_);stroke:#1C1317;stroke-width:0.4;stroke-miterlimit:10;}
	.st13{fill:url(#SVGID_14_);stroke:#1C1317;stroke-width:0.4;stroke-miterlimit:10;}
	.st14{fill:url(#SVGID_15_);stroke:#1C1317;stroke-width:0.4;stroke-miterlimit:10;}
	.st15{fill:url(#SVGID_16_);stroke:#1C1317;stroke-width:0.4;stroke-miterlimit:10;}
	.st16{fill:url(#SVGID_17_);stroke:#1C1317;stroke-width:0.4;stroke-miterlimit:10;}
	.st17{fill:url(#SVGID_18_);stroke:#1C1317;stroke-width:0.4;stroke-miterlimit:10;}
	.st18{fill:url(#SVGID_19_);stroke:#1C1317;stroke-width:0.4;stroke-miterlimit:10;}
	.st19{fill:url(#SVGID_20_);stroke:#1C1317;stroke-width:0.4;stroke-miterlimit:10;}
	.st20{fill:url(#SVGID_21_);stroke:#1C1317;stroke-width:0.4;stroke-miterlimit:10;}
	.st21{fill:url(#SVGID_22_);stroke:#1C1317;stroke-width:0.4;stroke-miterlimit:10;}
	.st22{fill:url(#SVGID_23_);stroke:#1C1317;stroke-width:0.4;stroke-miterlimit:10;}
	.st23{fill:url(#SVGID_24_);stroke:#1C1317;stroke-width:0.4;stroke-miterlimit:10;}
	.st24{fill:url(#SVGID_25_);stroke:#1C1317;stroke-width:0.4;stroke-miterlimit:10;}
	.st25{fill:url(#SVGID_26_);stroke:#1C1317;stroke-width:0.4;stroke-miterlimit:10;}
	.st26{fill:url(#SVGID_27_);stroke:#1C1317;stroke-width:0.4;stroke-miterlimit:10;}
	.st27{fill:url(#SVGID_28_);stroke:#1C1317;stroke-width:0.4;stroke-miterlimit:10;}
	.st28{fill:url(#SVGID_29_);stroke:#1C1317;stroke-width:0.4;stroke-miterlimit:10;}
	.st29{fill:url(#SVGID_30_);stroke:#1C1317;stroke-width:0.4;stroke-miterlimit:10;}
	.st30{fill:url(#SVGID_31_);stroke:#1C1317;stroke-width:0.4;stroke-miterlimit:10;}
	.st31{fill:url(#SVGID_32_);stroke:#1C1317;stroke-width:0.4;stroke-miterlimit:10;}
	.st32{fill:url(#SVGID_33_);stroke:#1C1317;stroke-width:0.4;stroke-miterlimit:10;}
	.st33{fill:url(#SVGID_34_);stroke:#1C1317;stroke-width:0.4;stroke-miterlimit:10;}
	.st34{fill:url(#SVGID_35_);stroke:#1C1317;stroke-width:0.4;stroke-miterlimit:10;}
	.st35{fill:url(#SVGID_36_);stroke:#1C1317;stroke-width:0.4;stroke-miterlimit:10;}
	.st36{fill:url(#SVGID_37_);stroke:#1C1317;stroke-width:0.4;stroke-miterlimit:10;}
	.st37{fill:url(#SVGID_38_);stroke:#1C1317;stroke-width:0.4;stroke-miterlimit:10;}
	.st38{fill:url(#SVGID_39_);stroke:#1C1317;stroke-width:0.4;stroke-miterlimit:10;}
	.st39{fill:url(#SVGID_40_);stroke:#1C1317;stroke-width:0.4;stroke-miterlimit:10;}
	.st40{fill:url(#SVGID_41_);stroke:#1C1317;stroke-width:0.4;stroke-miterlimit:10;}
	.st41{fill:url(#SVGID_42_);stroke:#1C1317;stroke-width:0.4;stroke-miterlimit:10;}
	.st42{fill:url(#SVGID_43_);stroke:#1C1317;stroke-width:0.4;stroke-miterlimit:10;}
	.st43{fill:#FFFFFF;}
	.st44{fill:url(#SVGID_44_);stroke:#1C1317;stroke-width:0.4;stroke-miterlimit:10;}
	.st45{fill:url(#SVGID_45_);stroke:#1C1317;stroke-width:1.8;stroke-miterlimit:10;}
	.st46{fill:url(#SVGID_46_);stroke:#1C1317;stroke-width:0.4;stroke-miterlimit:10;}
	.st47{fill:url(#SVGID_47_);stroke:#1C1317;stroke-width:0.4;stroke-miterlimit:10;}
	.st48{fill:url(#SVGID_48_);stroke:#1C1317;stroke-width:0.4;stroke-miterlimit:10;}
	.st49{fill:url(#SVGID_49_);stroke:#1C1317;stroke-width:0.4;stroke-miterlimit:10;}
	.st50{fill:url(#SVGID_50_);stroke:#1C1317;stroke-width:1.8;stroke-miterlimit:10;}
</style>
<metadata>
	<sfw  xmlns="&ns_sfw;">
		<slices></slices>
		<sliceSourceBounds  bottomLeftOrigin="true" height="392.6" width="391.9" x="3.7" y="3.7"></sliceSourceBounds>
	</sfw>
</metadata>
<g>
	
		<linearGradient id="SVGID_1_" gradientUnits="userSpaceOnUse" x1="151.7723" y1="249.1227" x2="81.151" y2="236.6703" gradientTransform="matrix(0.9921 0.1253 0.1253 -0.9921 54.8301 257.8058)">
		<stop  offset="0" style="stop-color:#F0DCD6"/>
		<stop  offset="0.4822" style="stop-color:#F0D9D3"/>
		<stop  offset="0.5716" style="stop-color:#EED2CC"/>
		<stop  offset="0.7047" style="stop-color:#E9C0B7"/>
		<stop  offset="0.8642" style="stop-color:#E1A297"/>
		<stop  offset="1" style="stop-color:#D98475"/>
	</linearGradient>
	<path class="st0" d="M166.5,57.9c16.8,2.1,30.4-10.6,46.3-27.1c9.1-9.4,15.6-16.8,22.9-19.9c-3-3-6.6-4.8-11.5-5.5
		c-13.9-1.8-20.7,9-32.7,25c-8.8,11.8-17.4,22-25.3,27.4"/>
</g>
<g>
	
		<linearGradient id="SVGID_2_" gradientUnits="userSpaceOnUse" x1="-67.8448" y1="726.6954" x2="-138.452" y2="714.2454" gradientTransform="matrix(0.9298 0.3681 0.3681 -0.9298 73.3883 744.9568)">
		<stop  offset="0" style="stop-color:#F0DCD6"/>
		<stop  offset="0.4822" style="stop-color:#F0D9D3"/>
		<stop  offset="0.5716" style="stop-color:#EED2CC"/>
		<stop  offset="0.7047" style="stop-color:#E9C0B7"/>
		<stop  offset="0.8642" style="stop-color:#E1A297"/>
		<stop  offset="1" style="stop-color:#D98475"/>
	</linearGradient>
	<path class="st1" d="M202.9,54.2c15.8,6.3,32.1-2.7,51.6-14.8c11.1-6.9,19.3-12.4,27.1-13.6c-2.2-3.6-5.2-6.3-9.8-8.1
		c-13.1-5.2-22.3,3.5-37.9,16.1c-11.5,9.2-22.3,17-31.3,20.3"/>
</g>
<g>
	
		<linearGradient id="SVGID_3_" gradientUnits="userSpaceOnUse" x1="-220.7898" y1="941.322" x2="-291.3633" y2="928.8779" gradientTransform="matrix(0.8763 0.4818 0.4818 -0.8763 36.6723 986.5052)">
		<stop  offset="0" style="stop-color:#F0DCD6"/>
		<stop  offset="0.4822" style="stop-color:#F0D9D3"/>
		<stop  offset="0.5716" style="stop-color:#EED2CC"/>
		<stop  offset="0.7047" style="stop-color:#E9C0B7"/>
		<stop  offset="0.8642" style="stop-color:#E1A297"/>
		<stop  offset="1" style="stop-color:#D98475"/>
	</linearGradient>
	<path class="st2" d="M221.2,55.7c14.9,8.2,32.2,1.3,53-8.2c11.9-5.4,20.7-9.9,28.6-10.1c-1.7-3.9-4.4-6.9-8.7-9.3
		c-12.3-6.8-22.6,0.7-39.6,11.3c-12.5,7.7-24.3,14.1-33.6,16.2"/>
</g>
<g>
	
		<linearGradient id="SVGID_4_" gradientUnits="userSpaceOnUse" x1="-399.3412" y1="1134.7988" x2="-469.9257" y2="1122.3529" gradientTransform="matrix(0.809 0.5878 0.5878 -0.809 -29.9212 1221.4064)">
		<stop  offset="0" style="stop-color:#F0DCD6"/>
		<stop  offset="0.4822" style="stop-color:#F0D9D3"/>
		<stop  offset="0.5716" style="stop-color:#EED2CC"/>
		<stop  offset="0.7047" style="stop-color:#E9C0B7"/>
		<stop  offset="0.8642" style="stop-color:#E1A297"/>
		<stop  offset="1" style="stop-color:#D98475"/>
	</linearGradient>
	<path class="st3" d="M239.1,59.6c13.7,10,31.8,5.3,53.6-1.5c12.5-3.9,21.8-7.2,29.6-6.4c-1.2-4-3.5-7.4-7.4-10.3
		c-11.4-8.3-22.5-2.1-40.7,6.2c-13.4,6.1-25.9,10.9-35.4,11.8"/>
</g>
<g>
	
		<linearGradient id="SVGID_5_" gradientUnits="userSpaceOnUse" x1="-600.691" y1="1304.4885" x2="-671.3221" y2="1292.0342" gradientTransform="matrix(0.729 0.6845 0.6845 -0.729 -125.3241 1446.0956)">
		<stop  offset="0" style="stop-color:#F0DCD6"/>
		<stop  offset="0.4822" style="stop-color:#F0D9D3"/>
		<stop  offset="0.5716" style="stop-color:#EED2CC"/>
		<stop  offset="0.7047" style="stop-color:#E9C0B7"/>
		<stop  offset="0.8642" style="stop-color:#E1A297"/>
		<stop  offset="1" style="stop-color:#D98475"/>
	</linearGradient>
	<path class="st4" d="M256.4,65.6c12.4,11.6,30.9,9.3,53.4,5.3c12.8-2.3,22.5-4.4,30.2-2.7c-0.7-4.2-2.5-7.8-6.1-11.2
		c-10.2-9.6-22-4.9-41.2,1c-14.1,4.4-27,7.6-36.6,7.3"/>
</g>
<g>
	
		<linearGradient id="SVGID_6_" gradientUnits="userSpaceOnUse" x1="-821.8632" y1="1447.6329" x2="-892.4925" y2="1435.1792" gradientTransform="matrix(0.6374 0.7705 0.7705 -0.6374 -248.3706 1657.1307)">
		<stop  offset="0" style="stop-color:#F0DCD6"/>
		<stop  offset="0.4822" style="stop-color:#F0D9D3"/>
		<stop  offset="0.5716" style="stop-color:#EED2CC"/>
		<stop  offset="0.7047" style="stop-color:#E9C0B7"/>
		<stop  offset="0.8642" style="stop-color:#E1A297"/>
		<stop  offset="1" style="stop-color:#D98475"/>
	</linearGradient>
	<path class="st5" d="M272.8,73.8c10.8,13.1,29.5,13.1,52.3,11.9c13-0.7,22.9-1.6,30.3,1.1c-0.2-4.2-1.5-8.1-4.6-11.8
		c-8.9-10.8-21.2-7.6-41-4.1c-14.5,2.6-27.8,4.1-37.2,2.7"/>
</g>
<g>
	
		<linearGradient id="SVGID_7_" gradientUnits="userSpaceOnUse" x1="-1059.1344" y1="1561.9019" x2="-1129.7649" y2="1549.4478" gradientTransform="matrix(0.5358 0.8443 0.8443 -0.5358 -396.7798 1851.0485)">
		<stop  offset="0" style="stop-color:#F0DCD6"/>
		<stop  offset="0.4822" style="stop-color:#F0D9D3"/>
		<stop  offset="0.5716" style="stop-color:#EED2CC"/>
		<stop  offset="0.7047" style="stop-color:#E9C0B7"/>
		<stop  offset="0.8642" style="stop-color:#E1A297"/>
		<stop  offset="1" style="stop-color:#D98475"/>
	</linearGradient>
	<path class="st6" d="M288,83.9c9.1,14.3,27.6,16.7,50.4,18.4c13,1,22.9,1.3,29.9,4.9c0.4-4.2-0.5-8.2-3.1-12.3
		c-7.5-11.9-20.1-10.2-40.1-9.2c-14.7,0.7-28.1,0.6-37.3-2"/>
</g>
<g>
	
		<linearGradient id="SVGID_8_" gradientUnits="userSpaceOnUse" x1="-1308.8613" y1="1645.4878" x2="-1379.5332" y2="1633.0264" gradientTransform="matrix(0.4258 0.9048 0.9048 -0.4258 -568.2547 2024.8922)">
		<stop  offset="0" style="stop-color:#F0DCD6"/>
		<stop  offset="0.4822" style="stop-color:#F0D9D3"/>
		<stop  offset="0.5716" style="stop-color:#EED2CC"/>
		<stop  offset="0.7047" style="stop-color:#E9C0B7"/>
		<stop  offset="0.8642" style="stop-color:#E1A297"/>
		<stop  offset="1" style="stop-color:#D98475"/>
	</linearGradient>
	<path class="st7" d="M301.9,95.9c7.2,15.4,25.3,20,47.7,24.6c12.8,2.6,22.6,4.2,29.1,8.6c0.9-4.1,0.5-8.2-1.6-12.6
		c-6-12.7-18.7-12.7-38.7-14.2c-14.7-1.1-27.9-2.9-36.7-6.7"/>
</g>
<g>
	
		<linearGradient id="SVGID_9_" gradientUnits="userSpaceOnUse" x1="-1567.1794" y1="1697.0875" x2="-1637.7726" y2="1684.64" gradientTransform="matrix(0.309 0.9511 0.9511 -0.309 -760.3421 2175.9236)">
		<stop  offset="0" style="stop-color:#F0DCD6"/>
		<stop  offset="0.4822" style="stop-color:#F0D9D3"/>
		<stop  offset="0.5716" style="stop-color:#EED2CC"/>
		<stop  offset="0.7047" style="stop-color:#E9C0B7"/>
		<stop  offset="0.8642" style="stop-color:#E1A297"/>
		<stop  offset="1" style="stop-color:#D98475"/>
	</linearGradient>
	<path class="st8" d="M314.1,109.6c5.2,16.1,22.6,23,44.3,30.3c12.4,4.2,21.9,7,27.8,12.2c1.4-4,1.6-8.1,0-12.7
		c-4.3-13.4-16.9-14.9-36.6-18.9c-14.4-2.9-27.3-6.4-35.6-11.2"/>
</g>
<g>
	
		<linearGradient id="SVGID_10_" gradientUnits="userSpaceOnUse" x1="-1829.8186" y1="1715.918" x2="-1900.4733" y2="1703.4596" gradientTransform="matrix(0.1874 0.9823 0.9823 -0.1874 -969.6523 2301.5852)">
		<stop  offset="0" style="stop-color:#F0DCD6"/>
		<stop  offset="0.4822" style="stop-color:#F0D9D3"/>
		<stop  offset="0.5716" style="stop-color:#EED2CC"/>
		<stop  offset="0.7047" style="stop-color:#E9C0B7"/>
		<stop  offset="0.8642" style="stop-color:#E1A297"/>
		<stop  offset="1" style="stop-color:#D98475"/>
	</linearGradient>
	<path class="st9" d="M324.5,124.6c3.2,16.7,19.5,25.7,40.1,35.7c11.7,5.7,20.8,9.7,26,15.6c1.9-3.8,2.5-7.8,1.6-12.6
		c-2.6-13.8-14.9-16.9-33.9-23.4c-13.9-4.7-26.3-9.8-33.9-15.6"/>
</g>
<g>
	
		<linearGradient id="SVGID_11_" gradientUnits="userSpaceOnUse" x1="-2092.8604" y1="1701.7812" x2="-2163.429" y2="1689.3381" gradientTransform="matrix(6.280000e-02 0.998 0.998 -6.280000e-02 -1193.1316 2399.9705)">
		<stop  offset="0" style="stop-color:#CC716A"/>
		<stop  offset="0.4822" style="stop-color:#C7505A"/>
		<stop  offset="0.7279" style="stop-color:#A23439"/>
		<stop  offset="1" style="stop-color:#7D1818"/>
	</linearGradient>
	<path class="st10" d="M333,140.9c1.1,16.9,16.2,27.9,35.3,40.4c10.9,7.1,19.5,12.2,23.8,18.7c2.3-3.5,3.5-7.4,3.2-12.3
		c-0.9-14-12.7-18.7-30.7-27.4c-13.2-6.4-24.9-13-31.7-19.7"/>
</g>
<g>
	
		<linearGradient id="SVGID_12_" gradientUnits="userSpaceOnUse" x1="-2842.3955" y1="1465.5918" x2="-2913.0337" y2="1453.1364" gradientTransform="matrix(-0.309 0.9511 0.9511 0.309 -1912.2196 2518.8076)">
		<stop  offset="0" style="stop-color:#F0DCD6"/>
		<stop  offset="0.4822" style="stop-color:#F0D9D3"/>
		<stop  offset="0.5716" style="stop-color:#EED2CC"/>
		<stop  offset="0.7047" style="stop-color:#E9C0B7"/>
		<stop  offset="0.8642" style="stop-color:#E1A297"/>
		<stop  offset="1" style="stop-color:#D98475"/>
	</linearGradient>
	<path class="st11" d="M345.4,194.1c-5.2,16.1,4.8,31.9,18,50.6c7.5,10.7,13.6,18.5,15.3,26.2c3.5-2.4,6-5.6,7.5-10.3
		c4.3-13.4-4.9-22-18.5-36.8c-9.9-10.9-18.4-21.2-22.2-30"/>
</g>
<g>
	
		<linearGradient id="SVGID_13_" gradientUnits="userSpaceOnUse" x1="-3066.2065" y1="1326.389" x2="-3136.7888" y2="1313.9435" gradientTransform="matrix(-0.4258 0.9048 0.9048 0.4258 -2155.5125 2497.2805)">
		<stop  offset="0" style="stop-color:#CC716A"/>
		<stop  offset="0.4822" style="stop-color:#C7505A"/>
		<stop  offset="0.7279" style="stop-color:#A23439"/>
		<stop  offset="1" style="stop-color:#7D1818"/>
	</linearGradient>
	<path class="st12" d="M345,212.4c-7.2,15.4,0.7,32.2,11.5,52.4c6.1,11.5,11.2,20.1,11.9,27.9c3.7-1.9,6.7-4.8,8.7-9.2
		c6-12.7-2.1-22.5-13.7-38.8c-8.5-12-15.6-23.4-18.3-32.6"/>
</g>
<g>
	
		<linearGradient id="SVGID_14_" gradientUnits="userSpaceOnUse" x1="-3270.6289" y1="1160.3381" x2="-3341.2712" y2="1147.882" gradientTransform="matrix(-0.5358 0.8443 0.8443 0.5358 -2394.1116 2445.5967)">
		<stop  offset="0" style="stop-color:#CC716A"/>
		<stop  offset="0.4822" style="stop-color:#C7505A"/>
		<stop  offset="0.7279" style="stop-color:#A23439"/>
		<stop  offset="1" style="stop-color:#7D1818"/>
	</linearGradient>
	<path class="st13" d="M342.3,230.5c-9.1,14.3-3.3,32.1,4.8,53.4c4.7,12.2,8.6,21.3,8.3,29.2c4-1.5,7.2-3.9,9.8-8.1
		c7.5-11.9,0.7-22.6-8.7-40.2c-6.9-13-12.5-25.1-14-34.6"/>
</g>
<g>
	
		<linearGradient id="SVGID_15_" gradientUnits="userSpaceOnUse" x1="-3452.5547" y1="970.0067" x2="-3523.2317" y2="957.5444" gradientTransform="matrix(-0.6374 0.7705 0.7705 0.6374 -2624.4385 2364.4004)">
		<stop  offset="0" style="stop-color:#F0DCD6"/>
		<stop  offset="0.4822" style="stop-color:#F0D9D3"/>
		<stop  offset="0.5716" style="stop-color:#EED2CC"/>
		<stop  offset="0.7047" style="stop-color:#E9C0B7"/>
		<stop  offset="0.8642" style="stop-color:#E1A297"/>
		<stop  offset="1" style="stop-color:#D98475"/>
	</linearGradient>
	<path class="st14" d="M337.3,248.2c-10.8,13.1-7.3,31.4-1.9,53.6c3.1,12.7,5.8,22.2,4.6,30c4.1-0.9,7.6-3,10.8-6.8
		c8.9-10.8,3.5-22.3-3.6-41c-5.3-13.8-9.3-26.5-9.6-36.1"/>
</g>
<g>
	
		<linearGradient id="SVGID_16_" gradientUnits="userSpaceOnUse" x1="-3609.2812" y1="758.1161" x2="-3679.9231" y2="745.6601" gradientTransform="matrix(-0.729 0.6845 0.6845 0.729 -2842.8247 2254.8674)">
		<stop  offset="0" style="stop-color:#CC716A"/>
		<stop  offset="0.4822" style="stop-color:#C7505A"/>
		<stop  offset="0.7279" style="stop-color:#A23439"/>
		<stop  offset="1" style="stop-color:#7D1818"/>
	</linearGradient>
	<path class="st15" d="M330.2,265c-12.4,11.6-11.2,30.2-8.6,53c1.5,13,3,22.8,0.8,30.3c4.2-0.4,8-2,11.5-5.4
		c10.2-9.6,6.3-21.7,1.5-41.2c-3.5-14.3-5.9-27.4-5-37"/>
</g>
<g>
	
		<linearGradient id="SVGID_17_" gradientUnits="userSpaceOnUse" x1="-3738.1125" y1="528.6755" x2="-3808.7178" y2="516.2261" gradientTransform="matrix(-0.809 0.5878 0.5878 0.809 -3045.6646 2119.0544)">
		<stop  offset="0" style="stop-color:#F0DCD6"/>
		<stop  offset="0.4822" style="stop-color:#F0D9D3"/>
		<stop  offset="0.5716" style="stop-color:#EED2CC"/>
		<stop  offset="0.7047" style="stop-color:#E9C0B7"/>
		<stop  offset="0.8642" style="stop-color:#E1A297"/>
		<stop  offset="1" style="stop-color:#D98475"/>
	</linearGradient>
	<path class="st16" d="M321,280.9c-13.7,10-14.9,28.6-15.2,51.5c-0.2,13,0.1,23-3,30.2c4.2,0.1,8.1-1,12.1-3.9
		c11.4-8.3,9-20.7,6.7-40.6c-1.7-14.6-2.4-28-0.3-37.3"/>
</g>
<g>
	
		<linearGradient id="SVGID_18_" gradientUnits="userSpaceOnUse" x1="-3837.2595" y1="284.7594" x2="-3907.8987" y2="272.3038" gradientTransform="matrix(-0.8763 0.4818 0.4818 0.8763 -3229.9424 1958.8004)">
		<stop  offset="0" style="stop-color:#F0DCD6"/>
		<stop  offset="0.4822" style="stop-color:#F0D9D3"/>
		<stop  offset="0.5716" style="stop-color:#EED2CC"/>
		<stop  offset="0.7047" style="stop-color:#E9C0B7"/>
		<stop  offset="0.8642" style="stop-color:#E1A297"/>
		<stop  offset="1" style="stop-color:#D98475"/>
	</linearGradient>
	<path class="st17" d="M309.9,295.5c-14.9,8.2-18.4,26.5-21.5,49.2c-1.8,12.9-2.8,22.8-6.8,29.6c4.2,0.6,8.2,0,12.5-2.3
		c12.3-6.8,11.5-19.4,11.7-39.5c0.2-14.7,1.1-28,4.4-37.1"/>
</g>
<g>
	
		<linearGradient id="SVGID_19_" gradientUnits="userSpaceOnUse" x1="-3904.9395" y1="29.9924" x2="-3975.6099" y2="17.5313" gradientTransform="matrix(-0.9298 0.3681 0.3681 0.9298 -3392.6448 1776.5409)">
		<stop  offset="0" style="stop-color:#CC716A"/>
		<stop  offset="0.4822" style="stop-color:#C7505A"/>
		<stop  offset="0.7279" style="stop-color:#A23439"/>
		<stop  offset="1" style="stop-color:#7D1818"/>
	</linearGradient>
	<path class="st18" d="M297.1,308.5c-15.8,6.2-21.5,24-27.5,46.1c-3.4,12.6-5.6,22.3-10.5,28.5c4.1,1.2,8.1,1,12.7-0.8
		c13.1-5.2,13.8-17.8,16.6-37.7c2-14.6,4.7-27.7,9-36.2"/>
</g>
<g>
	
		<linearGradient id="SVGID_20_" gradientUnits="userSpaceOnUse" x1="-3940.3013" y1="-230.8922" x2="-4010.9143" y2="-243.3431" gradientTransform="matrix(-0.9686 0.2487 0.2487 0.9686 -3531.2441 1575.5192)">
		<stop  offset="0" style="stop-color:#CC716A"/>
		<stop  offset="0.4822" style="stop-color:#C7505A"/>
		<stop  offset="0.7279" style="stop-color:#A23439"/>
		<stop  offset="1" style="stop-color:#7D1818"/>
	</linearGradient>
	<path class="st19" d="M282.7,319.9c-16.4,4.2-24.4,21.1-33.1,42.3c-5,12.1-8.3,21.4-13.9,26.9c3.9,1.6,8,2.1,12.7,0.8
		c13.6-3.5,16-16,21.2-35.3c3.8-14.2,8.1-26.9,13.4-34.8"/>
</g>
<g>
	
		<linearGradient id="SVGID_21_" gradientUnits="userSpaceOnUse" x1="-3942.7634" y1="-494.3136" x2="-4013.3875" y2="-506.7665" gradientTransform="matrix(-0.9921 0.1253 0.1253 0.9921 -3643.4597 1358.603)">
		<stop  offset="0" style="stop-color:#CC716A"/>
		<stop  offset="0.4822" style="stop-color:#C7505A"/>
		<stop  offset="0.7279" style="stop-color:#A23439"/>
		<stop  offset="1" style="stop-color:#7D1818"/>
	</linearGradient>
	<path class="st20" d="M267.1,329.4c-16.8,2.1-26.8,17.9-38.1,37.8c-6.4,11.4-11,20.2-17.2,25c3.6,2.1,7.6,3,12.5,2.4
		c13.9-1.8,17.8-13.8,25.4-32.4c5.6-13.6,11.4-25.6,17.7-32.9"/>
</g>
<g>
	
		<linearGradient id="SVGID_22_" gradientUnits="userSpaceOnUse" x1="-3848.8252" y1="-1011.4133" x2="-3919.4465" y2="-1023.8658" gradientTransform="matrix(-0.9921 -0.1253 -0.1253 0.9921 -3782.5618 891.5018)">
		<stop  offset="0" style="stop-color:#CC716A"/>
		<stop  offset="0.4822" style="stop-color:#C7505A"/>
		<stop  offset="0.7279" style="stop-color:#A23439"/>
		<stop  offset="1" style="stop-color:#7D1818"/>
	</linearGradient>
	<path class="st21" d="M232.8,342.1c-16.8-2.1-30.4,10.6-46.3,27.1c-9.1,9.4-15.6,16.8-22.9,19.9c3,3,6.6,4.8,11.5,5.5
		c13.9,1.8,20.7-9,32.7-25c8.8-11.8,17.4-22,25.3-27.4"/>
</g>
<g>
	
		<linearGradient id="SVGID_23_" gradientUnits="userSpaceOnUse" x1="-3476.2625" y1="-1703.6266" x2="-3546.8359" y2="-1716.0707" gradientTransform="matrix(-0.8763 -0.4818 -0.4818 0.8763 -3764.4041 162.8022)">
		<stop  offset="0" style="stop-color:#F0DCD6"/>
		<stop  offset="0.4822" style="stop-color:#F0D9D3"/>
		<stop  offset="0.5716" style="stop-color:#EED2CC"/>
		<stop  offset="0.7047" style="stop-color:#E9C0B7"/>
		<stop  offset="0.8642" style="stop-color:#E1A297"/>
		<stop  offset="1" style="stop-color:#D98475"/>
	</linearGradient>
	<path class="st22" d="M178.1,344.3c-14.9-8.2-32.2-1.3-53,8.2c-11.9,5.4-20.7,9.9-28.6,10.1c1.7,3.9,4.4,6.9,8.7,9.3
		c12.3,6.8,22.6-0.7,39.6-11.3c12.5-7.7,24.3-14.1,33.6-16.2"/>
</g>
<g>
	
		<linearGradient id="SVGID_24_" gradientUnits="userSpaceOnUse" x1="-3297.6963" y1="-1897.2908" x2="-3368.2808" y2="-1909.7368" gradientTransform="matrix(-0.809 -0.5878 -0.5878 0.809 -3697.8105 -72.0989)">
		<stop  offset="0" style="stop-color:#F0DCD6"/>
		<stop  offset="0.4822" style="stop-color:#F0D9D3"/>
		<stop  offset="0.5716" style="stop-color:#EED2CC"/>
		<stop  offset="0.7047" style="stop-color:#E9C0B7"/>
		<stop  offset="0.8642" style="stop-color:#E1A297"/>
		<stop  offset="1" style="stop-color:#D98475"/>
	</linearGradient>
	<path class="st23" d="M160.2,340.4c-13.7-10-31.8-5.3-53.6,1.5c-12.5,3.9-21.8,7.2-29.6,6.4c1.2,4,3.5,7.4,7.4,10.3
		c11.4,8.3,22.5,2.1,40.7-6.2c13.4-6.1,25.9-10.9,35.4-11.8"/>
</g>
<g>
	
		<linearGradient id="SVGID_25_" gradientUnits="userSpaceOnUse" x1="-3096.3389" y1="-2066.7549" x2="-3166.97" y2="-2079.209" gradientTransform="matrix(-0.729 -0.6845 -0.6845 0.729 -3602.4075 -296.788)">
		<stop  offset="0" style="stop-color:#F0DCD6"/>
		<stop  offset="0.4822" style="stop-color:#F0D9D3"/>
		<stop  offset="0.5716" style="stop-color:#EED2CC"/>
		<stop  offset="0.7047" style="stop-color:#E9C0B7"/>
		<stop  offset="0.8642" style="stop-color:#E1A297"/>
		<stop  offset="1" style="stop-color:#D98475"/>
	</linearGradient>
	<path class="st24" d="M142.9,334.4c-12.4-11.6-30.9-9.3-53.4-5.3c-12.8,2.3-22.5,4.4-30.2,2.7c0.7,4.2,2.5,7.8,6.1,11.2
		c10.2,9.6,22,4.9,41.2-1c14.1-4.4,27-7.6,36.6-7.3"/>
</g>
<g>
	
		<linearGradient id="SVGID_26_" gradientUnits="userSpaceOnUse" x1="-2875.1965" y1="-2210.0398" x2="-2945.8259" y2="-2222.4937" gradientTransform="matrix(-0.6374 -0.7705 -0.7705 0.6374 -3479.3611 -507.8235)">
		<stop  offset="0" style="stop-color:#F0DCD6"/>
		<stop  offset="0.4822" style="stop-color:#F0D9D3"/>
		<stop  offset="0.5716" style="stop-color:#EED2CC"/>
		<stop  offset="0.7047" style="stop-color:#E9C0B7"/>
		<stop  offset="0.8642" style="stop-color:#E1A297"/>
		<stop  offset="1" style="stop-color:#D98475"/>
	</linearGradient>
	<path class="st25" d="M126.5,326.2c-10.8-13.1-29.5-13.1-52.3-11.9c-13,0.7-22.9,1.6-30.3-1.1c0.2,4.2,1.5,8.1,4.6,11.8
		c8.9,10.8,21.2,7.6,41,4.1c14.5-2.6,27.8-4.1,37.2-2.7"/>
</g>
<g>
	
		<linearGradient id="SVGID_27_" gradientUnits="userSpaceOnUse" x1="-2637.8848" y1="-2324.3262" x2="-2708.5151" y2="-2336.7803" gradientTransform="matrix(-0.5358 -0.8443 -0.8443 0.5358 -3330.9517 -701.7409)">
		<stop  offset="0" style="stop-color:#F0DCD6"/>
		<stop  offset="0.4822" style="stop-color:#F0D9D3"/>
		<stop  offset="0.5716" style="stop-color:#EED2CC"/>
		<stop  offset="0.7047" style="stop-color:#E9C0B7"/>
		<stop  offset="0.8642" style="stop-color:#E1A297"/>
		<stop  offset="1" style="stop-color:#D98475"/>
	</linearGradient>
	<path class="st26" d="M111.3,316.1c-9.1-14.3-27.6-16.7-50.4-18.4c-13-1-22.9-1.3-29.9-4.9c-0.4,4.2,0.5,8.2,3.1,12.3
		c7.5,11.9,20.1,10.2,40.1,9.2c14.7-0.7,28.1-0.6,37.3,2"/>
</g>
<g>
	
		<linearGradient id="SVGID_28_" gradientUnits="userSpaceOnUse" x1="-2388.2544" y1="-2407.9231" x2="-2458.9263" y2="-2420.3845" gradientTransform="matrix(-0.4258 -0.9048 -0.9048 0.4258 -3159.4771 -875.5846)">
		<stop  offset="0" style="stop-color:#CC716A"/>
		<stop  offset="0.4822" style="stop-color:#C7505A"/>
		<stop  offset="0.7279" style="stop-color:#A23439"/>
		<stop  offset="1" style="stop-color:#7D1818"/>
	</linearGradient>
	<path class="st27" d="M97.5,304.1c-7.2-15.4-25.3-20-47.7-24.6c-12.8-2.6-22.6-4.2-29.1-8.6c-0.9,4.1-0.5,8.2,1.6,12.6
		c6,12.7,18.7,12.7,38.7,14.2c14.7,1.1,27.9,2.9,36.7,6.7"/>
</g>
<g>
	
		<linearGradient id="SVGID_29_" gradientUnits="userSpaceOnUse" x1="-2129.7251" y1="-2459.3682" x2="-2200.3184" y2="-2471.8157" gradientTransform="matrix(-0.309 -0.9511 -0.9511 0.309 -2967.3894 -1026.6161)">
		<stop  offset="0" style="stop-color:#CC716A"/>
		<stop  offset="0.4822" style="stop-color:#C7505A"/>
		<stop  offset="0.7279" style="stop-color:#A23439"/>
		<stop  offset="1" style="stop-color:#7D1818"/>
	</linearGradient>
	<path class="st28" d="M85.2,290.4c-5.2-16.1-22.6-23-44.3-30.3c-12.4-4.2-21.9-7-27.8-12.2c-1.4,4-1.6,8.1,0,12.7
		c4.3,13.4,16.9,14.9,36.6,18.9c14.4,2.9,27.3,6.4,35.6,11.2"/>
</g>
<g>
	
		<linearGradient id="SVGID_30_" gradientUnits="userSpaceOnUse" x1="-1867.1783" y1="-2478.3508" x2="-1937.833" y2="-2490.8093" gradientTransform="matrix(-0.1874 -0.9823 -0.9823 0.1874 -2758.0791 -1152.2776)">
		<stop  offset="0" style="stop-color:#F0DCD6"/>
		<stop  offset="0.4822" style="stop-color:#F0D9D3"/>
		<stop  offset="0.5716" style="stop-color:#EED2CC"/>
		<stop  offset="0.7047" style="stop-color:#E9C0B7"/>
		<stop  offset="0.8642" style="stop-color:#E1A297"/>
		<stop  offset="1" style="stop-color:#D98475"/>
	</linearGradient>
	<path class="st29" d="M74.8,275.4c-3.2-16.7-19.5-25.7-40.1-35.7C23,234,13.9,230,8.7,224.1c-1.9,3.8-2.5,7.8-1.6,12.6
		C9.7,250.5,22,253.6,41,260.1c13.9,4.7,26.3,9.8,33.9,15.6"/>
</g>
<g>
	
		<linearGradient id="SVGID_31_" gradientUnits="userSpaceOnUse" x1="-1604.2036" y1="-2464.27" x2="-1674.7721" y2="-2476.7131" gradientTransform="matrix(-6.280000e-02 -0.998 -0.998 6.280000e-02 -2534.6001 -1250.663)">
		<stop  offset="0" style="stop-color:#F0DCD6"/>
		<stop  offset="0.4822" style="stop-color:#F0D9D3"/>
		<stop  offset="0.5716" style="stop-color:#EED2CC"/>
		<stop  offset="0.7047" style="stop-color:#E9C0B7"/>
		<stop  offset="0.8642" style="stop-color:#E1A297"/>
		<stop  offset="1" style="stop-color:#D98475"/>
	</linearGradient>
	<path class="st30" d="M66.3,259.1c-1.1-16.9-16.2-27.9-35.3-40.4c-10.9-7.1-19.5-12.2-23.8-18.7c-2.3,3.5-3.5,7.4-3.2,12.3
		c0.9,14,12.7,18.7,30.7,27.4c13.2,6.4,24.9,13,31.7,19.7"/>
</g>
<g>
	
		<linearGradient id="SVGID_32_" gradientUnits="userSpaceOnUse" x1="-1345.0035" y1="-2417.2476" x2="-1415.6201" y2="-2429.6992" gradientTransform="matrix(6.280000e-02 -0.998 -0.998 -6.280000e-02 -2300.5032 -1320.319)">
		<stop  offset="0" style="stop-color:#F0DCD6"/>
		<stop  offset="0.4822" style="stop-color:#F0D9D3"/>
		<stop  offset="0.5716" style="stop-color:#EED2CC"/>
		<stop  offset="0.7047" style="stop-color:#E9C0B7"/>
		<stop  offset="0.8642" style="stop-color:#E1A297"/>
		<stop  offset="1" style="stop-color:#D98475"/>
	</linearGradient>
	<path class="st31" d="M60,242c1.1-16.9-12.5-29.7-30-44.5c-10-8.4-17.8-14.5-21.3-21.6c-2.8,3.2-4.4,6.9-4.7,11.8
		c-0.9,14,10.3,20.1,27,31.1c12.3,8,23.1,16,29,23.5"/>
</g>
<g>
	
		<linearGradient id="SVGID_33_" gradientUnits="userSpaceOnUse" x1="-1093.761" y1="-2337.8921" x2="-1164.3873" y2="-2350.3457" gradientTransform="matrix(0.1874 -0.9823 -0.9823 -0.1874 -2059.5117 -1360.1592)">
		<stop  offset="0" style="stop-color:#CC716A"/>
		<stop  offset="0.4822" style="stop-color:#C7505A"/>
		<stop  offset="0.7279" style="stop-color:#A23439"/>
		<stop  offset="1" style="stop-color:#7D1818"/>
	</linearGradient>
	<path class="st32" d="M55.8,224.1c3.2-16.7-8.7-31-24.2-47.9c-8.8-9.6-15.8-16.7-18.4-24.1c-3.1,2.8-5.2,6.3-6.2,11.1
		c-2.6,13.8,7.7,21.3,23,34.3c11.2,9.5,20.9,18.8,25.8,27"/>
</g>
<g>
	
		<linearGradient id="SVGID_34_" gradientUnits="userSpaceOnUse" x1="-854.6199" y1="-2227.8254" x2="-925.2581" y2="-2240.2808" gradientTransform="matrix(0.309 -0.9511 -0.9511 -0.309 -1815.5121 -1369.5001)">
		<stop  offset="0" style="stop-color:#CC716A"/>
		<stop  offset="0.4822" style="stop-color:#C7505A"/>
		<stop  offset="0.7279" style="stop-color:#A23439"/>
		<stop  offset="1" style="stop-color:#7D1818"/>
	</linearGradient>
	<path class="st33" d="M53.9,205.9c5.2-16.1-4.8-31.9-18-50.6c-7.5-10.7-13.6-18.5-15.3-26.2c-3.5,2.4-6,5.6-7.5,10.3
		c-4.3,13.4,4.9,22,18.5,36.8c9.9,10.9,18.4,21.2,22.2,30"/>
</g>
<g>
	
		<linearGradient id="SVGID_35_" gradientUnits="userSpaceOnUse" x1="-630.8668" y1="-2088.801" x2="-701.449" y2="-2101.2466" gradientTransform="matrix(0.4258 -0.9048 -0.9048 -0.4258 -1572.2192 -1347.9729)">
		<stop  offset="0" style="stop-color:#F0DCD6"/>
		<stop  offset="0.4822" style="stop-color:#F0D9D3"/>
		<stop  offset="0.5716" style="stop-color:#EED2CC"/>
		<stop  offset="0.7047" style="stop-color:#E9C0B7"/>
		<stop  offset="0.8642" style="stop-color:#E1A297"/>
		<stop  offset="1" style="stop-color:#D98475"/>
	</linearGradient>
	<path class="st34" d="M54.3,187.6c7.2-15.4-0.7-32.2-11.5-52.4c-6.1-11.5-11.2-20.1-11.9-27.9c-3.7,1.9-6.7,4.8-8.7,9.2
		c-6,12.7,2.1,22.5,13.7,38.8c8.5,12,15.6,23.4,18.3,32.6"/>
</g>
<g>
	
		<linearGradient id="SVGID_36_" gradientUnits="userSpaceOnUse" x1="-426.5091" y1="-1922.8696" x2="-497.1516" y2="-1935.3259" gradientTransform="matrix(0.5358 -0.8443 -0.8443 -0.5358 -1333.62 -1296.2891)">
		<stop  offset="0" style="stop-color:#F0DCD6"/>
		<stop  offset="0.4822" style="stop-color:#F0D9D3"/>
		<stop  offset="0.5716" style="stop-color:#EED2CC"/>
		<stop  offset="0.7047" style="stop-color:#E9C0B7"/>
		<stop  offset="0.8642" style="stop-color:#E1A297"/>
		<stop  offset="1" style="stop-color:#D98475"/>
	</linearGradient>
	<path class="st35" d="M57,169.5c9.1-14.3,3.3-32.1-4.8-53.4c-4.7-12.2-8.6-21.3-8.3-29.2c-4,1.5-7.2,3.9-9.8,8.1
		c-7.5,11.9-0.7,22.6,8.7,40.2c6.9,13,12.5,25.1,14,34.6"/>
</g>
<g>
	
		<linearGradient id="SVGID_37_" gradientUnits="userSpaceOnUse" x1="-244.4799" y1="-1732.4005" x2="-315.157" y2="-1744.8627" gradientTransform="matrix(0.6374 -0.7705 -0.7705 -0.6374 -1103.293 -1215.093)">
		<stop  offset="0" style="stop-color:#F0DCD6"/>
		<stop  offset="0.4822" style="stop-color:#F0D9D3"/>
		<stop  offset="0.5716" style="stop-color:#EED2CC"/>
		<stop  offset="0.7047" style="stop-color:#E9C0B7"/>
		<stop  offset="0.8642" style="stop-color:#E1A297"/>
		<stop  offset="1" style="stop-color:#D98475"/>
	</linearGradient>
	<path class="st36" d="M62,151.8c10.8-13.1,7.3-31.4,1.9-53.6c-3.1-12.7-5.8-22.2-4.6-30c-4.1,0.9-7.6,3-10.8,6.8
		c-8.9,10.8-3.5,22.3,3.6,41c5.3,13.8,9.3,26.5,9.6,36.1"/>
</g>
<g>
	
		<linearGradient id="SVGID_38_" gradientUnits="userSpaceOnUse" x1="-87.7083" y1="-1520.6346" x2="-158.3501" y2="-1533.0907" gradientTransform="matrix(0.729 -0.6845 -0.6845 -0.729 -884.9067 -1105.5602)">
		<stop  offset="0" style="stop-color:#F0DCD6"/>
		<stop  offset="0.4822" style="stop-color:#F0D9D3"/>
		<stop  offset="0.5716" style="stop-color:#EED2CC"/>
		<stop  offset="0.7047" style="stop-color:#E9C0B7"/>
		<stop  offset="0.8642" style="stop-color:#E1A297"/>
		<stop  offset="1" style="stop-color:#D98475"/>
	</linearGradient>
	<path class="st37" d="M69.1,135c12.4-11.6,11.2-30.2,8.6-53c-1.5-13-3-22.8-0.8-30.3c-4.2,0.4-8,2-11.5,5.4
		c-10.2,9.6-6.3,21.7-1.5,41.2c3.5,14.3,5.9,27.4,5,37"/>
</g>
<g>
	
		<linearGradient id="SVGID_39_" gradientUnits="userSpaceOnUse" x1="41.1373" y1="-1291.0223" x2="-29.468" y2="-1303.472" gradientTransform="matrix(0.809 -0.5878 -0.5878 -0.809 -682.067 -969.747)">
		<stop  offset="0" style="stop-color:#F0DCD6"/>
		<stop  offset="0.4822" style="stop-color:#F0D9D3"/>
		<stop  offset="0.5716" style="stop-color:#EED2CC"/>
		<stop  offset="0.7047" style="stop-color:#E9C0B7"/>
		<stop  offset="0.8642" style="stop-color:#E1A297"/>
		<stop  offset="1" style="stop-color:#D98475"/>
	</linearGradient>
	<path class="st38" d="M78.3,119.1c13.7-10,14.9-28.6,15.2-51.5c0.2-13-0.1-23,3-30.2c-4.2-0.1-8.1,1-12.1,3.9
		c-11.4,8.3-9,20.7-6.7,40.6c1.7,14.6,2.4,28,0.3,37.3"/>
</g>
<g>
	
		<linearGradient id="SVGID_40_" gradientUnits="userSpaceOnUse" x1="140.1522" y1="-1046.981" x2="69.513" y2="-1059.4366" gradientTransform="matrix(0.8763 -0.4818 -0.4818 -0.8763 -497.7894 -809.4928)">
		<stop  offset="0" style="stop-color:#F0DCD6"/>
		<stop  offset="0.4822" style="stop-color:#F0D9D3"/>
		<stop  offset="0.5716" style="stop-color:#EED2CC"/>
		<stop  offset="0.7047" style="stop-color:#E9C0B7"/>
		<stop  offset="0.8642" style="stop-color:#E1A297"/>
		<stop  offset="1" style="stop-color:#D98475"/>
	</linearGradient>
	<path class="st39" d="M89.4,104.5c14.9-8.2,18.4-26.5,21.5-49.2c1.8-12.9,2.8-22.8,6.8-29.6c-4.2-0.6-8.2,0-12.5,2.3
		c-12.3,6.8-11.5,19.4-11.7,39.5c-0.2,14.7-1.1,28-4.4,37.1"/>
</g>
<g>
	
		<linearGradient id="SVGID_41_" gradientUnits="userSpaceOnUse" x1="208.0893" y1="-792.4406" x2="137.4189" y2="-804.9017" gradientTransform="matrix(0.9298 -0.3681 -0.3681 -0.9298 -335.0868 -627.2332)">
		<stop  offset="0" style="stop-color:#F0DCD6"/>
		<stop  offset="0.4822" style="stop-color:#F0D9D3"/>
		<stop  offset="0.5716" style="stop-color:#EED2CC"/>
		<stop  offset="0.7047" style="stop-color:#E9C0B7"/>
		<stop  offset="0.8642" style="stop-color:#E1A297"/>
		<stop  offset="1" style="stop-color:#D98475"/>
	</linearGradient>
	<path class="st40" d="M102.2,91.5c15.8-6.2,21.5-24,27.5-46.1c3.4-12.6,5.6-22.3,10.5-28.5c-4.1-1.2-8.1-1-12.7,0.8
		c-13.1,5.2-13.8,17.8-16.6,37.7c-2,14.6-4.7,27.7-9,36.2"/>
</g>
<g>
	
		<linearGradient id="SVGID_42_" gradientUnits="userSpaceOnUse" x1="243.3188" y1="-531.4768" x2="172.7057" y2="-543.9277" gradientTransform="matrix(0.9686 -0.2487 -0.2487 -0.9686 -196.4875 -426.2118)">
		<stop  offset="0" style="stop-color:#F0DCD6"/>
		<stop  offset="0.4822" style="stop-color:#F0D9D3"/>
		<stop  offset="0.5716" style="stop-color:#EED2CC"/>
		<stop  offset="0.7047" style="stop-color:#E9C0B7"/>
		<stop  offset="0.8642" style="stop-color:#E1A297"/>
		<stop  offset="1" style="stop-color:#D98475"/>
	</linearGradient>
	<path class="st41" d="M116.6,80.1c16.4-4.2,24.4-21.1,33-42.3c5-12.1,8.3-21.4,13.9-26.9c-3.9-1.6-8-2.1-12.7-0.8
		c-13.6,3.5-16,16-21.2,35.3c-3.8,14.2-8.1,26.9-13.4,34.8"/>
</g>
<g>
	
		<linearGradient id="SVGID_43_" gradientUnits="userSpaceOnUse" x1="245.8093" y1="-268.0467" x2="175.1853" y2="-280.4998" gradientTransform="matrix(0.9921 -0.1253 -0.1253 -0.9921 -84.2719 -209.2955)">
		<stop  offset="0" style="stop-color:#F0DCD6"/>
		<stop  offset="0.4822" style="stop-color:#F0D9D3"/>
		<stop  offset="0.5716" style="stop-color:#EED2CC"/>
		<stop  offset="0.7047" style="stop-color:#E9C0B7"/>
		<stop  offset="0.8642" style="stop-color:#E1A297"/>
		<stop  offset="1" style="stop-color:#D98475"/>
	</linearGradient>
	<path class="st42" d="M132.3,70.6c16.8-2.1,26.8-17.9,38.1-37.8c6.4-11.4,11-20.2,17.2-25c-3.6-2.1-7.6-3-12.5-2.4
		c-13.9,1.8-17.8,13.8-25.4,32.4c-5.6,13.6-11.4,25.6-17.7,32.9"/>
</g>
<path class="st43" d="M202.4,66.1l-2.3-2.3v6.4h-0.8v-6.4l-2.3,2.3l-0.6-0.6l3.4-3.4l3.4,3.4L202.4,66.1z"/>
<path class="st43" d="M175.7,82.6v1h-5.5v-7.8h5.5v0.9h-4.5v2.5h3.9v0.9h-3.9v2.5H175.7z"/>
<path class="st43" d="M180.5,83.6l-0.1-1c-0.3,0.7-1,1.1-1.9,1.1c-1.2,0-2.1-0.7-2.1-1.8c0-0.9,0.6-1.5,1.5-1.6L180,80
	c0.2,0,0.4-0.1,0.4-0.3v-0.1c0-0.8-0.6-1.3-1.4-1.3s-1.4,0.6-1.4,1.4l-1.1-0.1c0.1-1.3,1.2-2.1,2.5-2.1s2.3,0.9,2.3,2.1v2.8v1.2
	H180.5L180.5,83.6z M180.4,81.1v-0.4c0,0-0.2,0.1-0.4,0.1l-1.8,0.2c-0.5,0.1-0.8,0.4-0.8,0.8c0,0.5,0.5,0.9,1.2,0.9
	C179.7,82.7,180.4,82,180.4,81.1z"/>
<path class="st43" d="M185.6,83.7c-1.8,0-3-1.3-3-3.1c0-1.8,1.3-3.1,3-3.1c1.3,0,2.4,0.9,2.6,2.1l-1,0.4c-0.1-0.9-0.8-1.5-1.6-1.5
	c-1.1,0-1.9,0.9-1.9,2.2c0,1.3,0.8,2.2,2,2.2c0.9,0,1.6-0.7,1.7-1.6l1.1,0.3C188.1,82.8,186.9,83.7,185.6,83.7z"/>
<path class="st43" d="M194.7,79.9v3.6h-1V80c0-0.9-0.6-1.6-1.5-1.6c-1.1,0-1.8,0.8-1.9,1.9v3.3h-1v-8.2h1v3.1c0.3-0.6,1.1-1,2-1
	C193.7,77.4,194.7,78.5,194.7,79.9z"/>
<path class="st43" d="M199.2,81.5c0,0.8,0.7,1.3,1.6,1.3c0.7,0,1.2-0.4,1.2-0.9c0-0.4-0.2-0.7-0.8-0.9l-1-0.2
	c-1-0.2-1.7-0.8-1.7-1.7c0-1,1-1.8,2.1-1.8c1.2,0,2.1,0.6,2.2,1.6l-1,0.3c0-0.6-0.5-1-1.2-1c-0.6,0-1.1,0.4-1.1,0.8s0.3,0.7,0.9,0.8
	l0.9,0.2c1,0.2,1.7,0.7,1.7,1.7s-0.9,1.8-2.2,1.8s-2.4-0.7-2.5-1.9L199.2,81.5z"/>
<path class="st43" d="M209.4,79.9v3.6h-1V80c0-0.9-0.6-1.6-1.5-1.6c-1.1,0-1.8,0.8-1.9,1.9v3.3h-1v-8.2h1v3.1c0.3-0.6,1.1-1,2-1
	C208.5,77.4,209.4,78.5,209.4,79.9z"/>
<path class="st43" d="M214.7,83.6l-0.1-1c-0.3,0.7-1,1.1-1.9,1.1c-1.2,0-2.1-0.7-2.1-1.8c0-0.9,0.6-1.5,1.5-1.6l2.1-0.2
	c0.2,0,0.4-0.1,0.4-0.3v-0.1c0-0.8-0.6-1.3-1.4-1.3c-0.8,0-1.4,0.6-1.4,1.4l-1.1-0.1c0.1-1.3,1.2-2.1,2.5-2.1s2.3,0.9,2.3,2.1v2.8
	v1.2L214.7,83.6L214.7,83.6z M214.6,81.1v-0.4c0,0-0.2,0.1-0.4,0.1l-1.8,0.2c-0.5,0.1-0.8,0.4-0.8,0.8c0,0.5,0.5,0.9,1.2,0.9
	C213.8,82.7,214.6,82,214.6,81.1z"/>
<path class="st43" d="M222.9,80.5c0,1.8-1.2,3.1-2.9,3.1c-0.9,0-1.6-0.4-2.1-1.2V86h-1v-8.4h0.8l0.1,1.1c0.5-0.7,1.2-1.2,2.1-1.2
	C221.7,77.4,222.9,78.7,222.9,80.5z M221.9,80.5c0-1.3-0.8-2.2-2-2.2s-2,0.9-2,2.2c0,1.3,0.8,2.2,2,2.2S221.9,81.8,221.9,80.5z"/>
<path class="st43" d="M226.7,83.7c-1.7,0-2.9-1.3-2.9-3.1c0-1.8,1.2-3.1,2.9-3.1c1.6,0,2.8,1.3,2.8,3.1c0,0.1,0,0.3,0,0.4h-4.6
	c0.1,1.1,0.8,1.8,1.8,1.8c0.9,0,1.5-0.5,1.6-1.3l1,0.4C229.1,82.9,228,83.7,226.7,83.7z M228.5,80c0-1-0.8-1.7-1.8-1.7
	s-1.8,0.7-1.8,1.7H228.5z"/>
<path class="st43" d="M167,94c0-1.8,1.2-3.1,3-3.1s3,1.3,3,3.1c0,1.8-1.2,3.1-3,3.1S167,95.8,167,94z M172,94c0-1.3-0.9-2.2-2-2.2
	s-2,1-2,2.2s0.9,2.2,2,2.2S172,95.2,172,94z"/>
<path class="st43" d="M179.5,93.3V97h-1v-3.6c0-0.9-0.6-1.6-1.5-1.6c-1.1,0-1.8,0.8-1.9,1.9V97h-1v-6h0.8l0.1,1
	c0.3-0.7,1.1-1.2,2-1.2C178.5,90.8,179.5,91.9,179.5,93.3z"/>
<path class="st43" d="M182.8,91h0.4c0.4,0,0.6-0.3,0.6-0.8v-0.8h0.9V91h1.3v0.9h-1.3v3.5c0,0.5,0.3,0.7,0.8,0.7c0.3,0,0.4,0,0.6-0.1
	v0.9c-0.2,0.1-0.5,0.1-0.9,0.1c-0.9,0-1.6-0.6-1.6-1.6v-3.6h-1L182.8,91L182.8,91z"/>
<path class="st43" d="M192.7,93.3V97h-1v-3.6c0-0.9-0.6-1.6-1.5-1.6c-1.1,0-1.8,0.8-1.9,1.9V97h-1v-8.2h1v3.1c0.3-0.6,1.1-1,2-1
	C191.7,90.8,192.7,91.9,192.7,93.3z"/>
<path class="st43" d="M196.8,97.1c-1.7,0-2.9-1.3-2.9-3.1c0-1.8,1.2-3.1,2.9-3.1c1.6,0,2.8,1.3,2.8,3.1c0,0.1,0,0.3,0,0.4H195
	c0.1,1.1,0.8,1.8,1.8,1.8c0.9,0,1.5-0.5,1.6-1.3l1,0.4C199.2,96.3,198,97.1,196.8,97.1z M198.5,93.4c0-1-0.8-1.7-1.8-1.7
	s-1.8,0.7-1.8,1.7H198.5z"/>
<path class="st43" d="M203.8,91l0.6,4.7l0,0l1.4-4.7h1.1l1.4,4.7l0,0l0.6-4.7h1l-1,6h-1.2l-1.4-4.6l0,0l-1.4,4.6h-1.2l-0.9-6H203.8z
	"/>
<path class="st43" d="M216.4,93.3V97h-1v-3.6c0-0.9-0.6-1.6-1.5-1.6c-1.1,0-1.8,0.8-1.9,1.9V97h-1v-8.2h1v3.1c0.3-0.6,1.1-1,2-1
	C215.4,90.8,216.4,91.9,216.4,93.3z"/>
<path class="st43" d="M220.5,97.1c-1.7,0-2.9-1.3-2.9-3.1c0-1.8,1.2-3.1,2.9-3.1c1.6,0,2.8,1.3,2.8,3.1c0,0.1,0,0.3,0,0.4h-4.6
	c0.1,1.1,0.8,1.8,1.8,1.8c0.9,0,1.5-0.5,1.6-1.3l1,0.4C222.9,96.3,221.7,97.1,220.5,97.1z M222.2,93.4c0-1-0.8-1.7-1.8-1.7
	s-1.8,0.7-1.8,1.7H222.2z"/>
<path class="st43" d="M227.1,97.1c-1.7,0-2.9-1.3-2.9-3.1c0-1.8,1.2-3.1,2.9-3.1c1.6,0,2.8,1.3,2.8,3.1c0,0.1,0,0.3,0,0.4h-4.6
	c0.1,1.1,0.8,1.8,1.8,1.8c0.9,0,1.5-0.5,1.6-1.3l1,0.4C229.4,96.3,228.3,97.1,227.1,97.1z M228.8,93.4c0-1-0.8-1.7-1.8-1.7
	s-1.8,0.7-1.8,1.7H228.8z"/>
<path class="st43" d="M232,88.8V97h-1v-8.2H232z"/>
<g>
	<path class="st43" d="M177.9,102.8c0,0.4-0.3,0.8-0.7,0.8s-0.7-0.3-0.7-0.8c0-0.4,0.3-0.8,0.7-0.8
		C177.6,102.1,177.9,102.4,177.9,102.8z M176.7,104.4h1v6h-1V104.4z"/>
	<path class="st43" d="M179.9,108.3c0,0.8,0.7,1.3,1.6,1.3c0.7,0,1.2-0.4,1.2-0.9c0-0.4-0.2-0.7-0.8-0.9l-1-0.2
		c-1-0.2-1.7-0.8-1.7-1.7c0-1,1-1.8,2.1-1.8c1.2,0,2.1,0.6,2.2,1.6l-1,0.3c0-0.6-0.5-1-1.2-1c-0.6,0-1.1,0.4-1.1,0.8
		s0.3,0.7,0.9,0.8l0.9,0.2c1,0.2,1.7,0.7,1.7,1.7s-0.9,1.8-2.2,1.8s-2.4-0.7-2.5-1.9L179.9,108.3z"/>
	<path class="st43" d="M191,110.4l-0.1-1c-0.3,0.7-1,1.1-1.9,1.1c-1.2,0-2.1-0.7-2.1-1.8c0-0.9,0.6-1.5,1.5-1.6l2.1-0.2
		c0.2,0,0.4-0.1,0.4-0.3v-0.1c0-0.8-0.6-1.3-1.4-1.3s-1.4,0.6-1.4,1.4l-1.1-0.1c0.1-1.3,1.2-2.1,2.5-2.1s2.3,0.9,2.3,2.1v2.8v1.2
		L191,110.4L191,110.4z M190.9,107.9v-0.4c0,0-0.2,0.1-0.4,0.1l-1.8,0.2c-0.5,0.1-0.8,0.4-0.8,0.8c0,0.5,0.5,0.9,1.2,0.9
		C190.1,109.5,190.9,108.8,190.9,107.9z"/>
	<path class="st43" d="M197.8,108.3c0,0.8,0.7,1.3,1.6,1.3c0.7,0,1.2-0.4,1.2-0.9c0-0.4-0.2-0.7-0.8-0.9l-1-0.2
		c-1-0.2-1.7-0.8-1.7-1.7c0-1,1-1.8,2.1-1.8c1.2,0,2.1,0.6,2.2,1.6l-1,0.3c0-0.6-0.5-1-1.2-1c-0.6,0-1.1,0.4-1.1,0.8
		s0.3,0.7,0.9,0.8l0.9,0.2c1,0.2,1.7,0.7,1.7,1.7s-0.9,1.8-2.2,1.8s-2.4-0.7-2.5-1.9L197.8,108.3z"/>
	<path class="st43" d="M202.2,104.4h0.4c0.4,0,0.6-0.3,0.6-0.8v-0.8h0.9v1.6h1.3v0.9h-1.3v3.5c0,0.5,0.3,0.7,0.8,0.7
		c0.3,0,0.4,0,0.6-0.1v0.9c-0.2,0.1-0.5,0.1-0.9,0.1c-0.9,0-1.6-0.6-1.6-1.6v-3.6h-1L202.2,104.4L202.2,104.4z"/>
	<path class="st43" d="M206.3,107.4c0-1.8,1.2-3.1,3-3.1s3,1.3,3,3.1c0,1.8-1.2,3.1-3,3.1C207.6,110.5,206.3,109.2,206.3,107.4z
		 M211.3,107.4c0-1.3-0.9-2.2-2-2.2s-2,1-2,2.2s0.9,2.2,2,2.2S211.3,108.6,211.3,107.4z"/>
	<path class="st43" d="M216.8,104.4v1.2c-0.2-0.1-0.5-0.2-0.8-0.2c-0.8,0-1.4,0.7-1.4,1.8v3.3h-1v-6h0.8l0.1,1.2
		c0.3-0.8,0.8-1.3,1.6-1.3C216.4,104.2,216.7,104.3,216.8,104.4z"/>
	<path class="st43" d="M218.2,104.4l1.8,4.6l0,0l1.8-4.6h1.1l-2.8,6.8c-0.4,0.9-1.1,1.6-1.9,1.8l-0.2-1c0.6-0.1,0.9-0.5,1.1-0.9
		l0.4-1l-2.4-5.8L218.2,104.4L218.2,104.4z"/>
</g>
<g>
	<path class="st43" d="M147.4,295.5c0,1.1,0.9,1.9,2.2,1.9c1,0,1.7-0.6,1.7-1.4c0-0.5-0.5-1-1.1-1.2l-1.5-0.3c-1.2-0.3-2-1-2-2
		c0-1.3,1.1-2.2,2.6-2.2s2.6,0.9,2.8,2.1l-1.1,0.3c0-0.9-0.8-1.4-1.8-1.4c-0.9,0-1.6,0.5-1.6,1.2c0,0.6,0.5,1,1.3,1.2l1.5,0.3
		c1.1,0.2,1.8,1,1.8,2c0,1.4-1.1,2.4-2.8,2.4c-1.8,0-3.2-1.1-3.3-2.6L147.4,295.5z"/>
	<path class="st43" d="M156.2,298.4c-1.7,0-2.9-1.3-2.9-3.1c0-1.8,1.2-3.1,2.9-3.1c1.6,0,2.8,1.3,2.8,3.1c0,0.1,0,0.3,0,0.4h-4.6
		c0.1,1.1,0.8,1.8,1.8,1.8c0.9,0,1.5-0.5,1.6-1.3l1,0.4C158.5,297.6,157.4,298.4,156.2,298.4z M157.9,294.7c0-1-0.8-1.7-1.8-1.7
		s-1.8,0.7-1.8,1.7H157.9z"/>
	<path class="st43" d="M161.1,290.1v8.2h-1v-8.2H161.1z"/>
	<path class="st43" d="M165.3,298.4c-1.7,0-2.9-1.3-2.9-3.1c0-1.8,1.2-3.1,2.9-3.1c1.6,0,2.8,1.3,2.8,3.1c0,0.1,0,0.3,0,0.4h-4.6
		c0.1,1.1,0.8,1.8,1.8,1.8c0.9,0,1.5-0.5,1.6-1.3l1,0.4C167.7,297.6,166.6,298.4,165.3,298.4z M167.1,294.7c0-1-0.8-1.7-1.8-1.7
		s-1.8,0.7-1.8,1.7H167.1z"/>
	<path class="st43" d="M171.9,298.4c-1.8,0-3-1.3-3-3.1c0-1.8,1.3-3.1,3-3.1c1.3,0,2.4,0.9,2.6,2.1l-1,0.4c-0.1-0.9-0.8-1.5-1.6-1.5
		c-1.1,0-1.9,0.9-1.9,2.2s0.8,2.2,2,2.2c0.9,0,1.6-0.7,1.7-1.6l1.1,0.3C174.4,297.5,173.3,298.4,171.9,298.4z"/>
	<path class="st43" d="M175.2,292.3h0.4c0.4,0,0.6-0.3,0.6-0.8v-0.8h0.9v1.6h1.3v0.9h-1.3v3.5c0,0.5,0.3,0.7,0.8,0.7
		c0.3,0,0.4,0,0.6-0.1v0.9c-0.2,0.1-0.5,0.1-0.9,0.1c-0.9,0-1.6-0.6-1.6-1.6v-3.6h-1L175.2,292.3L175.2,292.3z"/>
	<path class="st43" d="M181,290.7c0,0.4-0.3,0.8-0.7,0.8s-0.7-0.3-0.7-0.8s0.3-0.8,0.7-0.8S181,290.3,181,290.7z M179.8,292.2h1v6
		h-1V292.2z"/>
	<path class="st43" d="M187.6,294.6v3.6h-1v-3.6c0-0.9-0.6-1.6-1.5-1.6c-1.1,0-1.8,0.8-1.9,1.9v3.3h-1v-6h0.8l0.1,1
		c0.3-0.7,1.1-1.2,2-1.2C186.6,292.1,187.6,293.1,187.6,294.6z"/>
	<path class="st43" d="M194.7,292.2v5.9c0,1.7-1.2,2.9-2.8,2.9c-1.5,0-2.7-0.9-2.9-2.2l1-0.3c0.1,0.9,0.8,1.6,1.9,1.6
		c1.1,0,1.9-0.7,1.9-1.8v-1.1c-0.5,0.6-1.2,1-2,1c-1.7,0-3-1.3-3-3.1c0-1.8,1.2-3,2.9-3c0.9,0,1.6,0.4,2.1,1.1l0.1-0.9L194.7,292.2
		L194.7,292.2z M193.8,295.1c0-1.3-0.8-2.2-2-2.2s-2,0.9-2,2.2c0,1.2,0.8,2.1,2,2.1C193,297.3,193.8,296.4,193.8,295.1z"/>
	<path class="st43" d="M202.4,298.2l-0.1-1c-0.3,0.7-1,1.1-1.9,1.1c-1.2,0-2.1-0.7-2.1-1.8c0-0.9,0.6-1.5,1.5-1.6l2.1-0.2
		c0.2,0,0.4-0.1,0.4-0.3v-0.1c0-0.8-0.6-1.3-1.4-1.3c-0.8,0-1.4,0.6-1.4,1.4l-1.1-0.1c0.1-1.3,1.2-2.1,2.5-2.1s2.3,0.9,2.3,2.1v2.8
		v1.2L202.4,298.2L202.4,298.2z M202.2,295.8v-0.4c0,0-0.2,0.1-0.4,0.1l-1.8,0.2c-0.5,0.1-0.8,0.4-0.8,0.8c0,0.5,0.5,0.9,1.2,0.9
		C201.5,297.4,202.2,296.7,202.2,295.8z"/>
	<path class="st43" d="M209.8,298.4c-1.8,0-3-1.3-3-3.1c0-1.8,1.3-3.1,3-3.1c1.3,0,2.4,0.9,2.6,2.1l-1,0.4c-0.1-0.9-0.8-1.5-1.6-1.5
		c-1.1,0-1.9,0.9-1.9,2.2s0.8,2.2,2,2.2c0.9,0,1.6-0.7,1.7-1.6l1.1,0.3C212.3,297.5,211.1,298.4,209.8,298.4z"/>
	<path class="st43" d="M217.3,298.2l-0.1-1c-0.3,0.7-1,1.1-1.9,1.1c-1.2,0-2.1-0.7-2.1-1.8c0-0.9,0.6-1.5,1.5-1.6l2.1-0.2
		c0.2,0,0.4-0.1,0.4-0.3v-0.1c0-0.8-0.6-1.3-1.4-1.3c-0.8,0-1.4,0.6-1.4,1.4l-1.1-0.1c0.1-1.3,1.2-2.1,2.5-2.1s2.3,0.9,2.3,2.1v2.8
		v1.2L217.3,298.2L217.3,298.2z M217.2,295.8v-0.4c0,0-0.2,0.1-0.4,0.1l-1.8,0.2c-0.5,0.1-0.8,0.4-0.8,0.8c0,0.5,0.5,0.9,1.2,0.9
		C216.4,297.4,217.2,296.7,217.2,295.8z"/>
	<path class="st43" d="M219.1,292.3h0.4c0.4,0,0.6-0.3,0.6-0.8v-0.8h0.9v1.6h1.3v0.9H221v3.5c0,0.5,0.3,0.7,0.8,0.7
		c0.3,0,0.4,0,0.6-0.1v0.9c-0.2,0.1-0.5,0.1-0.9,0.1c-0.9,0-1.6-0.6-1.6-1.6v-3.6h-1L219.1,292.3L219.1,292.3z"/>
	<path class="st43" d="M226.1,298.4c-1.7,0-2.9-1.3-2.9-3.1c0-1.8,1.2-3.1,2.9-3.1c1.6,0,2.8,1.3,2.8,3.1c0,0.1,0,0.3,0,0.4h-4.6
		c0.1,1.1,0.8,1.8,1.8,1.8c0.9,0,1.5-0.5,1.6-1.3l1,0.4C228.5,297.6,227.4,298.4,226.1,298.4z M227.9,294.7c0-1-0.8-1.7-1.8-1.7
		s-1.8,0.7-1.8,1.7H227.9z"/>
	<path class="st43" d="M235.7,292.2v5.9c0,1.7-1.2,2.9-2.8,2.9c-1.5,0-2.7-0.9-2.9-2.2l1-0.3c0.1,0.9,0.8,1.6,1.9,1.6
		c1.1,0,1.9-0.7,1.9-1.8v-1.1c-0.5,0.6-1.2,1-2,1c-1.7,0-3-1.3-3-3.1c0-1.8,1.2-3,2.9-3c0.9,0,1.6,0.4,2.1,1.1l0.1-0.9L235.7,292.2
		L235.7,292.2z M234.7,295.1c0-1.3-0.8-2.2-2-2.2s-2,0.9-2,2.2c0,1.2,0.8,2.1,2,2.1C233.9,297.3,234.7,296.4,234.7,295.1z"/>
	<path class="st43" d="M236.9,295.2c0-1.8,1.2-3.1,3-3.1s3,1.3,3,3.1c0,1.8-1.2,3.1-3,3.1S236.9,297,236.9,295.2z M241.9,295.2
		c0-1.3-0.9-2.2-2-2.2s-2,1-2,2.2s0.9,2.2,2,2.2S241.9,296.5,241.9,295.2z"/>
	<path class="st43" d="M247.4,292.3v1.2c-0.2-0.1-0.5-0.2-0.8-0.2c-0.8,0-1.4,0.7-1.4,1.8v3.3h-1v-6h0.8l0.1,1.2
		c0.3-0.8,0.8-1.3,1.6-1.3C246.9,292.1,247.2,292.2,247.4,292.3z"/>
	<path class="st43" d="M248.8,292.2l1.8,4.6l0,0l1.8-4.6h1.1l-2.8,6.8c-0.4,0.9-1.1,1.6-1.9,1.8l-0.2-0.9c0.6-0.1,0.9-0.5,1.1-0.9
		l0.4-1l-2.4-5.8H248.8z"/>
	<path class="st43" d="M142.4,311.6l-0.1-1c-0.3,0.7-1,1.1-1.9,1.1c-1.2,0-2.1-0.7-2.1-1.8c0-0.9,0.6-1.5,1.5-1.6l2.1-0.2
		c0.2,0,0.4-0.1,0.4-0.3v-0.1c0-0.8-0.6-1.3-1.4-1.3s-1.4,0.6-1.4,1.4l-1.1-0.1c0.1-1.3,1.2-2.1,2.5-2.1s2.3,0.9,2.3,2.1v2.8v1.2
		L142.4,311.6L142.4,311.6z M142.2,309.2v-0.4c0,0-0.2,0.1-0.4,0.1l-1.8,0.2c-0.5,0.1-0.8,0.4-0.8,0.8c0,0.5,0.5,0.9,1.2,0.9
		C141.5,310.8,142.2,310.1,142.2,309.2z"/>
	<path class="st43" d="M145.7,303.5v8.2h-1v-8.2H145.7z"/>
	<path class="st43" d="M148.3,303.5v8.2h-1v-8.2H148.3z"/>
	<path class="st43" d="M149.6,308.6c0-1.8,1.2-3.1,3-3.1s3,1.3,3,3.1s-1.2,3.1-3,3.1S149.6,310.4,149.6,308.6z M154.6,308.6
		c0-1.3-0.9-2.2-2-2.2s-2,1-2,2.2s0.9,2.2,2,2.2S154.6,309.9,154.6,308.6z"/>
	<path class="st43" d="M157.5,305.6l0.6,4.7l0,0l1.4-4.7h1.1l1.4,4.7l0,0l0.6-4.7h1l-1,6h-1.2L160,307l0,0l-1.4,4.6h-1.2l-0.9-6
		H157.5z"/>
	<path class="st43" d="M165.4,309.6c0,0.8,0.7,1.3,1.6,1.3c0.7,0,1.2-0.4,1.2-0.9c0-0.4-0.2-0.7-0.8-0.9l-1-0.2
		c-1-0.2-1.7-0.8-1.7-1.7c0-1,1-1.8,2.1-1.8c1.2,0,2.1,0.6,2.2,1.6l-1,0.3c0-0.6-0.5-1-1.2-1c-0.6,0-1.1,0.4-1.1,0.8
		s0.3,0.7,0.9,0.8l0.9,0.2c1,0.2,1.7,0.7,1.7,1.7s-0.9,1.8-2.2,1.8s-2.4-0.7-2.5-1.9L165.4,309.6z"/>
	<path class="st43" d="M172.2,305.7h0.4c0.4,0,0.6-0.3,0.6-0.8v-0.8h0.9v1.6h1.3v0.9h-1.3v3.5c0,0.5,0.3,0.7,0.8,0.7
		c0.3,0,0.4,0,0.6-0.1v0.9c-0.2,0.1-0.5,0.1-0.9,0.1c-0.9,0-1.6-0.6-1.6-1.6v-3.6h-1L172.2,305.7L172.2,305.7z"/>
	<path class="st43" d="M176.3,308.6c0-1.8,1.2-3.1,3-3.1s3,1.3,3,3.1s-1.2,3.1-3,3.1S176.3,310.4,176.3,308.6z M181.3,308.6
		c0-1.3-0.9-2.2-2-2.2s-2,1-2,2.2s0.9,2.2,2,2.2S181.3,309.9,181.3,308.6z"/>
	<path class="st43" d="M186.6,309.6c0,0.8,0.7,1.3,1.6,1.3c0.7,0,1.2-0.4,1.2-0.9c0-0.4-0.2-0.7-0.8-0.9l-1-0.2
		c-1-0.2-1.7-0.8-1.7-1.7c0-1,1-1.8,2.1-1.8c1.2,0,2.1,0.6,2.2,1.6l-1,0.3c0-0.6-0.5-1-1.2-1c-0.6,0-1.1,0.4-1.1,0.8
		s0.3,0.7,0.9,0.8l0.9,0.2c1,0.2,1.7,0.7,1.7,1.7s-0.9,1.8-2.2,1.8s-2.4-0.7-2.5-1.9L186.6,309.6z"/>
	<path class="st43" d="M194.2,311.8c-1.7,0-2.9-1.3-2.9-3.1s1.2-3.1,2.9-3.1c1.6,0,2.8,1.3,2.8,3.1c0,0.1,0,0.3,0,0.4h-4.6
		c0.1,1.1,0.8,1.8,1.8,1.8c0.9,0,1.5-0.5,1.6-1.3l1,0.4C196.6,311,195.5,311.8,194.2,311.8z M195.9,308.1c0-1-0.8-1.7-1.8-1.7
		s-1.8,0.7-1.8,1.7H195.9z"/>
	<path class="st43" d="M200.8,311.8c-1.7,0-2.9-1.3-2.9-3.1s1.2-3.1,2.9-3.1c1.6,0,2.8,1.3,2.8,3.1c0,0.1,0,0.3,0,0.4H199
		c0.1,1.1,0.8,1.8,1.8,1.8c0.9,0,1.5-0.5,1.6-1.3l1,0.4C203.1,311,202,311.8,200.8,311.8z M202.5,308.1c0-1-0.8-1.7-1.8-1.7
		s-1.8,0.7-1.8,1.7H202.5z"/>
	<path class="st43" d="M206.6,305.7h0.4c0.4,0,0.6-0.3,0.6-0.8v-0.8h0.9v1.6h1.3v0.9h-1.3v3.5c0,0.5,0.3,0.7,0.8,0.7
		c0.3,0,0.4,0,0.6-0.1v0.9c-0.2,0.1-0.5,0.1-0.9,0.1c-0.9,0-1.6-0.6-1.6-1.6v-3.6h-1L206.6,305.7L206.6,305.7z"/>
	<path class="st43" d="M216.4,308v3.6h-1V308c0-0.9-0.6-1.6-1.5-1.6c-1.1,0-1.8,0.8-1.9,1.9v3.3h-1v-8.2h1v3.1c0.3-0.6,1.1-1,2-1
		C215.4,305.5,216.4,306.5,216.4,308z"/>
	<path class="st43" d="M220.5,311.8c-1.7,0-2.9-1.3-2.9-3.1s1.2-3.1,2.9-3.1c1.6,0,2.8,1.3,2.8,3.1c0,0.1,0,0.3,0,0.4h-4.6
		c0.1,1.1,0.8,1.8,1.8,1.8c0.9,0,1.5-0.5,1.6-1.3l1,0.4C222.9,311,221.8,311.8,220.5,311.8z M222.2,308.1c0-1-0.8-1.7-1.8-1.7
		s-1.8,0.7-1.8,1.7H222.2z"/>
	<path class="st43" d="M227.5,309.6c0,0.8,0.7,1.3,1.6,1.3c0.7,0,1.2-0.4,1.2-0.9c0-0.4-0.2-0.7-0.8-0.9l-1-0.2
		c-1-0.2-1.7-0.8-1.7-1.7c0-1,1-1.8,2.1-1.8c1.2,0,2.1,0.6,2.2,1.6l-1,0.3c0-0.6-0.5-1-1.2-1c-0.6,0-1.1,0.4-1.1,0.8
		s0.3,0.7,0.9,0.8l0.9,0.2c1,0.2,1.7,0.7,1.7,1.7s-0.9,1.8-2.2,1.8s-2.4-0.7-2.5-1.9L227.5,309.6z"/>
	<path class="st43" d="M231.9,305.7h0.4c0.4,0,0.6-0.3,0.6-0.8v-0.8h0.9v1.6h1.3v0.9h-1.3v3.5c0,0.5,0.3,0.7,0.8,0.7
		c0.3,0,0.4,0,0.6-0.1v0.9c-0.2,0.1-0.5,0.1-0.9,0.1c-0.9,0-1.6-0.6-1.6-1.6v-3.6h-1L231.9,305.7L231.9,305.7z"/>
	<path class="st43" d="M236,308.6c0-1.8,1.2-3.1,3-3.1s3,1.3,3,3.1s-1.2,3.1-3,3.1C237.2,311.8,236,310.4,236,308.6z M241,308.6
		c0-1.3-0.9-2.2-2-2.2s-2,1-2,2.2s0.9,2.2,2,2.2S241,309.9,241,308.6z"/>
	<path class="st43" d="M246.5,305.7v1.2c-0.2-0.1-0.5-0.2-0.8-0.2c-0.8,0-1.4,0.7-1.4,1.8v3.3h-1v-6h0.8l0.1,1.2
		c0.3-0.8,0.8-1.3,1.6-1.3C246,305.5,246.3,305.6,246.5,305.7z"/>
	<path class="st43" d="M248.7,304.1c0,0.4-0.3,0.8-0.7,0.8s-0.7-0.3-0.7-0.8c0-0.4,0.3-0.8,0.7-0.8S248.7,303.7,248.7,304.1z
		 M247.5,305.6h1v6h-1V305.6z"/>
	<path class="st43" d="M252.7,311.8c-1.7,0-2.9-1.3-2.9-3.1s1.2-3.1,2.9-3.1c1.6,0,2.8,1.3,2.8,3.1c0,0.1,0,0.3,0,0.4h-4.6
		c0.1,1.1,0.8,1.8,1.8,1.8c0.9,0,1.5-0.5,1.6-1.3l1,0.4C255.1,311,254,311.8,252.7,311.8z M254.4,308.1c0-1-0.8-1.7-1.8-1.7
		s-1.8,0.7-1.8,1.7H254.4z"/>
	<path class="st43" d="M257.3,295.6c0,0.8,0.7,1.3,1.6,1.3c0.7,0,1.2-0.4,1.2-0.9c0-0.4-0.2-0.7-0.8-0.9l-1-0.2
		c-1-0.2-1.7-0.8-1.7-1.7c0-1,1-1.8,2.1-1.8c1.2,0,2.1,0.6,2.2,1.6l-1,0.3c0-0.6-0.5-1-1.2-1c-0.6,0-1.1,0.4-1.1,0.8
		s0.3,0.7,0.9,0.8l0.9,0.2c1,0.2,1.7,0.7,1.7,1.7s-0.9,1.8-2.2,1.8c-1.3,0-2.4-0.7-2.5-1.9L257.3,295.6z"/>
	<path class="st43" d="M168.2,317.5c0,0.4-0.3,0.8-0.7,0.8s-0.7-0.3-0.7-0.8s0.3-0.8,0.7-0.8S168.2,317.1,168.2,317.5z M167,319h1v6
		h-1V319z"/>
	<path class="st43" d="M174.8,321.4v3.6h-1v-3.6c0-0.9-0.6-1.6-1.5-1.6c-1.1,0-1.8,0.8-1.9,1.9v3.3h-1v-6h0.8l0.1,1
		c0.3-0.7,1.1-1.2,2-1.2C173.9,318.9,174.8,319.9,174.8,321.4z"/>
	<path class="st43" d="M179,325.2c-1.8,0-3-1.3-3-3.1c0-1.8,1.3-3.1,3-3.1c1.3,0,2.4,0.9,2.6,2.1l-1,0.4c-0.1-0.9-0.8-1.5-1.6-1.5
		c-1.1,0-1.9,0.9-1.9,2.2s0.8,2.2,2,2.2c0.9,0,1.6-0.7,1.7-1.6l1.1,0.3C181.5,324.3,180.4,325.2,179,325.2z"/>
	<path class="st43" d="M183.8,316.9v8.2h-1v-8.2H183.8z"/>
	<path class="st43" d="M189.7,325l-0.1-0.9c-0.3,0.7-1.1,1.1-2,1.1c-1.3,0-2.3-1-2.3-2.4V319h1v3.6c0,0.9,0.6,1.5,1.5,1.5
		c1,0,1.8-0.8,1.8-1.8V319h1v4.8v1.2H189.7z"/>
	<path class="st43" d="M197,325l-0.1-1.1c-0.5,0.7-1.2,1.2-2.1,1.2c-1.7,0-3-1.3-3-3.1c0-1.8,1.2-3.1,2.9-3.1c0.9,0,1.6,0.4,2.1,1.1
		v-3.1h1v7v1.2L197,325L197,325z M196.8,322c0-1.3-0.9-2.2-2-2.2c-1.2,0-2,0.9-2,2.2c0,1.2,0.9,2.2,2,2.2
		C196,324.2,196.8,323.2,196.8,322z"/>
	<path class="st43" d="M202,325.2c-1.7,0-2.9-1.3-2.9-3.1c0-1.8,1.2-3.1,2.9-3.1c1.6,0,2.8,1.3,2.8,3.1c0,0.1,0,0.3,0,0.4h-4.6
		c0.1,1.1,0.8,1.8,1.8,1.8c0.9,0,1.5-0.5,1.6-1.3l1,0.4C204.3,324.4,203.2,325.2,202,325.2z M203.7,321.5c0-1-0.8-1.7-1.8-1.7
		s-1.8,0.7-1.8,1.7H203.7z"/>
	<path class="st43" d="M210.7,325l-0.1-1.1c-0.5,0.7-1.2,1.2-2.1,1.2c-1.7,0-3-1.3-3-3.1c0-1.8,1.2-3.1,2.9-3.1
		c0.9,0,1.6,0.4,2.1,1.1v-3.1h1v7v1.2L210.7,325L210.7,325z M210.6,322c0-1.3-0.9-2.2-2-2.2c-1.2,0-2,0.9-2,2.2c0,1.2,0.9,2.2,2,2.2
		C209.7,324.2,210.6,323.2,210.6,322z"/>
	<path class="st43" d="M216.8,317.5c0,0.4-0.3,0.8-0.7,0.8s-0.7-0.3-0.7-0.8s0.3-0.8,0.7-0.8S216.8,317.1,216.8,317.5z M215.6,319h1
		v6h-1V319z"/>
	<path class="st43" d="M223.4,321.4v3.6h-1v-3.6c0-0.9-0.6-1.6-1.5-1.6c-1.1,0-1.8,0.8-1.9,1.9v3.3h-1v-6h0.8l0.1,1
		c0.3-0.7,1.1-1.2,2-1.2C222.4,318.9,223.4,319.9,223.4,321.4z"/>
	<path class="st43" d="M228.6,317.5c0,0.4-0.3,0.8-0.7,0.8s-0.7-0.3-0.7-0.8s0.3-0.8,0.7-0.8S228.6,317.1,228.6,317.5z M227.3,319h1
		v6h-1V319z"/>
	<path class="st43" d="M229.4,319.1h0.4c0.4,0,0.6-0.3,0.6-0.8v-0.8h0.9v1.6h1.3v0.9h-1.3v3.5c0,0.5,0.3,0.7,0.8,0.7
		c0.3,0,0.4,0,0.6-0.1v0.9c-0.2,0.1-0.5,0.1-0.9,0.1c-0.9,0-1.6-0.6-1.6-1.6V320h-1L229.4,319.1L229.4,319.1z"/>
	<path class="st43" d="M203.1,334.7l-3.4,3.4l-3.4-3.4l0.6-0.6l2.3,2.3V330h0.8v6.4l2.3-2.3L203.1,334.7z"/>
</g>
<g>
	
		<linearGradient id="SVGID_44_" gradientUnits="userSpaceOnUse" x1="214.9667" y1="-6.5365" x2="144.3125" y2="-18.9948" gradientTransform="matrix(1 0 0 -1 0 19.8898)">
		<stop  offset="0" style="stop-color:#F0DCD6"/>
		<stop  offset="0.4822" style="stop-color:#F0D9D3"/>
		<stop  offset="0.5716" style="stop-color:#EED2CC"/>
		<stop  offset="0.7047" style="stop-color:#E9C0B7"/>
		<stop  offset="0.8642" style="stop-color:#E1A297"/>
		<stop  offset="1" style="stop-color:#D98475"/>
	</linearGradient>
	<path class="st44" d="M149,63.2c17,0,28.9-14.4,42.5-32.7c7.8-10.5,13.4-18.7,20.2-22.6c-3.3-2.6-7.2-4-12.1-4
		c-14,0-19.4,11.5-29.3,28.9c-7.3,12.8-14.5,24-21.7,30.4"/>
</g>
<g>
	
		<linearGradient id="SVGID_45_" gradientUnits="userSpaceOnUse" x1="56.9404" y1="494.8604" x2="-13.7392" y2="482.3976" gradientTransform="matrix(0.9686 0.2487 0.2487 -0.9686 79.4283 500.87)">
		<stop  offset="0" style="stop-color:#F0DCD6"/>
		<stop  offset="0.4822" style="stop-color:#F0D9D3"/>
		<stop  offset="0.5716" style="stop-color:#EED2CC"/>
		<stop  offset="0.7047" style="stop-color:#E9C0B7"/>
		<stop  offset="0.8642" style="stop-color:#E1A297"/>
		<stop  offset="1" style="stop-color:#D98475"/>
	</linearGradient>
	<path class="st45" d="M184.6,54.9c16.4,4.2,31.5-6.7,49.3-21.1c10.2-8.2,17.6-14.7,25.2-16.9c-2.6-3.3-6-5.6-10.7-6.8
		c-13.6-3.5-21.7,6.3-35.6,20.7c-10.2,10.6-20,19.7-28.6,24"/>
</g>
<g>
	
		<linearGradient id="SVGID_46_" gradientUnits="userSpaceOnUse" x1="-2352.0488" y1="1654.7856" x2="-2422.6655" y2="1642.3339" gradientTransform="matrix(-6.280000e-02 0.998 0.998 6.280000e-02 -1427.2284 2469.6265)">
		<stop  offset="0" style="stop-color:#F0DCD6"/>
		<stop  offset="0.4822" style="stop-color:#F0D9D3"/>
		<stop  offset="0.5716" style="stop-color:#EED2CC"/>
		<stop  offset="0.7047" style="stop-color:#E9C0B7"/>
		<stop  offset="0.8642" style="stop-color:#E1A297"/>
		<stop  offset="1" style="stop-color:#D98475"/>
	</linearGradient>
	<path class="st46" d="M339.4,158c-1.1,16.9,12.5,29.7,30,44.5c10,8.4,17.8,14.5,21.3,21.6c2.8-3.2,4.4-6.9,4.7-11.8
		c0.9-14-10.3-20.1-27-31.1c-12.3-8-23.1-16-29-23.5"/>
</g>
<g>
	
		<linearGradient id="SVGID_47_" gradientUnits="userSpaceOnUse" x1="-3912.0649" y1="-755.8439" x2="-3982.7192" y2="-768.3022" gradientTransform="matrix(-1 0 0 1 -3727.7317 1129.4176)">
		<stop  offset="0" style="stop-color:#CC716A"/>
		<stop  offset="0.4822" style="stop-color:#C7505A"/>
		<stop  offset="0.7279" style="stop-color:#A23439"/>
		<stop  offset="1" style="stop-color:#7D1818"/>
	</linearGradient>
	<path class="st47" d="M250.3,336.8c-17,0-28.9,14.4-42.5,32.7c-7.8,10.5-13.4,18.7-20.2,22.6c3.3,2.6,7.2,4,12.1,4
		c14,0,19.4-11.5,29.3-28.9c7.3-12.8,14.5-24,21.7-30.4"/>
</g>
<g>
	
		<linearGradient id="SVGID_48_" gradientUnits="userSpaceOnUse" x1="-3629.2476" y1="-1489.1141" x2="-3699.8547" y2="-1501.5641" gradientTransform="matrix(-0.9298 -0.3681 -0.3681 0.9298 -3801.1199 404.3505)">
		<stop  offset="0" style="stop-color:#CC716A"/>
		<stop  offset="0.4822" style="stop-color:#C7505A"/>
		<stop  offset="0.7279" style="stop-color:#A23439"/>
		<stop  offset="1" style="stop-color:#7D1818"/>
	</linearGradient>
	<path class="st48" d="M196.4,345.8c-15.8-6.3-32.1,2.7-51.6,14.8c-11.1,6.9-19.3,12.4-27.1,13.6c2.2,3.6,5.2,6.3,9.8,8.1
		c13.1,5.2,22.3-3.5,37.9-16.1c11.5-9.2,22.3-17,31.3-20.3"/>
</g>
<g>
	
		<linearGradient id="SVGID_49_" gradientUnits="userSpaceOnUse" x1="-2603.1631" y1="1575.5453" x2="-2673.7715" y2="1563.0952" gradientTransform="matrix(-0.1874 0.9823 0.9823 0.1874 -1668.2198 2509.4668)">
		<stop  offset="0" style="stop-color:#CC716A"/>
		<stop  offset="0.4822" style="stop-color:#C7505A"/>
		<stop  offset="0.7279" style="stop-color:#A23439"/>
		<stop  offset="1" style="stop-color:#7D1818"/>
	</linearGradient>
	<path class="st49" d="M343.5,175.9c-3.2,16.7,8.7,31,24.2,47.9c8.8,9.6,15.8,16.7,18.4,24.1c3.1-2.8,5.2-6.3,6.2-11.1
		c2.6-13.8-7.7-21.2-22.9-34.2c-11.2-9.5-20.9-18.8-25.8-27"/>
</g>
<g>
	<path class="st43" d="M160.9,202.5v-14.1c0-1.1-0.9-1.6-2.7-1.6c-0.1,0-0.2-0.2-0.2-0.5s0.1-0.5,0.2-0.5c0.4,0,1.7,0.1,3.7,0.1
		s3.3,0,3.7-0.1c0.1,0,0.2,0.2,0.2,0.5s-0.1,0.5-0.2,0.5c-1.6,0-2.5,0.5-2.5,1.6v12.7c0,0.5,0.1,0.9,0.2,1.4
		c0.1,0.4,0.4,0.8,0.8,1.2c0.4,0.3,0.9,0.5,1.5,0.5l4.4-0.2c1.2,0,2.1-0.5,2.8-1.3s1-1.8,1-3c0-0.1,0.2-0.2,0.6-0.2s0.6,0.1,0.6,0.2
		v5c0,0.2-0.1,0.4-0.4,0.4c-0.2,0-0.5,0.1-0.8,0.1c-1.4,0-3.4,0-6.1-0.1c-2.7,0-4.6,0-5.7,0s-2.3,0-3.6,0.1c-0.1,0-0.2-0.2-0.2-0.5
		c0-0.4,0.1-0.5,0.2-0.5C160.1,204,160.9,203.5,160.9,202.5z"/>
	<path class="st43" d="M177.3,198.9c0-1.7,0.5-3.1,1.6-4.4c1.1-1.2,2.3-1.8,3.6-1.8s2.4,0.5,3.2,1.4s1.2,1.7,1.2,2.3
		s-0.2,0.9-0.7,0.9h-6.4c-0.3,0-0.4,0.3-0.4,0.9c0,1.5,0.4,2.8,1.1,3.9c0.7,1.1,1.7,1.6,3,1.6c1,0,1.9-0.3,2.8-0.8c0,0,0.1,0,0.2,0
		c0.1,0,0.2,0.1,0.3,0.2c0.1,0.1,0.1,0.2,0.1,0.3c0,0,0,0.1-0.1,0.1c-1.5,1.3-3,2-4.4,2s-2.7-0.7-3.7-2
		C177.8,202.1,177.3,200.6,177.3,198.9z M179.8,196.1c0,0.1,0.1,0.2,0.3,0.2h4.5c0.1,0,0.2-0.1,0.2-0.2c0-0.4-0.3-0.9-0.8-1.6
		c-0.5-0.6-1-0.9-1.6-0.9s-1.1,0.2-1.6,0.6c-0.4,0.4-0.8,1-1.1,1.7C179.9,195.9,179.8,196,179.8,196.1z"/>
	<path class="st43" d="M188.8,209.4c0-0.9,0.9-2,2.6-3.3c0.2-0.1,0.2-0.2,0.2-0.3s-0.1-0.2-0.3-0.2c-1.3-0.4-1.9-1.1-1.9-2.1
		c0-0.5,0.5-1.1,1.6-1.9c0.1-0.1,0.2-0.1,0.3-0.2c0.1-0.1,0.2-0.2,0.2-0.3s-0.1-0.2-0.2-0.3c-1.4-0.9-2.1-2-2.1-3.4s0.5-2.5,1.4-3.4
		s2-1.3,3.2-1.3s2.2,0.2,3,0.5c0.8,0.4,1.5,0.5,2,0.5h2.4c0.1,0,0.2,0.2,0.2,0.6s-0.1,0.6-0.2,0.6h-2.4c0,0.3,0.1,0.9,0.1,1.5
		c0,1.4-0.4,2.5-1.3,3.4c-0.9,0.9-2.1,1.4-3.7,1.4c-0.3,0-0.7,0-1.1-0.1c-0.2,0-0.4,0.1-0.6,0.2c-0.7,0.4-1,0.9-1,1.4
		c0,0.8,0.7,1.1,2.1,1.1h3.6c2.8,0,4.2,1.1,4.2,3.2c0,1.6-0.8,3-2.3,4c-1.5,1.1-3.2,1.6-5,1.6c-1.7,0-3-0.3-3.9-1
		C189.3,211.2,188.8,210.4,188.8,209.4z M191.1,208.6c0,0.9,0.3,1.7,1,2.2s1.7,0.8,3,0.8s2.4-0.3,3.2-0.9s1.3-1.4,1.3-2.3
		c0-1.8-1.2-2.6-3.5-2.6h-2.6c-0.3,0-0.6,0.1-0.9,0.3C191.6,206.8,191.1,207.6,191.1,208.6z M191.5,196.9c0,1,0.3,1.9,0.9,2.5
		c0.6,0.7,1.3,1,2.1,1c1.6,0,2.4-1.1,2.4-3.2c0-1.6-0.4-2.7-1.2-3.4c-0.4-0.3-0.9-0.4-1.6-0.4s-1.3,0.3-1.8,0.9
		C191.8,195.1,191.5,195.9,191.5,196.9z"/>
	<path class="st43" d="M202.6,198.9c0-1.7,0.5-3.1,1.6-4.4c1.1-1.2,2.3-1.8,3.6-1.8s2.4,0.5,3.2,1.4s1.2,1.7,1.2,2.3
		s-0.2,0.9-0.7,0.9h-6.4c-0.3,0-0.4,0.3-0.4,0.9c0,1.5,0.4,2.8,1.1,3.9c0.7,1.1,1.7,1.6,3,1.6c1,0,1.9-0.3,2.8-0.8c0,0,0.1,0,0.2,0
		c0.1,0,0.2,0.1,0.3,0.2c0.1,0.1,0.1,0.2,0.1,0.3c0,0,0,0.1-0.1,0.1c-1.5,1.3-3,2-4.4,2s-2.7-0.7-3.7-2
		C203.1,202.1,202.6,200.6,202.6,198.9z M205.1,196.1c0,0.1,0.1,0.2,0.3,0.2h4.5c0.1,0,0.2-0.1,0.2-0.2c0-0.4-0.3-0.9-0.8-1.6
		s-1-0.9-1.6-0.9s-1.1,0.2-1.6,0.6c-0.4,0.4-0.8,1-1.1,1.7C205.1,195.9,205.1,196,205.1,196.1z"/>
	<path class="st43" d="M226,203.2c0,0.7,0.5,1.1,1.6,1.1c0.1,0,0.2,0.1,0.2,0.4c0,0.3-0.1,0.4-0.2,0.4c-0.7-0.1-1.6-0.1-2.6-0.1
		s-1.9,0-2.7,0.1c-0.1,0-0.2-0.1-0.2-0.4c0-0.3,0.1-0.4,0.2-0.4c1,0,1.6-0.4,1.6-1.1v-5.7c0-0.8-0.1-1.5-0.2-2
		c-0.1-0.6-0.4-0.9-0.6-1.2c-0.3-0.2-0.8-0.3-1.5-0.3c-0.4,0-0.8,0.1-1.1,0.2s-0.6,0.4-0.9,0.6c-0.3,0.2-0.6,0.5-0.8,0.8
		s-0.3,0.7-0.3,1.1v6.6c0,0.7,0.5,1.1,1.5,1.1c0.1,0,0.2,0.1,0.2,0.4c0,0.3-0.1,0.4-0.2,0.4c-0.7-0.1-1.6-0.1-2.6-0.1
		s-1.9,0-2.7,0.1c-0.1,0-0.2-0.1-0.2-0.4c0-0.3,0.1-0.4,0.2-0.4c1.1,0,1.6-0.4,1.6-1.1V197c0-1.2-0.4-1.8-1.2-1.8
		c-0.2,0-0.2-0.1-0.2-0.4s0.1-0.4,0.2-0.4c0.4,0,0.8-0.1,1.2-0.4c0.5-0.3,0.9-0.6,1.2-0.9c0.3-0.3,0.6-0.5,0.7-0.5
		c0.1,0,0.2,0.1,0.2,0.2c0,0.1,0,0.3,0,0.6s0,0.5,0,0.7s0.1,0.3,0.2,0.3c0.1,0,0.1,0,0.2-0.1c1-1,2.2-1.5,3.7-1.5
		c1.4,0,2.4,0.7,3.1,2.1c0.3,0.6,0.5,1.8,0.5,3.5L226,203.2L226,203.2z"/>
	<path class="st43" d="M228.8,199.2c0-1.8,0.6-3.3,1.9-4.6s2.9-1.9,4.9-1.9c0.7,0,1.2,0.1,1.6,0.2c0.1,0,0.2,0.1,0.3,0.1
		s0.2-0.1,0.2-0.4v-4.2c0-1.3-0.4-2-1.3-2c-0.2,0-0.2-0.1-0.2-0.4c0-0.3,0.1-0.4,0.2-0.4c0.2,0,0.7-0.2,1.4-0.5s1.2-0.6,1.5-0.8
		s0.5-0.3,0.6-0.3s0.1,0.1,0.1,0.2s0,0.4,0,0.9s0,1,0,1.4v15.3c0,1.4,0.4,2.1,1.2,2.1c0.1,0,0.2,0,0.4,0s0.3,0,0.3,0s0.1,0,0.1,0.1
		s0.1,0.1,0.1,0.3s0,0.2,0,0.3s0,0.1-0.1,0.1s-0.3,0-0.7,0.1s-1,0.2-1.9,0.4c-0.8,0.2-1.3,0.3-1.3,0.4c-0.2,0-0.2-0.2-0.2-0.7v-0.6
		c0-0.2-0.1-0.3-0.2-0.3s-0.2,0.1-0.4,0.2c-0.9,0.8-1.8,1.3-2.8,1.3c-1.9,0-3.2-0.6-4.1-1.7C229.3,202.4,228.8,201,228.8,199.2z
		 M237.6,202.2v-6.6c0-0.7-0.1-1.2-0.3-1.3c-0.6-0.5-1.3-0.7-2.1-0.7c-1.3,0-2.3,0.5-3,1.6s-1.1,2.3-1.1,3.7s0.4,2.6,1.2,3.6
		s1.7,1.5,2.7,1.5c0.7,0,1.4-0.2,1.9-0.6C237.4,203,237.6,202.6,237.6,202.2z"/>
</g>
<g>
	
		<linearGradient id="SVGID_50_" gradientUnits="userSpaceOnUse" x1="-3754.0063" y1="-1257.2457" x2="-3824.686" y2="-1269.7084" gradientTransform="matrix(-0.9686 -0.2487 -0.2487 0.9686 -3807.1602 648.4375)">
		<stop  offset="0" style="stop-color:#CC716A"/>
		<stop  offset="0.4822" style="stop-color:#C7505A"/>
		<stop  offset="0.7279" style="stop-color:#A23439"/>
		<stop  offset="1" style="stop-color:#7D1818"/>
	</linearGradient>
	<path class="st50" d="M214.7,345.1c-16.4-4.2-31.5,6.7-49.3,21.1c-10.2,8.2-17.6,14.7-25.2,16.9c2.6,3.3,6,5.6,10.7,6.8
		c13.6,3.5,21.7-6.3,35.6-20.7c10.2-10.6,20-19.7,28.6-24"/>
</g>
</svg>
